<svg width="54" height="54" viewBox="0 0 54 54" fill="none" xmlns="http://www.w3.org/2000/svg">
<circle cx="27" cy="27" r="27" fill="#4D4D4D"/>
<path d="M37.2734 26.7832C37.2734 29.1738 36.8867 31.2539 36.1133 33.0234C35.3398 34.7812 34.2676 36.1934 32.8965 37.2598L37.1504 40.5996L33.793 43.5703L28.3438 39.1934C27.7227 39.2988 27.0781 39.3516 26.4102 39.3516C24.2891 39.3516 22.3965 38.8418 20.7324 37.8223C19.0684 36.8027 17.7793 35.3496 16.8652 33.4629C15.9512 31.5645 15.4883 29.3848 15.4766 26.9238V25.6582C15.4766 23.1387 15.9277 20.9238 16.8301 19.0137C17.7441 17.0918 19.0273 15.6211 20.6797 14.6016C22.3438 13.5703 24.2422 13.0547 26.375 13.0547C28.5078 13.0547 30.4004 13.5703 32.0527 14.6016C33.7168 15.6211 35 17.0918 35.9023 19.0137C36.8164 20.9238 37.2734 23.1328 37.2734 25.6406V26.7832ZM31.9297 25.623C31.9297 22.9395 31.4492 20.9004 30.4883 19.5059C29.5273 18.1113 28.1562 17.4141 26.375 17.4141C24.6055 17.4141 23.2402 18.1055 22.2793 19.4883C21.3184 20.8594 20.832 22.875 20.8203 25.5352V26.7832C20.8203 29.3965 21.3008 31.4238 22.2617 32.8652C23.2227 34.3066 24.6055 35.0273 26.4102 35.0273C28.1797 35.0273 29.5391 34.3359 30.4883 32.9531C31.4375 31.5586 31.918 29.5312 31.9297 26.8711V25.623Z" fill="white"/>
</svg>
