<svg width="173" height="105" viewBox="0 0 173 105" fill="none" xmlns="http://www.w3.org/2000/svg">
<path d="M13.9415 59.2568L29.1014 59.2178V64.0992C29.1014 65.2317 28.3204 66.3642 26.8598 67.2234C26.5137 67.4288 26.1505 67.6039 25.7742 67.7467H25.7117L25.5243 67.8091C25.3056 67.8872 25.0869 67.9732 24.8526 68.0356L24.4777 68.1294L24.259 68.184L24.0637 68.2309L23.2827 68.3637H23.0093H22.8219H22.5485C22.2986 68.3637 22.0486 68.3637 21.7675 68.3637H20.9864L20.1507 68.309H20.057H19.8305C19.6118 68.309 19.3931 68.2543 19.1822 68.2153L18.9089 68.1528C18.6512 68.0981 18.4012 68.0278 18.1279 67.9575C17.8545 67.8872 17.8545 67.9029 17.7295 67.8638L17.4249 67.7467L17.1282 67.6373C16.7644 67.495 16.4119 67.3253 16.0738 67.1296L15.98 67.075L15.7848 66.95L15.5114 66.7626L15.3005 66.5985C15.2189 66.5377 15.1407 66.4725 15.0662 66.4033H15.0194L14.9412 66.3252C14.8282 66.2139 14.7213 66.0966 14.621 65.9737C14.5957 65.9523 14.5722 65.9288 14.5507 65.9034C14.5344 65.8761 14.5161 65.85 14.496 65.8253L14.3164 65.5598L14.2461 65.4504C14.2461 65.4504 14.2461 65.4114 14.2461 65.3879L14.1368 65.1536C14.1368 65.1068 14.0899 65.0599 14.0743 65.0209C14.0587 64.9818 14.0743 65.0209 14.0743 64.974C14.0743 64.9271 14.0274 64.8178 14.0118 64.7475L13.965 64.5913C13.965 64.5132 13.965 64.4273 13.965 64.3492C13.965 64.2711 13.965 64.2476 13.965 64.193V64.1305L13.9415 59.2568Z" fill="#EB8E4B"/>
<path d="M78.9191 17.5732V21.6815V17.6357C78.9146 17.6151 78.9146 17.5938 78.9191 17.5732Z" fill="#D2D2D2"/>
<path d="M78.9275 17.6382V21.7542C78.9236 21.8245 78.9236 21.8949 78.9275 21.9651V17.8491C78.9236 17.7788 78.9236 17.7084 78.9275 17.6382Z" fill="#D2D2D2"/>
<path d="M93.9842 18.0812V22.1894C94.0208 22.0251 94.0417 21.8578 94.0466 21.6895V17.5813C94.0386 17.7497 94.0151 17.917 93.9763 18.0812" fill="#D2D2D2"/>
<path d="M78.9324 17.8468L78.948 21.9628L80.3695 34.2485L80.3617 30.1403L78.9324 17.8468Z" fill="#EB8E4B"/>
<path d="M92.466 30.148L92.4816 34.2563L93.989 22.1893L93.9812 18.0811L92.466 30.148Z" fill="#EB8E4B"/>
<path d="M13.9665 55.3048C13.9665 55.3829 13.9665 55.461 13.9665 55.5391L14.0134 55.7344C14.0134 55.8125 14.0525 55.8828 14.0837 55.9609C14.1016 56.024 14.1279 56.0844 14.1618 56.1405C14.1902 56.2246 14.2268 56.3057 14.2712 56.3826C14.3022 56.439 14.3361 56.4937 14.3727 56.5466C14.4274 56.6325 14.482 56.7263 14.5445 56.8122L14.6695 56.9606C14.771 57.0777 14.8725 57.1949 14.9897 57.312L15.1147 57.4292C15.1892 57.4985 15.2674 57.5636 15.349 57.6245L15.5599 57.7885L15.8332 57.9681C15.9269 58.0306 16.0207 58.1009 16.1222 58.1556C16.4516 58.3429 16.7934 58.5073 17.1454 58.6476L17.4499 58.7648L18.1607 58.9835L18.9417 59.1631C19.2073 59.2178 19.4728 59.2724 19.7228 59.3115H20.0274C20.4569 59.3584 20.8943 59.3896 21.3317 59.3974H21.8706C22.0502 59.3974 22.2221 59.3974 22.3939 59.3974L43.0288 58.6632H43.3724L43.9895 58.7023H44.0363C44.2941 58.7023 44.5518 58.7648 44.8173 58.8038H44.8876C45.2372 58.8639 45.5819 58.95 45.9186 59.0616H45.9576C46.2241 59.1406 46.485 59.2371 46.7387 59.3505L54.4631 62.7949C55.4082 63.2088 56.3298 63.6462 57.2436 64.0836L58.1183 64.5132L59.9538 65.427L60.9535 65.9581L62.5858 66.8406L63.5934 67.4108L65.1555 68.309L65.7568 68.6605L66.2333 68.9572L67.0143 69.4493C67.4517 69.7227 67.8813 70.0038 68.3108 70.285C68.5686 70.449 68.8263 70.613 69.0919 70.7849L70.4352 71.7065L71.0601 72.1439C71.7005 72.5969 72.3332 73.0577 72.9502 73.5263L78.8314 78.1031C78.9485 78.1969 79.0578 78.2828 79.1594 78.3765L79.2843 78.5093L79.4327 78.6733L79.5343 78.7826C79.6047 78.8753 79.6699 78.9717 79.7295 79.0716C79.7379 79.0927 79.7513 79.1115 79.7686 79.1263C79.8342 79.2353 79.8891 79.3504 79.9326 79.47C79.9326 79.47 79.9326 79.5559 79.9717 79.5949V79.6965C79.9882 79.7343 80.0012 79.7735 80.0107 79.8136C80.0184 79.9306 80.0184 80.048 80.0107 80.1651V87.3584C80.0109 87.1816 79.9872 87.0056 79.9404 86.8351C79.9438 86.8013 79.9438 86.7673 79.9404 86.7336C79.8902 86.5617 79.8194 86.3964 79.7295 86.2415C79.728 86.2233 79.728 86.205 79.7295 86.1868C79.6399 86.0453 79.538 85.9121 79.4249 85.7885L79.2765 85.6245C79.1392 85.4775 78.9903 85.3417 78.8314 85.2184L72.9111 80.7352C72.2941 80.2666 71.6615 79.8058 71.021 79.3528L70.3884 78.9154L69.045 77.9938L68.264 77.4939C67.8344 77.2128 67.4048 76.9316 66.9596 76.6582L66.1786 76.1662L65.1008 75.5179C64.5931 75.2133 64.0776 74.9165 63.5387 74.6197L62.5234 74.0418L60.8988 73.167L59.8913 72.6359L58.0637 71.7221L57.1889 71.2925C56.2751 70.8552 55.3457 70.4178 54.4006 70.0038L46.684 66.5595C46.4299 66.445 46.1691 66.3458 45.903 66.2627C45.5636 66.1511 45.2164 66.065 44.8642 66.0049C44.5831 65.9469 44.2988 65.9052 44.0129 65.88H43.9738C43.6614 65.8487 43.3412 65.8331 43.0132 65.8331L22.3783 66.5673C22.2143 66.5673 22.0424 66.5673 21.855 66.5673H21.0193C20.7381 66.5673 20.4569 66.5673 20.1758 66.5126H20.0196H19.715L19.1995 66.4423L18.9027 66.3642L18.1216 66.1846C18.0045 66.1846 17.8795 66.1299 17.7624 66.0909L17.4187 65.9659L17.1141 65.8487C16.7596 65.7084 16.4152 65.544 16.0831 65.3567L15.9894 65.302L15.7942 65.177L15.5208 64.9896L15.3177 64.8256C15.2346 64.7668 15.1563 64.7015 15.0834 64.6303C15.068 64.6335 15.052 64.6335 15.0366 64.6303L14.9585 64.5522C14.8454 64.441 14.7385 64.3237 14.6382 64.2008C14.6129 64.1793 14.5894 64.1558 14.568 64.1305C14.5472 64.1063 14.5288 64.0802 14.5133 64.0524L14.3336 63.7868C14.3075 63.7522 14.284 63.7156 14.2633 63.6775C14.2633 63.6775 14.2633 63.6384 14.2633 63.6228C14.2222 63.5443 14.1857 63.4634 14.154 63.3807C14.154 63.3807 14.1071 63.2948 14.0915 63.2479C14.0759 63.201 14.0915 63.2479 14.0915 63.201C14.0915 63.1542 14.0447 63.0526 14.029 62.9745L13.9822 62.8183C13.9822 62.7402 13.9822 62.6621 13.9822 62.584C13.9822 62.5059 13.9822 62.4747 13.9822 62.4278V62.3575V55.2189C13.9764 55.2474 13.9712 55.276 13.9665 55.3048Z" fill="#EDEDED"/>
<path d="M93.443 78.103L99.3944 73.5808C102.174 71.5018 105.077 69.5926 108.087 67.8636C111.297 66.0168 114.603 64.343 117.991 62.8494L125.754 59.405C125.846 59.3587 125.94 59.317 126.035 59.2801L126.379 59.1707L126.676 59.0692H126.77C126.98 59.0052 127.194 58.9531 127.41 58.913H127.512H127.629L128.058 58.8349H128.41H128.55H128.636H129.206H129.488L150.162 59.4128C150.372 59.4128 150.576 59.4128 150.786 59.4128C151.278 59.4128 151.771 59.4128 152.239 59.3426H152.427C152.864 59.2957 153.294 59.2254 153.707 59.1395L153.895 59.0926C154.27 58.9989 154.629 58.8896 154.981 58.7646L155.168 58.7021C155.571 58.5531 155.96 58.3702 156.332 58.1554C157.824 57.2962 158.566 56.1637 158.566 55.0312V62.1699C158.566 63.2946 157.824 64.4271 156.332 65.294C155.982 65.4933 155.62 65.6681 155.246 65.8173H155.176L154.981 65.8798C154.778 65.9579 154.567 66.036 154.348 66.0985L153.895 66.2078L153.707 66.2547H153.567C153.317 66.3094 153.067 66.3484 152.786 66.3875L152.403 66.4265H152.224H152.02C151.755 66.4265 151.489 66.4265 151.239 66.4265H150.505H150.162L129.433 65.6924C129.113 65.6924 128.8 65.6924 128.488 65.6924H128.355C128.09 65.6924 127.824 65.7626 127.574 65.8095H127.465C127.201 65.8583 126.94 65.9235 126.684 66.0048L126.395 66.1063C126.179 66.1715 125.968 66.2497 125.762 66.3406L117.999 69.785C114.615 71.3394 111.317 73.0732 108.119 74.9788C105.099 76.718 102.186 78.6349 99.3944 80.7194L93.4273 85.2026C93.0642 85.434 92.7605 85.7476 92.5407 86.1179C92.3209 86.4883 92.1912 86.9051 92.1621 87.3348V80.1961C92.1983 79.7717 92.3329 79.3616 92.5552 78.9982C92.7776 78.6349 93.0815 78.3284 93.443 78.103Z" fill="#EDEDED"/>
<path d="M78.5018 95.0757C78.498 95.1485 78.498 95.2215 78.5018 95.2944C78.5018 95.3725 78.5018 95.4506 78.5018 95.5365C78.5018 95.6224 78.5018 95.6615 78.5487 95.7317C78.5956 95.802 78.5878 95.8801 78.6112 95.9504L78.6893 96.1379L78.7986 96.3722L78.9002 96.544L79.0876 96.8486C79.1267 96.8955 79.1657 96.9502 79.2126 96.997C79.311 97.1191 79.418 97.2339 79.5328 97.3407L79.6578 97.4656C79.7323 97.5349 79.8105 97.6001 79.8921 97.6609L80.1029 97.8249L80.3763 98.0046C80.47 98.067 80.5637 98.1373 80.6653 98.192C81.0036 98.3851 81.3561 98.5522 81.7197 98.6919L82.0165 98.809C82.243 98.8871 82.4851 98.9574 82.7194 99.0199C82.9537 99.0824 83.2193 99.1605 83.5004 99.2073C83.7816 99.2542 84.1096 99.3323 84.422 99.3714H84.6486C85.0703 99.3714 85.4921 99.4338 85.9216 99.4417H86.1169C86.5387 99.4417 86.9604 99.4417 87.3744 99.3714H87.5618C87.9758 99.3245 88.3819 99.2542 88.7802 99.1683L88.9989 99.1136C89.3529 99.0245 89.7022 98.9176 90.0455 98.7934L90.2329 98.7309C90.63 98.5804 91.0139 98.3975 91.3811 98.1842C92.8728 97.3251 93.6226 96.1926 93.6226 95.0601V99.9493C93.6226 101.082 92.8806 102.214 91.3889 103.073C91.0376 103.274 90.6722 103.449 90.2954 103.597H90.2329L90.0455 103.659L89.3816 103.886L88.9989 103.979L88.7802 104.026L88.5928 104.073C88.3429 104.128 88.0929 104.175 87.8118 104.206H87.5384H87.3509H87.0698H86.2887H85.5077C85.2265 104.206 84.9454 104.206 84.6642 104.151H84.5704H84.3518C84.1331 104.151 83.9144 104.104 83.7035 104.065C83.4926 104.026 83.5239 104.019 83.4301 103.995C83.1724 103.94 82.9225 103.878 82.6491 103.808C82.3758 103.737 82.3758 103.753 82.243 103.706L81.9384 103.589L81.6416 103.48C81.2794 103.337 80.9271 103.17 80.5872 102.98L80.4935 102.925L80.306 102.792L80.0249 102.613L79.814 102.449L79.5797 102.253C79.5797 102.253 79.5797 102.253 79.5328 102.214L79.4547 102.128C79.3419 102.02 79.235 101.905 79.1345 101.785L79.0642 101.707L79.0173 101.629C78.9504 101.545 78.8903 101.456 78.8377 101.363L78.7596 101.254V101.199C78.7167 101.124 78.6801 101.046 78.6502 100.965L78.5799 100.824C78.5799 100.824 78.5799 100.824 78.5799 100.777C78.5799 100.73 78.5331 100.629 78.5096 100.551C78.4862 100.473 78.5096 100.449 78.4706 100.402C78.4669 100.387 78.4669 100.371 78.4706 100.355C78.4706 100.277 78.4706 100.199 78.4706 100.121V99.9649V99.9728L78.5018 95.0757Z" fill="#EB8E4B"/>
<path d="M78.5107 92.537C78.5068 92.6124 78.5068 92.688 78.5107 92.7635C78.5107 92.8494 78.5107 92.9431 78.5107 93.0368C78.5226 93.1028 78.5382 93.168 78.5575 93.2321C78.5763 93.3141 78.5997 93.3949 78.6278 93.4742C78.6278 93.5367 78.6747 93.5992 78.7059 93.6695C78.7372 93.7398 78.7762 93.8257 78.8153 93.9038L78.9246 94.0834C78.9738 94.1702 79.0285 94.2537 79.0886 94.3334L79.2136 94.4974L79.526 94.8254L79.651 94.9504L79.8697 95.13L80.0883 95.3018C80.1712 95.3636 80.2572 95.4209 80.3461 95.4737L80.6429 95.6689C80.9831 95.8635 81.3383 96.0306 81.7051 96.1688L81.9941 96.2781C82.2268 96.3639 82.4641 96.4369 82.7048 96.4968C82.9547 96.5671 83.2047 96.6374 83.4858 96.6843C83.767 96.7311 84.095 96.8092 84.4075 96.8483H84.6261C85.0479 96.8483 85.4775 96.9108 85.8992 96.9186H86.1179C86.5397 96.9186 86.9614 96.9186 87.3754 96.8483H87.5628C87.9728 96.8021 88.3796 96.7317 88.7812 96.6374L88.9921 96.5905C89.3461 96.5014 89.6954 96.3946 90.0387 96.2703L90.2262 96.2078C90.6257 96.0573 91.0123 95.8745 91.3821 95.6611C92.827 94.8254 93.5768 93.732 93.6158 92.6385V96.7468C93.5768 97.848 92.8348 98.9336 91.3821 99.7772C91.0327 99.9764 90.67 100.151 90.2965 100.3H90.234L90.0465 100.363C89.8272 100.451 89.6029 100.527 89.3748 100.589L88.9999 100.683L88.7812 100.738L88.586 100.785C88.3439 100.839 88.0939 100.878 87.805 100.917H87.5316H87.3441H87.0708C86.8209 100.917 86.5709 100.917 86.3288 100.917C86.2507 100.917 86.1726 100.917 86.0945 100.917H85.5478C85.2666 100.917 84.9932 100.917 84.7121 100.863H84.6183H84.3918L83.7436 100.777C83.6498 100.777 83.5639 100.722 83.4702 100.707C83.2099 100.655 82.9495 100.592 82.6892 100.519L82.283 100.418L81.9785 100.3L81.6817 100.191C81.3194 100.048 80.9672 99.8812 80.6273 99.6912L80.5257 99.6288L80.3226 99.496L80.0727 99.3242L79.854 99.1523L79.6354 98.9727H79.5885L79.5104 98.8868C79.3982 98.7826 79.2937 98.6704 79.198 98.5509L79.1277 98.4806C79.1066 98.4512 79.0883 98.4198 79.073 98.3869C79.0113 98.3067 78.9539 98.2233 78.9012 98.137C78.8733 98.1036 78.8497 98.0669 78.8309 98.0276V97.9574L78.7215 97.723C78.7215 97.723 78.6825 97.6371 78.6669 97.5903V97.5278C78.6669 97.4497 78.62 97.3716 78.6044 97.2935C78.5888 97.2154 78.6044 97.1919 78.5575 97.1451C78.5607 97.127 78.5607 97.1085 78.5575 97.0904C78.5575 97.0045 78.5575 96.9108 78.5575 96.817C78.5575 96.7233 78.5575 96.7233 78.5575 96.6686V96.5984L78.5107 92.537Z" fill="#DADCE0"/>
<path d="M16.1766 51.9617C13.2165 53.6721 13.2009 56.4448 16.1766 58.1553C17.7725 59.0125 19.5589 59.4531 21.3705 59.4362C21.7844 59.4362 22.1124 59.4362 22.4326 59.4362L43.0676 58.702C44.3313 58.6906 45.5837 58.9405 46.7462 59.4362L54.4706 62.8805C61.0167 65.742 67.214 69.3425 72.9421 73.6119L78.8311 78.1028C79.1919 78.3373 79.4929 78.6529 79.7099 79.0245C79.9269 79.3961 80.0539 79.8134 80.0807 80.2429L78.5577 92.0911C78.5267 92.2217 78.511 92.3553 78.5108 92.4895C78.5108 93.7001 79.2059 94.8326 80.6899 95.7073C82.3473 96.5503 84.1805 96.9897 86.04 96.9897C87.8995 96.9897 89.7326 96.5503 91.3901 95.7073C92.835 94.8716 93.5847 93.7782 93.6238 92.6847C93.6353 92.4555 93.609 92.2259 93.5457 92.0052L92.1867 80.2351C92.2144 79.8059 92.3426 79.3894 92.5611 79.0189C92.7795 78.6485 93.082 78.3347 93.4442 78.1028L99.3956 73.5807C102.176 71.5017 105.078 69.5925 108.089 67.8635C111.298 66.0167 114.604 64.3429 117.992 62.8493L125.756 59.4049C126.918 58.9098 128.171 58.6624 129.434 58.6786L150.163 59.4127C150.374 59.4127 150.577 59.4127 150.788 59.4127C152.716 59.4736 154.627 59.0322 156.333 58.1318C159.293 56.4214 159.309 53.6487 156.333 51.9382C154.687 51.056 152.842 50.6122 150.975 50.6495C150.608 50.6495 150.272 50.6495 149.944 50.6964L129.434 51.6414C128.169 51.6544 126.914 51.4071 125.748 50.9151L118.039 47.4707C111.489 44.6096 105.288 41.0063 99.5597 36.7315L93.6394 32.2562C93.2804 32.0231 92.9814 31.7085 92.767 31.3379C92.5525 30.9674 92.4286 30.5515 92.4054 30.124L93.9206 18.057C93.9593 17.8929 93.9828 17.7256 93.9909 17.5572C93.9909 16.409 93.2645 15.2844 91.7806 14.433C90.1247 13.5895 88.2927 13.1498 86.4344 13.1498C84.5761 13.1498 82.7441 13.5895 81.0882 14.433C79.4715 15.3625 78.7451 16.6121 78.8701 17.8305L80.2994 30.124C80.2763 30.5521 80.1552 30.9691 79.9453 31.3429C79.7354 31.7167 79.4423 32.0372 79.0888 32.2796L73.1139 36.755C70.3341 38.8365 67.4312 40.7483 64.421 42.4799C61.21 44.3237 57.9042 45.9974 54.5175 47.4942L46.7696 50.9385C45.6006 51.4299 44.3434 51.6771 43.0754 51.6649L22.5889 50.7198C22.253 50.7198 21.9016 50.673 21.5579 50.673C19.6837 50.6379 17.8316 51.0814 16.1766 51.9617Z" fill="white"/>
<path d="M78.9169 12.715C78.9169 12.7852 78.9169 12.8555 78.9169 12.9336C78.9169 13.0117 78.9169 13.0898 78.9169 13.168C78.9279 13.2341 78.9436 13.2993 78.9637 13.3632C78.9799 13.4399 79.0008 13.5156 79.0262 13.5897L79.1043 13.7772L79.2137 14.0115L79.3152 14.1755C79.3705 14.267 79.4304 14.3557 79.4948 14.441L79.6198 14.5972C79.7182 14.7193 79.8252 14.8341 79.94 14.9409L80.065 15.0659L80.2993 15.2533C80.3661 15.3148 80.4365 15.3722 80.5102 15.4251L80.7836 15.6048L81.0725 15.7922C81.4125 15.9822 81.7647 16.1492 82.1269 16.2921L82.4237 16.4014C82.6565 16.4872 82.8937 16.5602 83.1344 16.6201C83.3792 16.6878 83.6395 16.7503 83.9155 16.8076C84.2201 16.87 84.5247 16.9325 84.8371 16.9716H85.0636C85.4854 17.0184 85.9071 17.0419 86.3367 17.0497H86.5398C86.9537 17.0497 87.3755 17.0497 87.7894 16.9794H87.9769C88.3868 16.9332 88.7937 16.8628 89.1953 16.7685L89.414 16.7217C89.7732 16.6279 90.1247 16.5186 90.4605 16.4014L90.648 16.3389C91.045 16.1884 91.429 16.0056 91.7961 15.7922C93.2879 14.9331 94.0377 13.8006 94.0377 12.6681V17.5574C94.0377 18.682 93.2957 19.8145 91.8039 20.6815C91.4511 20.8792 91.0858 21.054 90.7105 21.2048H90.648L90.4605 21.2673C90.2434 21.3544 90.0218 21.43 89.7967 21.4938C89.6717 21.5328 89.5389 21.5562 89.414 21.5875L89.1953 21.6422L89.0078 21.689C88.7579 21.7437 88.508 21.7827 88.2268 21.8218H87.9534H87.766H87.4848C87.2427 21.8218 86.9927 21.8609 86.7428 21.8687H86.3054C86.1961 21.8687 86.0789 21.8687 85.9696 21.8687C85.6884 21.8687 85.4073 21.8687 85.1261 21.814H85.0324H84.8137C84.595 21.814 84.3763 21.7671 84.1654 21.7281C83.9545 21.689 83.9858 21.6734 83.8921 21.6578C83.6343 21.6031 83.3844 21.5406 83.111 21.4703L82.7127 21.3688C82.6034 21.3688 82.5018 21.2907 82.4003 21.2516L82.1035 21.1423C81.7413 20.9994 81.389 20.8324 81.0491 20.6424L80.9554 20.5878L80.7679 20.455L80.4868 20.2754C80.4156 20.2223 80.3478 20.1649 80.2837 20.1035L80.0416 19.9161C80.0297 19.8992 80.0135 19.8857 79.9947 19.877C79.9729 19.8448 79.9466 19.8159 79.9166 19.7911C79.8073 19.674 79.6979 19.5646 79.5964 19.4475C79.5772 19.4179 79.5535 19.3915 79.5261 19.3694L79.4792 19.2913C79.4123 19.2077 79.3522 19.1189 79.2996 19.0257L79.2215 18.9164V18.8617C79.1772 18.7848 79.1405 18.7037 79.1121 18.6196L79.0418 18.4868C79.0418 18.4868 79.0418 18.4868 79.0418 18.4399C79.0418 18.3931 78.995 18.2915 78.9716 18.2134C78.9481 18.1353 78.9715 18.1119 78.9325 18.0572C78.9277 18.0446 78.9277 18.0307 78.9325 18.0182C78.9325 17.9401 78.9325 17.862 78.9325 17.7839V17.6277V17.5574L78.9169 12.715Z" fill="#EB8E4B"/>
<path d="M143.444 50.2047C143.441 50.2775 143.441 50.3505 143.444 50.4234C143.444 50.5015 143.444 50.5874 143.444 50.6655L143.491 50.8608C143.491 50.9311 143.53 51.0092 143.562 51.0795C143.584 51.1433 143.61 51.2059 143.64 51.2669C143.67 51.3479 143.706 51.4263 143.749 51.5012C143.778 51.5611 143.812 51.6186 143.851 51.673C143.905 51.759 143.96 51.8449 144.03 51.9386L144.147 52.087C144.249 52.2041 144.358 52.3213 144.468 52.4306L144.6 52.5556C144.672 52.6248 144.748 52.69 144.827 52.7509L145.046 52.9149L145.311 53.1023C145.413 53.1648 145.499 53.2273 145.6 53.282C145.939 53.4797 146.294 53.6469 146.662 53.7818L146.951 53.899C147.178 53.9771 147.42 54.0474 147.662 54.1099C147.904 54.1723 148.162 54.2504 148.443 54.3051C148.724 54.3598 149.052 54.4223 149.365 54.4613H149.583C150.005 54.5082 150.435 54.5238 150.856 54.5316H151.059C151.48 54.5318 151.899 54.5083 152.317 54.4613H152.504C152.918 54.4145 153.324 54.3442 153.723 54.2583L153.934 54.2036C154.296 54.1216 154.654 54.0172 155.004 53.8912L155.191 53.8287C155.591 53.6782 155.977 53.4953 156.347 53.282C157.839 52.4228 158.589 51.2903 158.581 50.1578V55.0471C158.581 56.1796 157.839 57.3121 156.339 58.1712C155.992 58.3736 155.629 58.5486 155.254 58.6945H155.191L155.004 58.757C154.785 58.8351 154.566 58.9132 154.332 58.9835L153.957 59.0772L153.738 59.1241L153.543 59.1788C153.301 59.2256 153.051 59.2725 152.762 59.3037H152.489H152.301H152.028L151.286 59.3428H150.505C150.224 59.3428 149.95 59.3428 149.669 59.2881H149.576H149.349L148.701 59.1944C148.611 59.1756 148.522 59.1521 148.435 59.1241C148.172 59.075 147.911 59.0125 147.654 58.9366C147.529 58.8976 147.389 58.882 147.256 58.8351C147.123 58.7883 147.053 58.757 146.951 58.718L146.654 58.6086C146.291 58.4689 145.938 58.3018 145.6 58.1088L145.506 58.0541L145.311 57.9291L145.038 57.7417L144.827 57.5777L144.593 57.3824H144.546C144.518 57.3556 144.492 57.3269 144.468 57.2965C144.353 57.1897 144.246 57.0749 144.147 56.9528C144.12 56.9306 144.096 56.9043 144.077 56.8747C144.057 56.85 144.039 56.8239 144.022 56.7966L143.843 56.5389C143.816 56.5016 143.793 56.4624 143.772 56.4217C143.772 56.4217 143.772 56.4217 143.772 56.367L143.663 56.1327C143.663 56.0859 143.616 56.039 143.601 55.9922C143.585 55.9453 143.601 55.9922 143.601 55.9453C143.575 55.8711 143.554 55.7955 143.538 55.7188L143.491 55.5704V55.5235C143.491 55.4454 143.491 55.3673 143.491 55.2892C143.491 55.2111 143.491 55.1877 143.491 55.133V55.0705L143.444 50.2047Z" fill="#EB8E4B"/>
<path d="M145.679 47.0885C142.719 48.7989 142.703 51.5716 145.679 53.2821C147.336 54.125 149.17 54.5644 151.029 54.5644C152.889 54.5644 154.722 54.125 156.379 53.2821C159.339 51.5716 159.363 48.7989 156.418 47.0885C154.756 46.2384 152.916 45.7952 151.049 45.7952C149.182 45.7952 147.341 46.2384 145.679 47.0885Z" fill="#EB8E4B"/>
<path d="M78.5018 87.7413C78.498 87.8142 78.498 87.8872 78.5018 87.96C78.4975 88.0407 78.4975 88.1215 78.5018 88.2021C78.5018 88.2646 78.5018 88.3271 78.5487 88.3974C78.5956 88.4677 78.5878 88.5458 78.6112 88.6239C78.6346 88.702 78.6658 88.741 78.6893 88.8035L78.7986 89.0378C78.7986 89.1003 78.8689 89.155 78.9002 89.2097L79.0798 89.4752C79.1188 89.5221 79.1579 89.5767 79.2048 89.6236C79.3031 89.7457 79.4102 89.8605 79.525 89.9673L79.6499 90.0922C79.7245 90.1615 79.8027 90.2267 79.8842 90.2875L80.0951 90.4515L80.3685 90.6389C80.4622 90.7014 80.556 90.7639 80.6575 90.8186C80.9956 91.0142 81.3481 91.1839 81.7119 91.3263L82.0087 91.4356L82.7116 91.6543C82.9615 91.7246 83.2115 91.7871 83.4926 91.8417C83.7738 91.8964 84.1018 91.9589 84.4143 91.9979H84.6407C85.0635 92.0449 85.4885 92.0684 85.9138 92.0682H86.1169C86.537 92.0684 86.9568 92.0449 87.3744 91.9979H87.5618C87.9732 91.9407 88.3793 91.8704 88.7802 91.7871L88.9989 91.7324C89.3539 91.6469 89.7034 91.5399 90.0455 91.4122L90.2329 91.3497C90.63 91.1991 91.0139 91.0163 91.3811 90.803C92.8728 89.9438 93.6226 88.8113 93.6226 87.6788V92.5681C93.6226 93.7006 92.8806 94.8331 91.3889 95.6922C91.0376 95.8931 90.6722 96.068 90.2954 96.2155H90.2329L90.0455 96.278C89.8268 96.3561 89.6081 96.442 89.3816 96.5045L88.9989 96.5982L88.7802 96.6529L88.5928 96.6998C88.3429 96.7466 88.0929 96.7935 87.8118 96.8247H87.5384H87.3509H87.0698L86.2887 96.8638H85.5077C85.2265 96.8638 84.9454 96.8638 84.6642 96.8013H84.5704H84.3518C84.1331 96.8013 83.9144 96.7466 83.7035 96.7076C83.4926 96.6685 83.5239 96.6607 83.4301 96.6373C83.1724 96.5904 82.9225 96.5201 82.6491 96.4498C82.3758 96.3795 82.3758 96.3952 82.243 96.3561L81.9384 96.239L81.6416 96.1218C81.278 95.9821 80.9255 95.815 80.5872 95.6219L80.4935 95.5673L80.306 95.4423L80.0249 95.2549L79.814 95.0908L79.5797 94.8956C79.5797 94.8956 79.5797 94.8956 79.5328 94.8956L79.4547 94.8097C79.3419 94.7009 79.235 94.5862 79.1345 94.466L79.0642 94.3879L79.0173 94.3176C78.947 94.2239 78.8923 94.138 78.8377 94.0521L78.7596 93.9349V93.8802C78.7167 93.8053 78.6801 93.7269 78.6502 93.6459L78.5799 93.5053C78.5799 93.5053 78.5799 93.5053 78.5799 93.4585C78.5519 93.3845 78.5284 93.3089 78.5096 93.232C78.5096 93.1851 78.5096 93.1304 78.4706 93.0836C78.4706 92.9977 78.4706 92.9196 78.4706 92.8415V92.6853V92.6228L78.5018 87.7413Z" fill="#EB8E4B"/>
<path d="M80.727 84.6252C77.7668 86.3357 77.7512 89.1084 80.727 90.8188C82.3813 91.6673 84.2139 92.1098 86.0731 92.1098C87.9324 92.1098 89.7649 91.6673 91.4193 90.8188C94.3872 89.1084 94.4107 86.3357 91.4662 84.6252C89.8035 83.7764 87.9633 83.3339 86.0966 83.3339C84.2298 83.3339 82.3896 83.7764 80.727 84.6252Z" fill="#EB8E4B"/>
<path d="M13.9519 50.2601C13.9519 50.3382 13.9519 50.4085 13.9519 50.4866C13.9519 50.5647 13.9519 50.6428 13.9519 50.7209C13.9639 50.7868 13.9795 50.852 13.9988 50.9162C13.9988 50.9865 13.9988 51.0646 14.0613 51.1427C14.1238 51.2208 14.116 51.2598 14.1394 51.3223C14.1628 51.3848 14.2097 51.4863 14.2565 51.5644C14.2846 51.6225 14.3187 51.6774 14.3581 51.7285C14.4127 51.8144 14.4674 51.9081 14.5299 51.994L14.6549 52.1424C14.7551 52.2653 14.862 52.3826 14.9751 52.4939L15.1001 52.611L15.3344 52.8063L15.5453 52.9781L15.8186 53.1577L16.1076 53.3452C16.4475 53.5351 16.7998 53.7021 17.162 53.8451L17.4588 53.9544C17.6853 54.0403 17.9274 54.1028 18.1695 54.1731C18.4116 54.2434 18.6694 54.3059 18.9506 54.3605C19.2317 54.4152 19.5598 54.4777 19.8722 54.5168H20.0909C20.5136 54.5637 20.9386 54.5872 21.3639 54.587H21.567C21.9872 54.587 22.4069 54.5635 22.8245 54.5168H23.0041C23.4155 54.4647 23.8216 54.3944 24.2225 54.3059L24.4412 54.2512C24.7962 54.1657 25.1457 54.0587 25.4878 53.931L25.6752 53.8685C26.0732 53.7173 26.4595 53.5372 26.8312 53.3296C28.3229 52.4626 29.0649 51.3301 29.0649 50.2054V55.0947C29.0649 56.2272 28.3229 57.3597 26.8312 58.2188C26.4824 58.4244 26.1166 58.5995 25.7377 58.7421H25.6831L25.4956 58.8046C25.2691 58.8827 25.0504 58.9686 24.8239 59.0311L24.4412 59.1248L24.2303 59.1795L24.0351 59.2264C23.7852 59.2732 23.5352 59.3201 23.2541 59.3513H22.9807H22.7932H22.5199C22.2699 59.3513 22.02 59.3513 21.7388 59.3513H20.9578C20.6766 59.3513 20.3955 59.3513 20.1221 59.2889H20.0284H19.8019C19.5832 59.2889 19.3645 59.2342 19.1536 59.1951L18.8803 59.1327C18.6225 59.078 18.3726 59.0077 18.0992 58.9374C17.8259 58.8671 17.8259 58.8827 17.7009 58.8437C17.5759 58.8046 17.4978 58.7578 17.3885 58.7265L17.0995 58.6094C16.7352 58.4712 16.3826 58.3041 16.0451 58.1095L15.9514 58.0548L15.7561 57.9299L15.4828 57.7424L15.2719 57.5784C15.1888 57.5196 15.1104 57.4543 15.0376 57.3831C15.0376 57.3831 15.0376 57.3831 14.9907 57.3441C14.9607 57.3193 14.9344 57.2904 14.9126 57.2582C14.7973 57.1495 14.6878 57.0348 14.5846 56.9145L14.5143 56.8364L14.4674 56.7661C14.3971 56.6724 14.3425 56.5865 14.2878 56.5006L14.2097 56.3912V56.3287C14.1706 56.2506 14.1316 56.1725 14.1003 56.0944C14.0763 56.0491 14.0554 56.0021 14.0378 55.9538C14.0378 55.9538 14.0378 55.9539 14.0378 55.907C14.006 55.7807 13.9695 55.6557 13.9285 55.5321C13.9285 55.454 13.9285 55.3681 13.9285 55.29C13.9243 55.238 13.9243 55.1857 13.9285 55.1338C13.9285 55.1338 13.9285 55.1338 13.9285 55.0713L13.9519 50.2601Z" fill="#EB8E4B"/>
<path d="M16.185 47.1432C13.2171 48.8536 13.2014 51.6263 16.185 53.3446C17.8424 54.1875 19.6756 54.6269 21.5351 54.6269C23.3945 54.6269 25.2277 54.1875 26.8851 53.3446C29.8453 51.6341 29.8687 48.8536 26.9242 47.1432C25.2619 46.2931 23.4216 45.8499 21.5546 45.8499C19.6876 45.8499 17.8472 46.2931 16.185 47.1432Z" fill="#EB8E4B"/>
<path d="M81.1488 9.59181C78.1809 11.3023 78.1653 14.0827 81.1488 15.7932C82.8047 16.6367 84.6366 17.0765 86.495 17.0765C88.3533 17.0765 90.1853 16.6367 91.8411 15.7932C94.8091 14.0827 94.8325 11.3023 91.888 9.59181C90.2252 8.74361 88.3851 8.30139 86.5184 8.30139C84.6518 8.30139 82.8116 8.74361 81.1488 9.59181Z" fill="#EB8E4B"/>
<path d="M66.5914 45.5658C66.5963 45.6786 66.6093 45.7908 66.6304 45.9017C66.6466 45.9912 66.6675 46.0799 66.6929 46.1672C66.6929 46.2766 66.7476 46.3781 66.7866 46.4875C66.8257 46.5968 66.8569 46.6593 66.896 46.7452C66.935 46.8311 66.9897 46.9639 67.0443 47.0732L67.1849 47.3075C67.263 47.4247 67.3411 47.5497 67.4349 47.6668L67.6067 47.8777C67.7445 48.0485 67.8932 48.2103 68.0519 48.3619C68.1066 48.4166 68.1534 48.4713 68.2159 48.526L68.5283 48.7837L68.8251 49.018L69.1922 49.2679C69.325 49.3539 69.4499 49.4398 69.5983 49.5257L84.1646 57.9765C84.3989 58.1092 84.6645 58.2498 84.9456 58.3904L85.0628 58.4529L85.9688 58.8668L86.1484 58.9371C86.4765 59.0777 86.8201 59.2183 87.1872 59.3589L87.3512 59.4214L88.5384 59.8431L89.6396 60.2024L90.4207 60.4445L91.1236 60.6476L91.9671 60.8741L92.6935 61.0615L93.5604 61.2646L94.2946 61.4364L95.1772 61.6083C95.4193 61.6551 95.6692 61.7098 95.9191 61.7488L96.5283 61.8504L97.4031 61.9832L98.0201 62.0534L98.8011 62.1394C99.1214 62.1394 99.4416 62.1862 99.754 62.2018C100.066 62.2175 100.184 62.2018 100.387 62.2018H100.824C101.129 62.2018 101.425 62.2018 101.707 62.2018H101.957C102.316 62.2018 102.659 62.1628 102.987 62.0847H103.128C103.451 62.0356 103.77 61.9599 104.081 61.8582L104.222 61.8113C104.493 61.723 104.754 61.6079 105.003 61.4677C105.433 61.2382 105.79 60.8924 106.033 60.4698C106.276 60.0473 106.395 59.5649 106.377 59.0777V63.1938C106.403 63.6835 106.289 64.1705 106.048 64.5978C105.808 65.0251 105.45 65.3752 105.018 65.6072C104.846 65.7013 104.669 65.7848 104.487 65.8571L104.229 65.9508L104.081 65.9977L103.956 66.0445L103.425 66.1695H103.183H103.034H102.855C102.636 66.2007 102.41 66.2242 102.175 66.2398H102.011H101.761H101.347H100.238H99.8009L98.848 66.1695H98.5981L98.0826 66.107L97.4656 66.0289L96.5908 65.8961L95.9738 65.8024H95.7942L95.2318 65.6931L94.3571 65.5134L93.6229 65.3494L92.7481 65.1463L92.0296 64.9589L91.1861 64.7324L90.4832 64.5215L89.7021 64.2794L89.4131 64.1935L88.6321 63.9279L87.4527 63.4984L87.2809 63.4359C86.9216 63.2953 86.578 63.1625 86.25 63.0219L86.0625 62.9438L85.1643 62.5377C85.1243 62.5138 85.0825 62.4929 85.0394 62.4752C84.7582 62.3346 84.4848 62.194 84.2583 62.0534L69.7077 53.6027L69.5827 53.5324L69.3094 53.3449L68.9423 53.1028C68.8329 53.0247 68.7392 52.9466 68.6455 52.8685C68.5362 52.7862 68.4319 52.6975 68.3331 52.603L68.2706 52.5561L68.1612 52.4389C68.0027 52.2899 67.854 52.1308 67.716 51.9625L67.6223 51.861C67.5981 51.8232 67.5721 51.7867 67.5442 51.7516L67.3021 51.3845L67.2006 51.2361L67.1615 51.1502C67.1031 51.044 67.051 50.9345 67.0053 50.8222C67.0053 50.7597 66.9428 50.6972 66.9194 50.6347C66.896 50.5723 66.9194 50.5879 66.9194 50.5645C66.8809 50.4626 66.8496 50.3582 66.8257 50.252C66.8257 50.1817 66.7788 50.1115 66.7632 50.0412C66.767 50.0231 66.767 50.0045 66.7632 49.9865C66.7632 49.8693 66.7632 49.76 66.7632 49.6506C66.767 49.5804 66.767 49.51 66.7632 49.4398V45.3003C66.5914 45.3628 66.5914 45.4643 66.5914 45.5658Z" fill="#EB8E4B"/>
<path d="M69.6762 40.9338C65.5836 43.2769 65.5523 47.1821 69.6215 49.5252L84.1643 57.976C88.2257 60.3191 100.917 63.8259 105.002 61.4672C109.087 59.1085 103.104 51.7433 99.043 49.3846L84.5002 40.9338C80.431 38.5673 73.761 38.5751 69.6762 40.9338Z" fill="#EB8E4B"/>
<path d="M83.909 86.8429C83.9361 86.9304 83.9784 87.0123 84.0339 87.0851V87.1319C84.098 87.213 84.1685 87.2888 84.2448 87.3584C84.304 87.4096 84.3666 87.4566 84.4323 87.499L84.5963 87.6162C84.7609 87.707 84.9335 87.7828 85.1118 87.8427L85.307 87.9052L85.5726 87.9676L85.8928 88.0223H85.9709C86.1166 88.0303 86.2626 88.0303 86.4083 88.0223H86.4786H86.9159H86.9784C87.1204 88.0078 87.2612 87.9843 87.4002 87.952H87.4783L87.8454 87.8427H87.9079C88.0449 87.7896 88.178 87.727 88.3062 87.6552C88.5208 87.5596 88.7062 87.4086 88.8434 87.2179C88.9806 87.0272 89.0647 86.8035 89.0872 86.5696V87.9989C89.065 88.2319 88.9809 88.4547 88.8435 88.6442C88.7062 88.8337 88.5207 88.983 88.3062 89.0767C88.1834 89.1485 88.0555 89.2111 87.9235 89.2641H87.8532C87.7769 89.2975 87.6987 89.3262 87.6189 89.3501H87.4939H87.4158H87.3455L87.0878 89.3969H86.9316H86.83H86.3067H86.0099H85.9006H85.6741H85.5804L85.3227 89.3266H85.1821H85.1196C84.9432 89.2621 84.771 89.1864 84.6041 89.1001L84.4713 89.0064L84.2917 88.8658C84.2331 88.8124 84.1783 88.755 84.1277 88.694V88.6471L84.0808 88.5768C84.0511 88.5306 84.0275 88.4807 84.0105 88.4284C84.007 88.3973 84.007 88.3659 84.0105 88.3347C84.0073 88.2853 84.0073 88.2357 84.0105 88.1863V86.7336C83.9732 86.7667 83.9393 86.8033 83.909 86.8429Z" fill="#D2D2D2"/>
<path d="M97.6678 55.6646C96.262 56.4456 96.2463 57.7968 97.6678 58.6169C98.4595 59.0177 99.3344 59.2265 100.222 59.2265C101.109 59.2265 101.984 59.0177 102.776 58.6169C104.182 57.8358 104.197 56.4768 102.776 55.6568C101.984 55.2541 101.109 55.0449 100.221 55.0463C99.3329 55.0476 98.458 55.2595 97.6678 55.6646Z" fill="white"/>
<path d="M84.633 10.3487C83.6021 10.9501 83.6021 11.9107 84.633 12.5043C85.2075 12.7971 85.8432 12.9498 86.488 12.9498C87.1328 12.9498 87.7685 12.7971 88.343 12.5043C89.3739 11.9107 89.3817 10.9422 88.343 10.3565C87.7693 10.0618 87.1339 9.90749 86.4889 9.90614C85.844 9.90478 85.208 10.0564 84.633 10.3487Z" fill="white"/>
<path d="M84.633 85.492C83.6021 86.0856 83.6021 87.0541 84.633 87.6477C85.2075 87.9405 85.8432 88.0931 86.488 88.0931C87.1328 88.0931 87.7685 87.9405 88.343 87.6477C89.3739 87.0541 89.3817 86.0856 88.343 85.492C87.7681 85.2004 87.1326 85.0485 86.488 85.0485C85.8434 85.0485 85.2079 85.2004 84.633 85.492Z" fill="white"/>
<path d="M20.1357 48.2132C19.1047 48.8146 19.0969 49.7753 20.1357 50.3688C20.7115 50.6617 21.3485 50.8144 21.9945 50.8144C22.6406 50.8144 23.2775 50.6617 23.8534 50.3688C24.8844 49.7753 24.8844 48.8068 23.8534 48.221C23.2791 47.9238 22.6421 47.7681 21.9955 47.7667C21.3488 47.7654 20.7112 47.9184 20.1357 48.2132Z" fill="white"/>
<path d="M149.169 48.2132C148.138 48.8146 148.131 49.7753 149.169 50.3688C149.745 50.6617 150.382 50.8144 151.028 50.8144C151.674 50.8144 152.311 50.6617 152.887 50.3688C153.918 49.7753 153.918 48.8068 152.887 48.221C152.313 47.9238 151.676 47.7681 151.029 47.7667C150.383 47.7654 149.745 47.9184 149.169 48.2132Z" fill="white"/>
<path d="M77.6676 41.1139L98.9429 53.4777L100.208 52.7435L78.9328 40.3798L77.6676 41.1139Z" fill="#D2D2D2"/>
<path d="M88.4396 38.3958L109.715 50.7595L110.988 50.0254L89.7127 37.6616L88.4396 38.3958Z" fill="#D2D2D2"/>
<path d="M59.7975 59.7496L81.0729 72.1055L82.3382 71.3791L61.0628 59.0154L59.7975 59.7496Z" fill="#D2D2D2"/>
<path d="M71.615 47.1585L92.8904 59.5222L94.1635 58.7959L72.8881 46.4321L71.615 47.1585Z" fill="#D2D2D2"/>
<path d="M120.234 63.412C119.602 63.7713 119.102 65.0287 119.11 66.2159C119.117 67.4031 119.617 68.0748 120.242 67.7077C120.867 67.3406 121.375 66.0909 121.375 64.9116C121.375 63.7322 120.859 63.0527 120.234 63.412Z" fill="#D2D2D2"/>
<path d="M116.522 65.1383C115.889 65.4976 115.389 66.755 115.397 67.9422C115.405 69.1294 115.905 69.8011 116.537 69.434C117.17 69.0669 117.662 67.8172 117.662 66.6379C117.662 65.4585 117.146 64.779 116.522 65.1383Z" fill="#D2D2D2"/>
<path d="M113.195 66.7862C112.562 67.1532 112.07 68.4029 112.07 69.5979C112.07 70.7929 112.578 71.4567 113.211 71.0896C113.843 70.7226 114.343 69.4729 114.335 68.2857C114.328 67.0986 113.82 66.4269 113.195 66.7862Z" fill="#D2D2D2"/>
<path d="M105.246 71.2849C104.613 71.652 104.113 72.9017 104.121 74.0967C104.129 75.2916 104.629 75.9477 105.262 75.5884C105.894 75.2292 106.394 73.9717 106.386 72.7845C106.379 71.5974 105.871 70.9257 105.246 71.2849Z" fill="#D2D2D2"/>
<g opacity="0.4">
<path opacity="0.4" d="M86.4838 0C74.3387 0 64.4977 5.68592 64.4977 12.6918H86.4838V0Z" fill="#DADCE0"/>
<path opacity="0.4" d="M86.4849 25.3842C98.6221 25.3842 108.463 19.7061 108.463 12.6924H86.4849V25.3842Z" fill="#DADCE0"/>
<path opacity="0.4" d="M86.4838 75.1431C74.3387 75.1431 64.4977 80.8212 64.4977 87.8349H86.4838V75.1431Z" fill="#DADCE0"/>
<path opacity="0.4" d="M86.4849 100.526C98.6221 100.526 108.463 94.8403 108.463 87.8345H86.4849V100.526Z" fill="#DADCE0"/>
<path opacity="0.4" d="M21.9783 37.8645C9.84101 37.8645 -1.52588e-05 43.5504 -1.52588e-05 50.5563H21.9783V37.8645Z" fill="#DADCE0"/>
<path opacity="0.4" d="M21.9783 63.2643C34.1233 63.2643 43.9409 57.5706 43.9409 50.5569H21.9548L21.9783 63.2643Z" fill="#DADCE0"/>
<path opacity="0.4" d="M151.012 37.8645C138.874 37.8645 129.033 43.5504 129.033 50.5563H151.012V37.8645Z" fill="#DADCE0"/>
<path opacity="0.4" d="M151.014 63.2636C163.159 63.2636 173 57.5855 173 50.5718H151.014V63.2636Z" fill="#DADCE0"/>
</g>
</svg>
