<svg width="136" height="110" viewBox="0 0 136 110" fill="none" xmlns="http://www.w3.org/2000/svg">
<path d="M133.5 33.1802C148.168 67.0495 88 113.681 69.5001 109.68C51.0002 105.68 47.0001 90.6807 18.0002 95.6806C-10.9997 100.68 0.0897064 38.0061 22.0002 15.6805C39.8169 -2.47379 79.0002 -0.817895 85.5001 1.18113C92 3.18016 125.61 14.963 133.5 33.1802Z" fill="#F38E17"/>
<path d="M23.184 62.1802H34.344V59.2042H26.736V54.4522H32.976V51.4762H26.736V47.3722H34.08V44.3962H23.184V62.1802ZM38.1896 62.1802H41.5496V55.0522C41.5496 53.0122 41.2856 50.7802 41.1176 48.8602H41.2376L43.0376 52.6762L48.1736 62.1802H51.7736V44.3962H48.4136V51.5002C48.4136 53.5162 48.7016 55.8682 48.8696 57.7162H48.7496L46.9736 53.8762L41.8136 44.3962H38.1896V62.1802ZM60.2702 62.5162C64.0862 62.5162 65.7662 59.7802 65.7662 56.4442V44.3962H62.2142V56.1562C62.2142 58.6042 61.3982 59.4442 59.8382 59.4442C58.8302 59.4442 57.8942 58.8922 57.1982 57.5962L54.7742 59.3962C55.9502 61.4602 57.6782 62.5162 60.2702 62.5162ZM77.3428 62.5162C82.0468 62.5162 85.2868 58.9882 85.2868 53.2282C85.2868 47.4682 82.0468 44.0842 77.3428 44.0842C72.6388 44.0842 69.3988 47.4442 69.3988 53.2282C69.3988 58.9882 72.6388 62.5162 77.3428 62.5162ZM77.3428 59.4442C74.7028 59.4442 73.0228 57.0202 73.0228 53.2282C73.0228 49.4122 74.7028 47.1322 77.3428 47.1322C79.9828 47.1322 81.6628 49.4122 81.6628 53.2282C81.6628 57.0202 79.9828 59.4442 77.3428 59.4442ZM91.4331 62.1802H94.9851V55.6762L100.337 44.3962H96.6411L94.8651 48.7402C94.3611 50.0602 93.8331 51.3082 93.2811 52.6762H93.1851C92.6331 51.3082 92.1531 50.0602 91.6491 48.7402L89.8731 44.3962H86.1051L91.4331 55.6762V62.1802ZM109.4 56.1322H111.704L112.208 47.2762L112.328 43.9402H108.776L108.896 47.2762L109.4 56.1322ZM110.552 62.5162C111.8 62.5162 112.76 61.5082 112.76 60.2122C112.76 58.8922 111.8 57.9082 110.552 57.9082C109.304 57.9082 108.368 58.8922 108.368 60.2122C108.368 61.5082 109.304 62.5162 110.552 62.5162Z" fill="white"/>
</svg>
