<svg width="258" height="258" viewBox="0 0 258 258" fill="none" xmlns="http://www.w3.org/2000/svg">
<mask id="path-1-inside-1_1917_5249" fill="white">
<path fill-rule="evenodd" clip-rule="evenodd" d="M191.239 135.845C196.901 125.595 200.124 113.809 200.124 101.271C200.124 61.722 168.063 29.6615 128.515 29.6615C88.966 29.6615 56.9055 61.722 56.9055 101.271C56.9055 113.125 59.7858 124.306 64.8847 134.153C65.1286 135.006 65.4396 135.857 65.8213 136.7L112.112 238.935C118.506 253.056 138.57 253.03 144.926 238.892L190.896 136.657C191.018 136.387 191.132 136.117 191.239 135.845Z"/>
</mask>
<path fill-rule="evenodd" clip-rule="evenodd" d="M191.239 135.845C196.901 125.595 200.124 113.809 200.124 101.271C200.124 61.722 168.063 29.6615 128.515 29.6615C88.966 29.6615 56.9055 61.722 56.9055 101.271C56.9055 113.125 59.7858 124.306 64.8847 134.153C65.1286 135.006 65.4396 135.857 65.8213 136.7L112.112 238.935C118.506 253.056 138.57 253.03 144.926 238.892L190.896 136.657C191.018 136.387 191.132 136.117 191.239 135.845Z" fill="#FAAE2B"/>
<path d="M200.124 101.271L208.124 101.271L208.124 101.271L200.124 101.271ZM191.239 135.845L184.236 131.977L183.986 132.429L183.797 132.91L191.239 135.845ZM56.9055 101.271L64.9055 101.271L56.9055 101.271ZM64.8847 134.153L72.5768 131.954L72.3568 131.185L71.9888 130.474L64.8847 134.153ZM65.8213 136.7L73.109 133.4L73.109 133.4L65.8213 136.7ZM112.112 238.935L104.825 242.235L112.112 238.935ZM144.926 238.892L152.223 242.173L144.926 238.892ZM190.896 136.657L183.6 133.376L183.6 133.376L190.896 136.657ZM192.124 101.271C192.124 112.422 189.261 122.881 184.236 131.977L198.241 139.714C204.541 128.309 208.124 115.196 208.124 101.271L192.124 101.271ZM128.515 37.6615C163.645 37.6615 192.124 66.1403 192.124 101.271L208.124 101.271C208.124 57.3037 172.481 21.6615 128.515 21.6615L128.515 37.6615ZM64.9055 101.271C64.9055 66.1403 93.3842 37.6615 128.515 37.6615L128.515 21.6615C84.5477 21.6615 48.9055 57.3037 48.9055 101.271L64.9055 101.271ZM71.9888 130.474C67.4647 121.737 64.9055 111.814 64.9055 101.271H48.9055C48.9055 114.435 52.1069 126.874 57.7806 137.831L71.9888 130.474ZM73.109 133.4C72.8884 132.913 72.7127 132.43 72.5768 131.954L57.1926 136.351C57.5445 137.582 57.9909 138.801 58.5335 140L73.109 133.4ZM119.4 235.635L73.109 133.4L58.5335 140L104.825 242.235L119.4 235.635ZM137.63 235.611C134.099 243.465 122.952 243.48 119.4 235.635L104.825 242.235C114.06 262.631 143.041 262.594 152.223 242.173L137.63 235.611ZM183.6 133.376L137.63 235.611L152.223 242.173L198.193 139.938L183.6 133.376ZM183.797 132.91C183.736 133.065 183.67 133.22 183.6 133.376L198.193 139.938C198.365 139.554 198.528 139.169 198.681 138.781L183.797 132.91Z" fill="white" mask="url(#path-1-inside-1_1917_5249)"/>
<circle cx="129.969" cy="101.935" r="33.66" fill="white"/>
</svg>
