<svg width="518" height="434" viewBox="0 0 518 434" fill="none" xmlns="http://www.w3.org/2000/svg">
<path d="M380.517 28.8367C443.318 98.3731 569.233 144.553 495.535 272.392C432.197 382.258 289.814 444.089 216.385 432.648C147.786 432.648 13.0158 381.783 1.42287 319.29C-10.17 256.797 50.0222 -44.1091 147.481 5.49474C231.19 48.1003 317.716 -40.6996 380.517 28.8367Z" fill="#FFEACE"/>
<path d="M175.817 199.985L157.687 207.831C157.263 208.043 156.945 208.361 156.521 208.573C156.415 208.679 156.309 208.679 156.309 208.785C155.991 209.103 155.567 209.316 155.249 209.634L155.143 209.74C154.825 210.058 154.507 210.376 154.294 210.694C154.188 210.8 154.188 210.906 154.082 210.906C153.764 211.224 153.552 211.648 153.234 212.072C153.234 212.072 153.234 212.072 153.234 212.178C153.234 212.178 153.234 212.284 153.128 212.284C152.81 212.814 152.492 213.238 152.28 213.875C152.068 214.299 151.856 214.723 151.75 215.147C151.75 215.147 151.75 215.253 151.644 215.253C151.644 215.359 151.538 215.465 151.538 215.571C151.432 215.783 151.326 216.101 151.326 216.419C151.326 216.525 151.22 216.631 151.22 216.631C151.22 216.737 151.22 216.843 151.114 216.949C151.008 217.161 151.008 217.373 150.902 217.585C150.902 217.691 150.796 217.797 150.796 217.903C150.796 218.01 150.796 218.116 150.69 218.222C150.69 218.434 150.584 218.646 150.584 218.858C150.584 218.964 150.584 219.07 150.478 219.176C150.478 219.282 150.478 219.388 150.478 219.494C150.478 219.706 150.372 219.812 150.372 220.024C150.372 220.13 150.372 220.236 150.372 220.342C150.372 220.448 150.372 220.66 150.372 220.766C150.372 220.978 150.372 221.084 150.372 221.296C150.372 221.402 150.372 221.402 150.372 221.508C150.372 221.72 150.372 221.932 150.372 222.144C150.372 222.25 150.372 222.463 150.372 222.569V222.675C150.372 223.099 150.372 223.523 150.372 223.841V223.947V237.836L196.704 217.903L175.817 199.985Z" fill="#999BA3"/>
<path d="M177.196 202.85C177.196 202.85 159.49 213.134 159.702 213.134C159.808 213.134 169.562 211.968 169.774 212.074C169.986 212.074 170.198 212.18 170.41 212.286C170.516 212.286 170.728 212.392 170.834 212.392C171.046 212.498 171.364 212.498 171.576 212.604C171.682 212.604 171.788 212.71 171.894 212.71C172.637 212.922 173.379 213.24 174.121 213.558C174.227 213.558 174.333 213.664 174.439 213.77C174.651 213.876 174.969 213.982 175.181 214.194C175.287 214.3 175.393 214.3 175.605 214.406C175.923 214.618 176.347 214.83 176.666 214.936C177.09 215.148 177.408 215.361 177.832 215.679C177.832 215.679 177.832 215.679 177.938 215.679C178.362 215.891 178.68 216.209 179.104 216.421C179.21 216.527 179.316 216.633 179.528 216.739C179.74 216.951 180.058 217.057 180.27 217.269C180.376 217.375 180.588 217.481 180.694 217.587C180.906 217.799 181.119 217.905 181.331 218.117C181.543 218.223 181.649 218.329 181.861 218.541C182.073 218.753 182.285 218.859 182.497 219.071C182.709 219.177 182.815 219.389 183.027 219.495C183.239 219.708 183.451 219.814 183.663 220.026C183.875 220.132 183.981 220.344 184.193 220.45C184.405 220.662 184.617 220.874 184.829 221.086C184.935 221.192 185.147 221.404 185.253 221.51C185.466 221.722 185.678 221.934 185.89 222.146C185.996 222.252 186.208 222.464 186.314 222.57C186.526 222.782 186.844 223.1 187.056 223.312C187.162 223.418 187.268 223.524 187.374 223.63C187.692 224.055 188.01 224.373 188.328 224.797C188.434 224.903 188.434 224.903 188.434 225.009C188.752 225.327 188.964 225.645 189.282 225.963C189.601 226.387 189.919 226.811 190.237 227.235C190.661 227.871 191.191 228.508 191.615 229.144C191.721 229.25 191.827 229.356 191.827 229.462C192.357 230.31 192.887 231.158 193.417 232.006C193.523 232.112 193.523 232.218 193.629 232.324C193.948 232.961 194.372 233.597 194.69 234.127C194.796 234.339 194.902 234.551 195.008 234.763C195.114 234.975 195.22 235.187 195.326 235.505C195.538 235.823 195.644 236.247 195.856 236.565C195.856 236.671 195.962 236.777 195.962 236.883C196.174 237.308 196.386 237.732 196.598 238.262C196.704 238.368 196.704 238.474 196.704 238.58C196.81 238.898 197.022 239.216 197.128 239.534C197.234 239.64 197.234 239.852 197.34 239.958C197.446 240.276 197.552 240.594 197.764 240.912C197.764 241.018 197.87 241.23 197.87 241.337C197.976 241.761 198.188 242.185 198.295 242.609V242.715C198.401 243.139 198.613 243.669 198.719 244.093C198.719 244.199 198.825 244.411 198.825 244.517C198.931 244.835 199.037 245.153 199.143 245.471C199.143 245.684 199.249 245.79 199.249 246.002C199.355 246.32 199.355 246.638 199.461 246.85C199.461 247.062 199.567 247.168 199.567 247.38C199.673 247.698 199.673 248.016 199.779 248.334C199.779 248.546 199.885 248.652 199.885 248.864C199.991 249.288 199.991 249.712 200.097 250.031C200.097 250.137 200.097 250.137 200.097 250.243C200.203 250.667 200.203 251.197 200.309 251.621C200.309 251.727 200.309 251.833 200.309 252.045C200.309 252.363 200.415 252.681 200.415 252.999C200.415 253.105 200.415 253.317 200.415 253.423C200.415 253.741 200.415 254.059 200.521 254.378C200.521 254.484 200.521 254.696 200.521 254.802C200.521 255.226 200.521 255.65 200.521 256.074C200.521 256.498 200.521 256.922 200.521 257.346C200.521 257.452 200.521 257.558 200.521 257.664C200.521 257.982 200.521 258.3 200.415 258.512C200.415 258.725 200.415 258.831 200.415 259.043C200.415 259.255 200.309 259.573 200.309 259.785C200.309 259.997 200.309 260.103 200.203 260.315C200.203 260.527 200.097 260.739 200.097 260.951C200.097 261.163 199.991 261.375 199.991 261.481C199.991 261.693 199.885 261.905 199.885 262.011C199.779 262.223 199.779 262.435 199.673 262.647C199.673 262.859 199.567 262.966 199.567 263.178C199.461 263.39 199.355 263.708 199.355 263.92C199.355 264.026 199.249 264.238 199.249 264.344C199.143 264.768 198.931 265.192 198.719 265.51C198.719 265.51 198.719 265.616 198.613 265.616C198.401 266.146 198.082 266.676 197.764 267.1C197.764 267.1 197.764 267.206 197.658 267.206C197.446 267.631 197.128 267.949 196.916 268.267C196.81 268.373 196.81 268.479 196.704 268.479C196.386 268.797 196.174 269.115 195.856 269.433C195.856 269.433 195.856 269.433 195.75 269.539C195.432 269.857 195.114 270.069 194.796 270.387C194.69 270.493 194.584 270.493 194.584 270.599C194.266 270.811 193.841 271.129 193.523 271.341L206.67 263.708C206.67 263.708 213.774 239.746 205.08 221.616C201.051 213.452 177.196 202.85 177.196 202.85Z" fill="#2B303F"/>
<path d="M176.666 214.829C189.919 222.463 200.627 241.017 200.521 256.178C200.521 271.34 189.707 277.489 176.453 269.856C163.2 262.222 152.492 243.668 152.598 228.506C152.704 213.345 163.412 207.195 176.666 214.829Z" fill="#333A47"/>
<path d="M176.666 226.704C177.514 227.234 178.256 230.203 178.256 233.49C178.256 236.67 177.514 238.897 176.666 238.367C175.817 237.837 175.075 234.868 175.075 231.687C174.969 228.4 175.711 226.174 176.666 226.704Z" fill="#333A47"/>
<path d="M173.591 243.351C173.803 243.457 174.015 243.669 174.121 243.881C174.758 244.941 173.591 246.744 171.683 247.91C170.093 248.864 168.396 249.076 167.442 248.546C167.23 248.44 167.018 248.228 166.912 248.016C166.276 246.956 167.442 245.154 169.35 243.987C170.941 243.033 172.637 242.821 173.591 243.351Z" fill="#333A47"/>
<path d="M167.972 235.61C170.729 237.2 173.061 239.321 173.061 240.381C173.061 241.441 170.835 240.911 167.972 239.321C165.215 237.73 162.883 235.61 162.883 234.55C162.989 233.489 165.215 234.02 167.972 235.61Z" fill="#333A47"/>
<path d="M176.56 246.424C177.408 246.954 178.15 249.923 178.15 253.104C178.15 256.285 177.408 258.511 176.56 257.981C175.712 257.451 174.97 254.482 174.97 251.301C174.97 248.121 175.712 245.894 176.56 246.424Z" fill="#333A47"/>
<path d="M179.528 246.743C180.482 247.273 182.073 249.393 183.769 252.15C185.784 255.543 186.844 258.617 186.208 258.935C186.102 259.041 185.89 258.935 185.678 258.829C184.723 258.299 183.133 256.179 181.437 253.422C179.422 250.029 178.362 246.955 178.998 246.636C179.21 246.636 179.316 246.636 179.528 246.743Z" fill="#333A47"/>
<path d="M185.148 245.471C187.904 247.061 190.237 249.182 190.237 250.242C190.237 251.302 188.01 250.772 185.148 249.182C182.391 247.592 180.058 245.471 180.058 244.411C180.058 243.457 182.391 243.881 185.148 245.471Z" fill="#333A47"/>
<path d="M167.441 225.856C168.396 226.386 169.986 228.506 171.682 231.263C173.697 234.656 174.757 237.73 174.121 238.048C174.015 238.154 173.803 238.048 173.591 237.942C172.636 237.412 170.94 235.292 169.35 232.535C167.335 229.142 166.275 226.068 166.911 225.749C167.123 225.643 167.229 225.749 167.441 225.856Z" fill="#333A47"/>
<path d="M185.784 236.352C185.996 236.458 186.208 236.67 186.314 236.882C186.95 237.942 185.784 239.745 183.875 240.911C182.285 241.865 180.589 242.077 179.634 241.547C179.422 241.441 179.21 241.229 179.104 241.017C178.468 239.957 179.634 238.154 181.543 236.988C183.133 236.034 184.829 235.822 185.784 236.352Z" fill="#333A47"/>
<path d="M178.892 225.538C178.15 225.008 177.408 224.478 176.666 224.054C167.866 218.965 160.762 222.994 160.656 233.172V233.384C160.762 243.456 167.76 255.649 176.56 260.738C185.36 265.828 192.569 261.799 192.569 251.62C192.569 242.396 186.632 231.264 178.892 225.538ZM162.989 234.55C162.989 233.49 165.215 234.02 168.078 235.611C170.834 237.201 173.167 239.322 173.167 240.382C173.167 241.442 170.94 240.912 168.078 239.322C165.215 237.625 162.989 235.505 162.989 234.55ZM171.577 247.803C169.986 248.758 168.29 248.97 167.336 248.44C167.124 248.334 166.911 248.122 166.805 247.909C166.169 246.849 167.23 245.047 169.244 243.881C170.834 242.926 172.531 242.714 173.485 243.244C173.697 243.35 173.909 243.562 174.015 243.775C174.757 244.941 173.591 246.637 171.577 247.803ZM174.121 238.049C174.015 238.155 173.803 238.049 173.591 237.943C172.637 237.413 171.046 235.293 169.456 232.536C168.926 231.688 168.502 230.84 168.184 230.097C167.017 227.765 166.593 225.962 167.017 225.644C167.124 225.538 167.336 225.644 167.548 225.75C168.184 226.174 169.244 227.341 170.41 229.143C170.834 229.779 171.258 230.521 171.683 231.264C173.591 234.656 174.757 237.731 174.121 238.049ZM176.56 258.088C175.711 257.558 174.969 254.589 174.969 251.302C174.969 248.122 175.711 245.895 176.56 246.425C177.408 246.955 178.15 249.924 178.15 253.211C178.15 256.391 177.408 258.618 176.56 258.088ZM176.56 238.367C175.711 237.837 174.969 234.868 174.969 231.582C174.969 230.097 175.075 228.931 175.393 227.977C175.499 227.765 175.499 227.553 175.605 227.341C175.605 227.235 175.711 227.129 175.711 227.129C175.818 227.023 175.818 226.811 175.924 226.811C176.03 226.705 176.03 226.705 176.136 226.599C176.242 226.599 176.348 226.599 176.348 226.599C176.348 226.599 176.454 226.599 176.454 226.705C177.302 227.235 178.044 230.203 178.044 233.49C178.15 236.671 177.514 238.897 176.56 238.367ZM181.543 236.989C183.133 236.035 184.83 235.823 185.784 236.353C185.996 236.459 186.208 236.671 186.314 236.883C186.95 237.943 185.89 239.746 183.875 240.912C182.285 241.866 180.589 241.972 179.634 241.548C179.422 241.442 179.21 241.23 179.104 241.018C178.468 239.852 179.528 238.049 181.543 236.989ZM186.208 259.042C186.102 259.148 185.89 259.042 185.678 258.936C184.724 258.406 183.133 256.285 181.543 253.529C179.528 250.136 178.468 247.061 179.104 246.743C179.21 246.637 179.422 246.743 179.634 246.849C180.589 247.379 182.179 249.5 183.875 252.256C185.784 255.649 186.844 258.724 186.208 259.042ZM185.148 249.182C182.391 247.591 180.058 245.471 180.058 244.411C180.058 243.35 182.285 243.881 185.148 245.471C187.904 247.061 190.237 249.182 190.237 250.242C190.237 251.302 187.904 250.772 185.148 249.182Z" fill="#CFD1DC"/>
<path d="M321.707 283.427L302.835 291.591C302.411 291.803 302.093 292.121 301.669 292.334C301.563 292.44 301.457 292.44 301.457 292.546C301.139 292.864 300.715 293.076 300.396 293.394L300.29 293.5C299.972 293.818 299.654 294.136 299.442 294.454C299.336 294.56 299.336 294.666 299.23 294.666C298.912 294.984 298.7 295.408 298.382 295.832C298.382 295.832 298.382 295.832 298.382 295.938C298.382 295.938 298.382 296.044 298.276 296.044C297.958 296.575 297.64 296.999 297.428 297.635C297.216 298.059 297.004 298.483 296.898 298.907C296.898 298.907 296.898 299.013 296.792 299.013C296.792 299.119 296.686 299.225 296.686 299.331C296.58 299.543 296.474 299.861 296.474 300.179C296.474 300.285 296.368 300.391 296.368 300.391C296.368 300.497 296.368 300.603 296.262 300.709C296.156 300.922 296.156 301.134 296.049 301.346C296.049 301.452 295.943 301.558 295.943 301.664C295.943 301.77 295.943 301.876 295.837 301.982C295.837 302.194 295.731 302.406 295.731 302.618C295.731 302.724 295.731 302.83 295.625 302.936C295.625 303.042 295.625 303.148 295.625 303.254C295.625 303.466 295.519 303.572 295.519 303.784C295.519 303.89 295.519 303.996 295.519 304.102C295.519 304.208 295.519 304.42 295.519 304.526C295.519 304.738 295.519 304.844 295.413 305.056C295.413 305.163 295.413 305.162 295.413 305.269C295.413 305.481 295.413 305.693 295.413 305.905C295.413 306.011 295.413 306.223 295.413 306.329V306.435C295.413 306.859 295.413 307.283 295.413 307.601C295.413 307.601 295.413 307.601 295.413 307.707V321.596L333.794 299.225L321.707 283.427Z" fill="#999BA3"/>
<path d="M382.883 317.356C382.883 317.25 382.883 317.25 382.883 317.144C382.883 317.038 382.883 316.826 382.883 316.72C382.883 316.508 382.883 316.402 382.883 316.19C382.883 316.083 382.883 315.871 382.883 315.765C382.883 315.659 382.883 315.447 382.883 315.341C382.883 315.235 382.883 315.129 382.883 315.023C382.883 314.811 382.883 314.599 382.777 314.387C382.777 314.281 382.777 314.175 382.777 313.963V313.857C382.777 313.433 382.671 313.009 382.565 312.691C382.565 312.585 382.565 312.585 382.565 312.479C382.459 312.161 382.459 311.843 382.353 311.418C382.353 311.312 382.353 311.312 382.353 311.206C382.353 310.994 382.247 310.888 382.247 310.676C382.247 310.464 382.141 310.252 382.141 310.04C382.141 309.934 382.141 309.828 382.035 309.722C382.035 309.51 381.929 309.404 381.929 309.192C381.929 309.086 381.823 308.874 381.823 308.768C381.823 308.556 381.717 308.45 381.717 308.238C381.717 308.026 381.611 307.92 381.611 307.708C381.611 307.602 381.611 307.495 381.505 307.495C381.399 307.283 381.399 307.071 381.293 306.753C381.293 306.647 381.187 306.435 381.187 306.329V306.223C381.081 305.799 380.975 305.375 380.763 304.951V304.845C380.657 304.527 380.551 304.103 380.339 303.785C380.339 303.679 380.339 303.679 380.233 303.573C380.233 303.467 380.127 303.255 380.127 303.148C380.021 302.936 380.021 302.724 379.915 302.512C379.915 302.406 379.809 302.3 379.809 302.088C379.703 301.982 379.703 301.77 379.597 301.664C379.597 301.558 379.491 301.452 379.491 301.346C379.385 301.134 379.279 300.922 379.173 300.71C379.173 300.604 379.067 300.498 379.067 300.392C379.067 300.392 379.067 300.286 378.961 300.286C378.748 299.862 378.642 299.544 378.43 299.12C378.43 299.014 378.324 298.908 378.324 298.802C378.218 298.483 378.006 298.165 377.9 297.847C377.9 297.847 377.9 297.741 377.794 297.741C377.688 297.529 377.582 297.317 377.476 296.999C377.37 296.787 377.264 296.575 377.158 296.363C377.158 296.363 377.158 296.257 377.052 296.257C376.734 295.621 376.416 294.985 375.992 294.454L375.886 294.348C375.886 294.242 375.78 294.242 375.78 294.136C375.25 293.288 374.72 292.44 374.189 291.592L374.083 291.486C374.083 291.38 373.977 291.38 373.977 291.274C373.553 290.638 373.129 290.001 372.599 289.365C372.281 288.941 371.963 288.517 371.645 288.093C371.645 288.093 371.645 288.093 371.645 287.987C371.433 287.669 371.115 287.351 370.903 287.033C370.903 286.927 370.797 286.927 370.797 286.821C370.479 286.503 370.16 286.079 369.842 285.76C369.736 285.654 369.63 285.548 369.524 285.442C369.312 285.23 369.1 285.018 368.888 284.806L368.782 284.7C368.676 284.594 368.464 284.382 368.358 284.276C368.252 284.064 368.04 283.958 367.934 283.746C367.828 283.64 367.828 283.64 367.722 283.534C367.616 283.428 367.404 283.216 367.298 283.11C367.192 283.004 367.086 282.898 366.874 282.686C366.768 282.58 366.768 282.58 366.662 282.474C366.45 282.368 366.344 282.156 366.132 282.05C366.026 281.944 365.919 281.838 365.813 281.732C365.707 281.626 365.601 281.626 365.495 281.519C365.283 281.413 365.177 281.201 364.965 281.095C364.859 280.989 364.753 280.883 364.647 280.883C364.541 280.777 364.435 280.671 364.329 280.565C364.117 280.459 364.011 280.247 363.799 280.141C363.693 280.035 363.587 280.035 363.587 279.929C363.481 279.823 363.269 279.717 363.163 279.611C363.057 279.505 362.845 279.399 362.739 279.293C362.633 279.293 362.633 279.187 362.527 279.187C362.315 279.081 362.103 278.869 361.997 278.763C361.891 278.657 361.785 278.551 361.572 278.445C361.572 278.445 361.466 278.445 361.466 278.339C361.148 278.127 360.83 277.915 360.406 277.703C360.406 277.703 360.406 277.703 360.3 277.703C359.982 277.491 359.664 277.279 359.346 277.172C359.24 277.172 359.24 277.066 359.134 277.066C358.922 276.96 358.604 276.748 358.392 276.642C358.286 276.642 358.18 276.536 358.074 276.536C357.968 276.43 357.862 276.43 357.65 276.324C357.544 276.324 357.438 276.218 357.332 276.218C357.119 276.112 357.013 276.112 356.801 276.006C356.695 276.006 356.589 275.9 356.483 275.794C356.483 275.794 356.377 275.794 356.377 275.688C356.059 275.582 355.741 275.37 355.423 275.264C355.105 275.158 354.787 275.052 354.469 274.946H354.363C354.257 274.946 354.151 274.84 354.045 274.84C353.833 274.734 353.727 274.734 353.515 274.628C353.409 274.628 353.303 274.628 353.303 274.522C353.197 274.522 352.984 274.416 352.878 274.416C352.772 274.416 352.666 274.31 352.56 274.31C352.454 274.31 352.348 274.31 352.242 274.204C352.136 274.204 351.924 274.098 351.818 274.098C351.712 274.098 351.712 274.098 351.606 274.098C351.5 274.098 351.394 274.098 351.182 273.992C350.97 273.992 350.864 273.886 350.652 273.886C350.546 273.886 350.546 273.886 350.44 273.886C350.334 273.886 350.122 273.886 350.016 273.886C349.804 273.886 349.698 273.886 349.486 273.886H349.38C349.274 273.886 349.168 273.886 349.062 273.886C348.85 273.886 348.637 273.886 348.425 273.886C348.319 273.886 348.319 273.886 348.213 273.886C348.107 273.886 348.001 273.886 348.001 273.886C347.789 273.886 347.471 273.886 347.259 273.886C347.153 273.886 347.153 273.886 347.047 273.886C346.941 273.886 346.941 273.886 346.835 273.886C346.411 273.886 346.093 273.992 345.669 274.098H345.563C345.033 274.204 344.503 274.31 344.078 274.522H343.972H343.866C343.654 274.628 343.442 274.734 343.23 274.734C343.124 274.734 343.018 274.84 342.912 274.84C342.594 274.946 342.276 275.158 342.064 275.264L304.849 296.893C305.167 296.681 305.485 296.575 305.698 296.469C305.804 296.469 305.91 296.363 306.016 296.363C306.228 296.257 306.44 296.151 306.652 296.151C306.758 296.151 306.758 296.045 306.864 296.045C307.394 295.833 307.818 295.727 308.348 295.621H308.454C308.772 295.515 309.196 295.515 309.62 295.409C309.726 295.409 309.833 295.409 310.045 295.409C310.257 295.409 310.575 295.409 310.787 295.409C310.893 295.409 311.105 295.409 311.211 295.409C311.423 295.409 311.635 295.409 311.847 295.409C312.059 295.409 312.165 295.409 312.377 295.409C312.589 295.409 312.695 295.409 312.907 295.409C313.119 295.409 313.331 295.409 313.437 295.515C313.649 295.515 313.755 295.515 313.967 295.621C314.179 295.621 314.392 295.727 314.604 295.727C314.71 295.727 314.922 295.833 315.028 295.833C315.24 295.833 315.452 295.939 315.664 296.045C315.77 296.045 315.982 296.151 316.088 296.151C316.3 296.257 316.618 296.257 316.83 296.363C316.936 296.363 317.042 296.469 317.148 296.469C317.89 296.681 318.633 296.999 319.375 297.317C319.481 297.317 319.587 297.423 319.693 297.529C319.905 297.635 320.223 297.741 320.435 297.953C320.541 298.059 320.647 298.059 320.859 298.165C321.177 298.377 321.601 298.589 321.919 298.695C322.343 298.908 322.661 299.12 323.086 299.438H323.192C323.616 299.65 323.934 299.968 324.358 300.18C324.464 300.286 324.57 300.392 324.782 300.498C324.994 300.71 325.312 300.816 325.524 301.028C325.63 301.134 325.842 301.24 325.948 301.346C326.16 301.558 326.372 301.664 326.584 301.876C326.796 301.982 326.902 302.088 327.115 302.3C327.327 302.512 327.539 302.618 327.751 302.83C327.963 302.936 328.069 303.148 328.281 303.255C328.493 303.467 328.705 303.573 328.917 303.785C329.129 303.891 329.235 304.103 329.447 304.209C329.659 304.421 329.871 304.633 330.083 304.845C330.189 304.951 330.401 305.163 330.507 305.269C330.719 305.481 330.931 305.693 331.143 305.905C331.249 306.011 331.462 306.223 331.568 306.329C331.78 306.541 331.992 306.859 332.31 307.071C332.416 307.177 332.522 307.283 332.628 307.389C332.946 307.814 333.264 308.132 333.582 308.556C333.688 308.662 333.688 308.662 333.794 308.768C334.112 309.086 334.324 309.404 334.642 309.722C334.96 310.146 335.278 310.57 335.596 310.994C336.021 311.63 336.551 312.267 336.975 312.903C337.081 313.009 337.187 313.115 337.187 313.221C337.717 314.069 338.247 314.917 338.777 315.765C338.883 315.871 338.883 315.977 338.989 316.083C339.307 316.72 339.731 317.356 340.049 317.886C340.156 318.098 340.262 318.31 340.368 318.522C340.474 318.734 340.58 318.946 340.686 319.264C340.898 319.582 341.004 320.006 341.216 320.324C341.216 320.43 341.322 320.536 341.322 320.643C341.534 321.067 341.746 321.491 341.958 322.021C341.958 322.127 342.064 322.233 342.064 322.339C342.17 322.657 342.382 322.975 342.488 323.293C342.594 323.399 342.594 323.611 342.7 323.717C342.806 324.035 342.912 324.353 343.124 324.671C343.124 324.777 343.23 324.99 343.23 325.096C343.336 325.52 343.548 325.944 343.654 326.368V326.474C343.76 326.898 343.972 327.428 344.078 327.852C344.078 327.958 344.184 328.17 344.184 328.276C344.29 328.594 344.397 328.912 344.503 329.231C344.503 329.443 344.609 329.549 344.609 329.761C344.715 330.079 344.715 330.397 344.821 330.609C344.821 330.821 344.927 330.927 344.927 331.139C345.033 331.457 345.033 331.775 345.139 332.093C345.139 332.305 345.245 332.411 345.245 332.623C345.351 333.047 345.351 333.472 345.457 333.79C345.457 333.896 345.457 333.896 345.457 334.002C345.563 334.426 345.563 334.956 345.669 335.38C345.669 335.486 345.669 335.592 345.669 335.804C345.669 336.122 345.775 336.44 345.775 336.758C345.775 336.864 345.775 337.076 345.775 337.182C345.775 337.5 345.775 337.818 345.881 338.137C345.881 338.243 345.881 338.455 345.881 338.561C345.881 338.985 345.881 339.409 345.881 339.833C345.881 340.257 345.881 340.681 345.881 341.105C345.881 341.211 345.881 341.317 345.881 341.423C345.881 341.741 345.881 342.06 345.775 342.272C345.775 342.484 345.775 342.59 345.775 342.802C345.775 343.014 345.669 343.332 345.669 343.544C345.669 343.756 345.669 343.862 345.563 344.074C345.563 344.286 345.457 344.498 345.457 344.71C345.457 344.922 345.351 345.134 345.351 345.24C345.351 345.452 345.245 345.664 345.245 345.77C345.139 345.982 345.139 346.194 345.033 346.406C345.033 346.619 344.927 346.725 344.927 346.937C344.821 347.149 344.715 347.467 344.715 347.679C344.715 347.785 344.609 347.997 344.609 348.103C344.397 348.527 344.29 348.951 344.078 349.269C344.078 349.269 344.078 349.375 343.972 349.375C343.76 349.905 343.442 350.435 343.124 350.86C343.124 350.86 343.124 350.966 343.018 350.966C342.806 351.39 342.488 351.708 342.276 352.026C342.17 352.132 342.17 352.238 342.064 352.238C341.852 352.556 341.534 352.874 341.216 353.192C341.216 353.192 341.216 353.192 341.11 353.298C340.792 353.616 340.474 353.828 340.156 354.146C340.049 354.252 339.943 354.252 339.943 354.358C339.625 354.57 339.307 354.888 338.883 355.1L376.098 333.471C376.416 333.259 376.84 333.047 377.158 332.729C377.264 332.623 377.37 332.623 377.37 332.517C377.688 332.305 378.006 331.987 378.324 331.669C378.324 331.669 378.324 331.669 378.43 331.563C378.748 331.245 378.96 330.927 379.279 330.609C379.385 330.503 379.385 330.397 379.491 330.397C379.809 330.079 380.021 329.655 380.233 329.337V329.231C380.551 328.806 380.763 328.276 381.081 327.746C381.081 327.746 381.081 327.746 381.081 327.64C381.293 327.216 381.399 326.792 381.611 326.474V326.368C381.611 326.262 381.717 326.156 381.717 326.05C381.823 325.838 381.929 325.52 381.929 325.308C381.929 325.202 381.929 325.202 382.035 325.096C382.035 324.99 382.035 324.884 382.141 324.778C382.247 324.565 382.247 324.353 382.353 324.141C382.353 324.035 382.353 323.929 382.459 323.823C382.459 323.717 382.459 323.611 382.565 323.505C382.565 323.293 382.671 323.081 382.671 322.975C382.671 322.869 382.671 322.763 382.777 322.657C382.777 322.551 382.777 322.445 382.883 322.339C382.883 322.127 382.989 322.021 382.989 321.809C382.989 321.703 382.989 321.597 382.989 321.491C382.989 321.385 382.989 321.173 382.989 321.067C382.989 320.855 382.989 320.749 382.989 320.537C382.989 320.431 382.989 320.43 382.989 320.324C382.989 320.112 382.989 319.9 382.989 319.688C382.989 319.582 382.989 319.476 382.989 319.37V319.264C382.989 318.84 382.989 318.522 382.989 318.098V317.992C382.989 318.098 382.883 317.674 382.883 317.356Z" fill="#2B303F"/>
<path d="M321.813 298.696C335.066 306.329 345.775 324.884 345.669 340.045C345.669 355.207 334.854 361.356 321.601 353.722C308.348 346.089 297.64 327.534 297.746 312.373C297.852 297.105 308.666 291.062 321.813 298.696Z" fill="#333A47"/>
<path d="M321.813 310.569C322.661 311.1 323.404 314.068 323.404 317.355C323.404 320.536 322.661 322.762 321.813 322.232C320.965 321.702 320.223 318.733 320.223 315.553C320.223 312.16 320.965 310.039 321.813 310.569Z" fill="#333A47"/>
<path d="M318.739 327.109C318.951 327.215 319.163 327.427 319.269 327.639C319.905 328.7 318.739 330.502 316.83 331.668C315.24 332.622 313.544 332.835 312.589 332.304C312.377 332.198 312.165 331.986 312.059 331.774C311.423 330.714 312.589 328.912 314.498 327.745C316.194 326.791 317.891 326.579 318.739 327.109Z" fill="#333A47"/>
<path d="M313.225 319.37C315.982 320.96 318.315 323.08 318.315 324.141C318.315 325.201 316.088 324.671 313.225 323.08C310.469 321.49 308.136 319.37 308.136 318.309C308.136 317.355 310.363 317.779 313.225 319.37Z" fill="#333A47"/>
<path d="M321.707 330.291C322.556 330.821 323.298 333.79 323.298 337.076C323.298 340.257 322.556 342.484 321.707 341.954C320.859 341.423 320.117 338.455 320.117 335.274C320.117 331.881 320.859 329.761 321.707 330.291Z" fill="#333A47"/>
<path d="M324.782 330.608C325.736 331.138 327.326 333.259 329.023 336.015C331.037 339.408 332.098 342.483 331.461 342.801C331.355 342.907 331.143 342.801 330.931 342.695C329.977 342.165 328.387 340.044 326.69 337.287C324.676 333.895 323.616 330.82 324.252 330.502C324.358 330.396 324.57 330.502 324.782 330.608Z" fill="#333A47"/>
<path d="M330.401 329.336C333.158 330.926 335.49 333.047 335.49 334.107C335.49 335.167 333.264 334.637 330.401 333.047C327.645 331.456 325.312 329.336 325.312 328.275C325.312 327.215 327.539 327.745 330.401 329.336Z" fill="#333A47"/>
<path d="M312.695 309.614C313.649 310.144 315.24 312.265 316.936 315.022C318.951 318.414 320.011 321.489 319.375 321.807C319.269 321.913 319.057 321.807 318.845 321.701C317.89 321.171 316.194 319.051 314.604 316.294C312.589 312.901 311.529 309.826 312.165 309.508C312.271 309.508 312.483 309.508 312.695 309.614Z" fill="#333A47"/>
<path d="M330.932 320.218C331.144 320.324 331.356 320.536 331.462 320.748C332.098 321.808 330.932 323.611 329.023 324.777C327.433 325.731 325.736 325.943 324.782 325.413C324.57 325.307 324.358 325.095 324.252 324.883C323.616 323.823 324.782 322.02 326.691 320.854C328.387 319.9 329.977 319.688 330.932 320.218Z" fill="#333A47"/>
<path d="M321.814 307.92C321.39 307.602 320.859 307.39 320.435 307.178C312.696 303.467 306.546 307.072 305.91 315.66C305.91 316.084 305.804 316.614 305.804 317.038C305.804 327.11 312.908 339.515 321.708 344.605C330.508 349.694 337.717 345.559 337.717 335.486C337.717 325.308 330.614 313.009 321.814 307.92ZM326.691 320.749C328.281 319.795 329.978 319.583 330.932 320.113C331.144 320.219 331.356 320.431 331.462 320.643C332.098 321.703 331.038 323.506 329.023 324.672C327.433 325.626 325.737 325.838 324.782 325.308C324.57 325.202 324.358 324.99 324.252 324.778C323.616 323.718 324.782 321.915 326.691 320.749ZM308.136 318.31C308.136 317.25 310.363 317.78 313.226 319.371C315.982 320.961 318.315 323.082 318.315 324.142C318.315 325.096 316.088 324.672 313.226 323.082C310.363 321.491 308.136 319.371 308.136 318.31ZM316.83 331.564C315.24 332.518 313.544 332.73 312.59 332.2C312.377 332.094 312.165 331.882 312.059 331.67C311.423 330.609 312.483 328.807 314.498 327.641C316.088 326.686 317.785 326.474 318.739 327.004C318.951 327.11 319.163 327.323 319.269 327.535C319.905 328.701 318.739 330.503 316.83 331.564ZM319.269 321.915C319.163 322.021 318.951 321.915 318.739 321.809C317.785 321.279 316.194 319.159 314.604 316.402C313.65 314.706 312.908 313.115 312.377 311.843C311.953 310.571 311.847 309.722 312.165 309.616C312.271 309.51 312.483 309.616 312.696 309.722C313.014 309.935 313.544 310.359 313.968 310.995C314.816 311.949 315.876 313.433 316.83 315.13C318.845 318.523 319.905 321.491 319.269 321.915ZM321.708 341.848C320.859 341.318 320.117 338.349 320.117 335.062C320.117 331.882 320.859 329.655 321.708 330.185C322.556 330.715 323.298 333.684 323.298 336.971C323.298 340.152 322.556 342.378 321.708 341.848ZM321.814 322.127C320.965 321.597 320.223 318.629 320.223 315.448C320.223 312.267 320.965 310.041 321.814 310.571C322.662 311.101 323.404 314.069 323.404 317.356C323.404 320.431 322.662 322.657 321.814 322.127ZM331.356 342.802C331.25 342.908 331.038 342.802 330.826 342.696C329.872 342.166 328.281 340.045 326.691 337.289C324.676 333.896 323.616 330.821 324.252 330.503C324.358 330.397 324.57 330.503 324.782 330.609C325.737 331.139 327.433 333.26 329.023 336.017C330.932 339.409 331.992 342.484 331.356 342.802ZM330.296 332.942C327.539 331.351 325.206 329.231 325.206 328.171C325.206 327.217 327.433 327.641 330.296 329.231C333.052 330.821 335.385 332.942 335.385 334.002C335.385 335.062 333.158 334.638 330.296 332.942Z" fill="#CFD1DC"/>
<path d="M356.271 296.257L356.165 345.24V348.951V355.419C354.999 355.419 353.939 355.207 352.984 354.889L351.288 353.934L346.199 350.966L345.775 350.648V336.758C345.775 324.778 339.519 310.782 330.401 301.134C327.433 297.953 324.146 295.197 320.647 293.288C318.739 292.228 316.936 291.38 315.134 290.85C311.423 289.683 307.924 289.577 305.061 290.532C304.319 290.744 303.683 291.062 303.047 291.38C302.941 291.38 302.941 291.486 302.835 291.486C302.623 291.592 302.305 291.804 302.093 291.91C302.093 291.91 301.987 291.91 301.987 292.016C301.775 292.228 301.457 292.44 301.245 292.546C300.714 292.97 300.29 293.394 299.76 293.924C299.548 294.136 299.336 294.455 299.124 294.773C298.912 295.091 298.7 295.303 298.488 295.621C298.276 295.939 298.17 296.151 297.958 296.469C297.958 296.575 297.852 296.575 297.852 296.681C297.534 297.317 297.216 297.953 296.898 298.589C296.792 298.908 296.685 299.226 296.579 299.544C296.579 299.65 296.473 299.65 296.473 299.756C296.367 300.074 296.261 300.498 296.155 300.816C296.049 301.134 296.049 301.452 295.943 301.77C295.837 301.982 295.837 302.3 295.837 302.512C295.837 302.724 295.731 302.83 295.731 303.043C295.731 303.255 295.625 303.361 295.625 303.573C295.625 303.573 295.625 303.573 295.625 303.679C295.519 303.997 295.519 304.421 295.519 304.739C295.519 305.057 295.413 305.481 295.413 305.799C295.413 306.435 295.307 306.965 295.307 307.602V321.491L200.945 266.994L200.415 266.676V252.787C200.415 242.29 195.644 230.31 188.328 221.086C184.512 216.208 180.059 212.073 175.287 209.317C173.379 208.257 171.471 207.408 169.668 206.772C165.957 205.606 162.67 205.5 159.702 206.454C159.702 206.454 159.702 206.454 159.596 206.454C158.854 206.666 158.111 206.984 157.475 207.408C157.475 207.408 157.369 207.408 157.369 207.514C157.051 207.62 156.839 207.833 156.627 208.045L156.521 208.151C156.309 208.363 156.097 208.469 155.779 208.681C155.567 208.893 155.249 209.105 155.037 209.317C154.825 209.529 154.613 209.741 154.401 209.953C154.295 210.059 154.082 210.271 153.976 210.483C153.87 210.589 153.764 210.695 153.658 210.907L153.552 211.013C153.34 211.225 153.128 211.543 153.022 211.755C152.916 211.861 152.916 211.967 152.81 212.073C152.704 212.286 152.598 212.498 152.386 212.71C152.174 213.028 152.068 213.346 151.962 213.558C151.962 213.558 151.962 213.664 151.856 213.664C151.75 213.982 151.644 214.194 151.538 214.512C151.432 214.83 151.326 215.042 151.22 215.36C151.114 215.572 151.008 215.89 151.008 216.102C151.008 216.102 151.008 216.102 151.008 216.208C150.902 216.421 150.902 216.527 150.902 216.739C150.796 216.951 150.796 217.163 150.69 217.375C150.69 217.587 150.584 217.799 150.584 217.905C150.478 218.117 150.478 218.329 150.478 218.541C150.372 218.753 150.372 218.965 150.372 219.177C150.372 219.389 150.266 219.601 150.266 219.813C150.266 220.025 150.16 220.237 150.16 220.449C150.16 220.555 150.16 220.661 150.16 220.768C150.16 221.086 150.054 221.51 150.054 221.828C150.054 222.464 149.948 222.994 149.948 223.63V237.519L147.933 236.353C144.01 234.127 141.572 229.886 141.678 225.433V215.466C141.678 199.987 146.025 184.719 154.295 171.572C156.097 168.709 157.687 166.589 158.854 165.953C159.066 165.847 159.384 165.635 159.596 165.529C159.808 165.423 160.02 165.317 160.232 165.211C160.338 165.105 160.55 165.105 160.656 164.999C160.974 164.893 161.186 164.787 161.504 164.681H161.61H161.716C161.928 164.575 162.14 164.575 162.352 164.468C162.458 164.362 162.67 164.362 162.777 164.362C162.989 164.362 163.095 164.256 163.307 164.256C163.625 164.15 163.837 164.15 164.155 164.044C164.261 164.044 164.261 164.044 164.367 164.044C164.685 163.938 164.897 163.938 165.215 163.938C165.427 163.938 165.745 163.832 165.957 163.832C166.169 163.832 166.381 163.832 166.487 163.832C166.805 163.832 167.23 163.832 167.548 163.726C167.76 163.726 167.972 163.726 168.184 163.726C168.502 163.726 168.82 163.726 169.032 163.726C169.244 163.726 169.562 163.726 169.774 163.726C169.986 163.726 170.304 163.726 170.516 163.832C170.622 163.832 170.834 163.832 170.94 163.832C171.152 163.832 171.365 163.938 171.577 163.938C171.683 163.938 171.895 163.938 172.001 164.044C172.319 164.044 172.637 164.15 172.849 164.256C173.061 164.256 173.273 164.362 173.485 164.362C173.803 164.468 174.121 164.468 174.439 164.575C174.651 164.681 174.863 164.681 175.075 164.787C175.393 164.893 175.818 164.999 176.136 165.105C176.242 165.105 176.348 165.211 176.348 165.211C176.666 165.317 176.878 165.423 177.196 165.529C177.302 165.529 177.302 165.529 177.408 165.635C177.938 165.847 178.468 166.059 178.998 166.271C179.21 166.377 179.528 166.483 179.74 166.589C179.952 166.695 180.059 166.695 180.271 166.801C180.483 166.907 180.589 167.013 180.801 167.013C181.013 167.119 181.119 167.225 181.331 167.331C181.437 167.437 181.543 167.437 181.649 167.543C181.755 167.543 181.755 167.649 181.861 167.649C182.391 167.967 182.921 168.179 183.345 168.497L183.557 168.603L210.806 184.295L214.198 186.31L237.418 199.775L280.782 224.796L281.1 224.902L284.811 227.023L336.445 256.816L346.305 265.404L348.956 267.736C349.38 268.691 349.804 269.645 350.122 270.599C350.228 270.811 350.334 271.023 350.334 271.129C350.334 271.235 350.44 271.341 350.44 271.447C350.652 271.977 350.864 272.507 351.076 273.038C351.182 273.25 351.288 273.462 351.288 273.78C351.394 274.098 351.5 274.416 351.606 274.628C351.606 274.734 351.712 274.946 351.712 275.052C352.03 276.112 352.454 277.173 352.666 278.233C352.666 278.445 352.772 278.551 352.772 278.763C352.772 278.869 352.878 278.975 352.878 279.081C353.091 279.929 353.409 280.883 353.621 281.732V281.838C353.621 282.05 353.727 282.156 353.727 282.368C353.833 282.792 353.939 283.322 354.045 283.746C354.151 284.276 354.257 284.912 354.363 285.442C354.363 285.548 354.469 285.761 354.469 285.867C354.469 285.973 354.575 286.185 354.575 286.291C354.681 287.245 354.893 288.093 354.999 288.941C354.999 289.047 354.999 289.153 354.999 289.259C354.999 289.365 354.999 289.471 354.999 289.683C354.999 290.108 355.105 290.532 355.105 290.85C355.211 291.38 355.211 291.91 355.211 292.44V292.546C355.211 292.652 355.211 292.652 355.211 292.758C355.211 293.288 355.317 293.712 355.317 294.242C356.271 295.197 356.271 295.727 356.271 296.257Z" fill="#E9EAF4"/>
<path d="M161.716 164.999C161.928 164.893 162.246 164.787 162.459 164.787C162.565 164.787 162.777 164.681 162.883 164.681C163.201 164.575 163.519 164.469 163.943 164.469C164.049 164.469 164.155 164.469 164.261 164.363C164.367 164.363 164.367 164.363 164.473 164.363C165.003 164.257 165.533 164.151 166.063 164.151C166.275 164.151 166.487 164.151 166.593 164.151C166.912 164.151 167.336 164.151 167.654 164.151C167.866 164.151 168.078 164.151 168.29 164.151C168.608 164.151 168.926 164.151 169.138 164.151C169.35 164.151 169.668 164.151 169.88 164.151C170.092 164.151 170.41 164.151 170.622 164.257C170.94 164.257 171.153 164.363 171.471 164.363C171.683 164.363 171.895 164.469 172.213 164.469C172.531 164.469 172.849 164.575 173.061 164.681C173.273 164.681 173.485 164.787 173.697 164.787C174.015 164.893 174.333 164.893 174.651 164.999C174.863 165.105 175.075 165.105 175.287 165.211C175.606 165.317 176.03 165.423 176.348 165.529C176.56 165.635 176.666 165.635 176.878 165.741C177.408 165.953 177.938 166.165 178.468 166.377H178.574C179.104 166.589 179.528 166.801 180.059 167.013C180.271 167.119 180.377 167.225 180.589 167.225C181.013 167.437 181.331 167.543 181.755 167.756C181.967 167.862 182.179 167.968 182.285 168.074C182.815 168.392 183.345 168.604 183.769 168.922L295.413 104.035C295.095 103.823 294.671 103.611 294.353 103.399C294.247 103.293 294.035 103.293 293.929 103.187C293.717 103.081 293.505 102.975 293.399 102.869C293.293 102.762 293.081 102.762 292.975 102.656C292.763 102.55 292.551 102.444 292.233 102.338C292.02 102.232 291.914 102.126 291.702 102.126C291.596 102.126 291.596 102.02 291.49 102.02C291.066 101.808 290.642 101.596 290.218 101.49H290.112C289.688 101.278 289.158 101.172 288.734 100.96C288.628 100.96 288.628 100.96 288.522 100.854C288.31 100.748 288.204 100.748 287.992 100.642C287.779 100.536 287.461 100.43 287.249 100.43C287.143 100.43 287.037 100.324 286.931 100.324C286.719 100.218 286.507 100.218 286.295 100.112C286.083 100.112 285.977 100.006 285.765 100.006C285.659 100.006 285.447 99.8998 285.341 99.8998C285.129 99.8998 284.917 99.7938 284.705 99.7938C284.599 99.7938 284.493 99.6878 284.387 99.6878C284.175 99.6878 284.069 99.5817 283.857 99.5817C283.645 99.5817 283.433 99.4757 283.114 99.4757C283.008 99.4757 282.902 99.4757 282.796 99.4757C282.584 99.4757 282.478 99.4757 282.266 99.3697C282.054 99.3697 281.736 99.2637 281.524 99.2637C281.418 99.2637 281.312 99.2637 281.312 99.2637C281.1 99.2637 280.994 99.2637 280.782 99.2637C280.464 99.2637 280.146 99.2637 279.934 99.2637C279.828 99.2637 279.722 99.2637 279.616 99.2637C279.51 99.2637 279.404 99.2637 279.192 99.2637C278.873 99.2637 278.449 99.2637 278.131 99.2637C278.025 99.2637 277.919 99.2637 277.813 99.2637C277.707 99.2637 277.707 99.2637 277.601 99.2637C277.071 99.3697 276.541 99.3697 276.011 99.4757H275.905C275.799 99.4757 275.693 99.4757 275.587 99.5817C275.269 99.6878 274.951 99.6878 274.526 99.7938C274.42 99.7938 274.208 99.8998 274.102 99.8998C273.89 100.006 273.678 100.006 273.466 100.112C273.466 100.112 273.36 100.112 273.36 100.218C273.042 100.324 272.724 100.43 272.406 100.642C272.3 100.748 272.088 100.748 271.982 100.854C271.558 101.066 271.134 101.278 270.604 101.596L158.96 166.483C159.384 166.271 159.808 165.953 160.338 165.847C160.444 165.741 160.656 165.741 160.762 165.635C161.08 165.211 161.398 165.105 161.716 164.999Z" fill="#AAACB5"/>
<path d="M184.088 168.709L295.625 103.822L448.831 192.246L337.187 257.133L184.088 168.709Z" fill="#B8B9C3"/>
<path d="M467.915 231.37L467.809 285.548C467.809 289.471 465.688 293.076 462.296 295.09L417.341 321.172L360.83 354.04L359.558 354.782C358.604 355.206 357.437 355.418 356.271 355.418V348.951V345.24L356.377 296.257C356.377 295.727 356.377 295.196 356.377 294.666C356.377 294.242 356.377 293.712 356.271 293.182C356.271 293.076 356.271 293.076 356.271 292.97V292.864C356.271 292.334 356.165 291.804 356.165 291.273C356.165 290.849 356.059 290.425 356.059 290.107C356.059 290.001 356.059 289.895 356.059 289.683C356.059 289.577 356.059 289.471 356.059 289.365C355.953 288.517 355.847 287.563 355.635 286.714C355.635 286.608 355.635 286.396 355.529 286.29C355.529 286.184 355.529 285.972 355.423 285.866C355.317 285.336 355.211 284.806 355.105 284.17C354.999 283.534 354.787 282.792 354.681 282.155C354.469 281.307 354.257 280.353 353.939 279.505C353.832 279.187 353.832 278.975 353.726 278.657C353.408 277.596 353.09 276.536 352.666 275.476C352.666 275.37 352.56 275.158 352.56 275.052C352.454 274.734 352.348 274.416 352.242 274.204C352.136 273.991 352.136 273.779 352.03 273.461C351.818 272.825 351.5 272.189 351.288 271.553C351.182 271.341 351.182 271.129 351.076 271.023C350.228 269.114 348.849 267.312 347.259 265.934L337.399 257.346L448.83 192.247L459.433 201.577C460.387 202.849 461.341 204.121 462.296 205.5C462.402 205.818 462.614 206.242 462.72 206.56C462.72 206.666 462.826 206.772 462.826 206.878C462.826 206.984 462.932 207.09 462.932 207.196C463.144 207.832 463.356 208.362 463.568 208.998C463.674 209.317 463.886 209.741 463.992 210.165C463.992 210.271 464.098 210.483 464.098 210.589C464.098 210.695 464.204 210.801 464.204 210.907C464.416 211.543 464.628 212.179 464.84 212.815C464.946 213.133 465.052 213.451 465.158 213.664C465.158 213.876 465.264 213.982 465.264 214.194C465.37 214.406 465.37 214.512 465.476 214.724C465.688 215.36 465.794 215.996 466.006 216.738C466.006 216.95 466.112 217.162 466.112 217.374C466.112 217.586 466.218 217.692 466.218 217.905L466.431 218.753C466.537 219.389 466.749 220.025 466.855 220.661C466.855 220.767 466.855 220.873 466.961 220.979C466.961 221.085 467.067 221.297 467.067 221.403C467.173 221.827 467.173 222.146 467.279 222.57C467.385 223.206 467.491 223.842 467.597 224.372C467.597 224.478 467.597 224.478 467.597 224.584C467.597 224.69 467.597 224.796 467.597 224.902C467.597 225.326 467.703 225.856 467.703 226.28C467.809 226.917 467.809 227.447 467.809 228.083V228.189C467.809 228.719 467.915 229.249 467.915 229.779C467.915 230.309 467.915 230.84 467.915 231.37Z" fill="#C1C4D3"/>
<path d="M291.49 173.798C305.379 181.75 317.89 198.289 323.722 216.102L337.187 257.239L184.299 168.921L200.521 143.157C206.777 133.296 218.969 131.918 232.116 139.552L291.49 173.798Z" fill="#333A47"/>
<path d="M435.26 151.109C435.26 151.003 435.154 150.791 435.154 150.685C434.942 150.049 434.729 149.518 434.517 148.882C434.411 148.67 434.305 148.352 434.199 148.14C434.093 148.034 434.093 147.822 433.987 147.716C433.881 147.504 433.881 147.398 433.775 147.186C433.563 146.656 433.351 146.02 433.033 145.489C432.927 145.277 432.821 145.065 432.715 144.853C432.609 144.747 432.609 144.535 432.503 144.429C432.397 144.217 432.291 144.005 432.185 143.793C431.973 143.263 431.655 142.627 431.443 142.097C431.337 141.991 431.337 141.779 431.231 141.673C431.125 141.461 431.125 141.354 431.019 141.142C430.913 140.824 430.701 140.506 430.595 140.294C430.276 139.658 429.958 139.022 429.534 138.28C429.534 138.28 429.534 138.174 429.428 138.174C428.898 137.114 428.368 136.159 427.732 135.099C427.732 135.099 427.732 135.099 427.732 134.993C427.202 134.145 426.672 133.191 426.141 132.342C425.929 132.13 425.823 131.812 425.611 131.6C425.399 131.176 425.081 130.752 424.869 130.434C424.763 130.222 424.551 130.01 424.445 129.904C424.127 129.374 423.703 128.844 423.385 128.313C423.173 127.995 422.961 127.783 422.749 127.465C422.537 127.253 422.431 127.041 422.219 126.829C422.007 126.617 421.794 126.299 421.688 126.087C421.476 125.875 421.37 125.663 421.264 125.451C420.84 124.921 420.31 124.285 419.886 123.754C419.462 123.224 419.038 122.694 418.508 122.164C418.296 121.952 418.084 121.74 417.872 121.422C417.766 121.316 417.553 121.104 417.447 120.998C417.341 120.892 417.235 120.786 417.129 120.574C416.599 120.044 416.175 119.513 415.645 119.089C415.539 118.983 415.539 118.983 415.433 118.877C415.327 118.771 415.221 118.665 415.009 118.559C414.691 118.241 414.373 117.923 414.055 117.605C413.737 117.287 413.419 117.075 413.206 116.757C413.1 116.651 412.888 116.439 412.782 116.333C412.676 116.227 412.57 116.121 412.57 116.121C412.04 115.697 411.51 115.166 410.98 114.742C410.874 114.636 410.768 114.636 410.662 114.53C410.556 114.424 410.344 114.318 410.238 114.212C409.92 114 409.602 113.682 409.39 113.47C409.072 113.152 408.647 112.94 408.329 112.622C408.223 112.516 408.117 112.41 408.011 112.41L407.905 112.304C407.375 111.88 406.845 111.562 406.315 111.244C406.103 111.138 405.997 111.031 405.785 110.925C405.679 110.819 405.467 110.713 405.361 110.607C405.149 110.501 405.043 110.395 404.831 110.289C404.3 109.971 403.876 109.653 403.346 109.335C403.24 109.229 403.134 109.229 403.028 109.123L343.76 74.8771C343.336 74.6651 343.018 74.453 342.594 74.241C342.488 74.135 342.276 74.135 342.17 74.0289C341.958 73.9229 341.746 73.8169 341.64 73.7109C341.534 73.6048 341.322 73.4988 341.216 73.4988C341.004 73.3928 340.792 73.2868 340.58 73.1807C340.368 73.0747 340.262 72.9687 340.05 72.9687C339.944 72.9687 339.944 72.8627 339.838 72.8627C339.413 72.6506 339.095 72.5446 338.671 72.3325C338.565 72.3325 338.565 72.2265 338.459 72.2265C337.929 72.0145 337.505 71.8024 336.975 71.6964H336.869C336.657 71.5904 336.551 71.5904 336.339 71.4843C336.021 71.3783 335.809 71.2723 335.491 71.1663C335.385 71.1663 335.278 71.1663 335.172 71.0602C334.96 70.9542 334.748 70.9542 334.536 70.8482C334.324 70.8482 334.112 70.7422 334.006 70.7422C333.9 70.7422 333.688 70.6361 333.582 70.6361C333.37 70.6361 333.158 70.5301 332.946 70.5301C332.84 70.5301 332.628 70.4241 332.522 70.4241C332.31 70.4241 332.204 70.3181 331.992 70.3181C331.78 70.3181 331.462 70.212 331.25 70.212C331.144 70.212 331.037 70.212 330.931 70.106C330.719 70.106 330.613 70.106 330.401 70.106C330.083 70.106 329.871 70 329.553 70C329.447 70 329.341 70 329.235 70C329.129 70 328.917 70 328.811 70C328.493 70 328.175 70 327.857 70C327.751 70 327.645 70 327.539 70C327.433 70 327.327 70 327.221 70C326.903 70 326.478 70 326.16 70C326.054 70 325.948 70 325.736 70C325.63 70 325.63 70 325.524 70C324.888 70.106 324.358 70.106 323.722 70.212C323.722 70.212 323.722 70.212 323.616 70.212H323.51C323.086 70.3181 322.662 70.4241 322.237 70.5301C322.131 70.5301 321.919 70.6361 321.813 70.6361C321.601 70.7422 321.389 70.7422 321.071 70.8482C321.071 70.8482 320.965 70.8482 320.965 70.9542C320.647 71.0602 320.329 71.1663 320.011 71.3783C319.905 71.4843 319.693 71.4843 319.587 71.5904C319.163 71.8024 318.633 72.0145 318.209 72.3325L206.565 137.22C206.989 137.007 207.413 136.689 207.943 136.477C208.049 136.371 208.261 136.371 208.367 136.265C208.685 136.159 209.003 135.947 209.321 135.841C209.639 135.735 209.851 135.629 210.17 135.523C210.276 135.523 210.488 135.417 210.594 135.417C211.018 135.311 211.442 135.205 211.866 135.099H211.972C211.972 135.099 211.972 135.099 212.078 135.099C212.608 134.993 213.244 134.887 213.88 134.887C214.092 134.887 214.304 134.887 214.517 134.887C214.835 134.887 215.259 134.887 215.577 134.887C215.789 134.887 216.001 134.887 216.213 134.887C216.531 134.887 216.849 134.887 217.167 134.887C217.379 134.887 217.697 134.887 217.909 134.887C218.121 134.887 218.439 134.887 218.758 134.993C219.076 134.993 219.288 135.099 219.606 135.099C219.818 135.099 220.136 135.205 220.348 135.205C220.666 135.205 220.984 135.311 221.302 135.417C221.514 135.417 221.726 135.523 221.938 135.523C222.256 135.629 222.574 135.735 222.892 135.735C223.105 135.841 223.317 135.841 223.529 135.947C223.847 136.053 224.271 136.159 224.589 136.265C224.801 136.371 224.907 136.371 225.119 136.477C225.649 136.689 226.179 136.901 226.709 137.114C226.815 137.114 226.815 137.22 226.921 137.22C227.346 137.432 227.876 137.644 228.3 137.856C228.512 137.962 228.618 138.068 228.83 138.068C229.254 138.28 229.572 138.386 229.996 138.598C230.208 138.704 230.42 138.81 230.526 138.916C231.056 139.234 231.586 139.446 232.011 139.764L291.278 174.01C292.02 174.434 292.869 174.964 293.611 175.494C293.717 175.6 293.929 175.706 294.035 175.812C294.777 176.343 295.519 176.873 296.261 177.403C296.367 177.509 296.473 177.509 296.58 177.615C297.216 178.145 297.958 178.675 298.594 179.205C298.7 179.311 298.912 179.417 299.018 179.523C299.76 180.159 300.396 180.796 301.139 181.432C301.245 181.538 301.457 181.75 301.563 181.856C302.199 182.386 302.835 183.022 303.365 183.658C303.471 183.764 303.577 183.87 303.789 184.082C304.425 184.719 305.168 185.461 305.804 186.203C305.91 186.309 306.122 186.521 306.228 186.627C306.864 187.369 307.606 188.111 308.242 188.96C308.878 189.702 309.515 190.444 310.045 191.292C310.257 191.504 310.469 191.822 310.575 192.034C310.999 192.564 311.317 192.988 311.635 193.519C311.953 194.049 312.377 194.579 312.695 195.109C313.119 195.639 313.437 196.275 313.862 196.911C314.074 197.123 314.18 197.441 314.392 197.654C314.922 198.502 315.558 199.456 316.088 200.41C316.724 201.364 317.254 202.425 317.784 203.485C317.784 203.485 317.784 203.591 317.89 203.591C318.421 204.545 318.845 205.499 319.375 206.454C319.481 206.666 319.481 206.772 319.587 206.984C320.011 207.938 320.435 208.892 320.859 209.74C320.965 209.846 320.965 210.058 321.071 210.164C321.495 211.119 321.813 212.073 322.237 213.027C322.343 213.133 322.343 213.345 322.449 213.451C322.874 214.511 323.192 215.466 323.51 216.526L336.975 257.663L448.831 192.246L435.26 151.109Z" fill="#2B303F"/>
<path d="M327.75 214.405C327.432 213.345 327.008 212.179 326.584 211.118C326.584 211.118 326.372 210.694 326.372 210.588C325.948 209.528 325.63 208.574 325.206 207.62L324.994 207.195C324.57 206.135 324.146 205.181 323.615 204.227C323.615 204.121 323.403 203.803 323.403 203.803C323.085 203.167 322.767 202.53 322.449 201.894V201.47L321.707 200.41C321.707 200.304 321.495 199.986 321.495 199.986C320.965 199.138 320.541 198.183 320.011 197.335C319.799 197.017 319.693 196.699 319.48 196.487L398.893 150.26L422.112 137.113L427.838 147.61L441.515 189.913L393.592 217.798L339.201 249.393L327.75 214.405Z" fill="white"/>
<path d="M281.842 186.309V225.114L219.288 189.065L239.008 161.605L281.842 186.309Z" fill="white"/>
<path d="M233.177 153.865L214.198 181.643L194.796 170.405L207.731 147.821C210.063 143.793 214.729 143.156 219.818 146.125L233.177 153.865Z" fill="white"/>
<path d="M297.746 191.185C302.941 194.154 307.712 200.409 309.939 207.089L321.919 243.773L288.84 224.795L288.946 186.096L297.746 191.185Z" fill="white"/>
<path d="M211.548 184.613L284.281 226.599L287.249 179.1L244.309 153.442L231.268 161.606L217.803 181.75L211.548 184.613Z" fill="#333A47"/>
<path d="M327.75 214.405C327.432 213.345 327.008 212.179 326.584 211.118C326.584 211.118 326.372 210.694 326.372 210.588C325.948 209.528 325.63 208.574 325.206 207.62L324.994 207.195C324.57 206.135 324.146 205.181 323.615 204.227C323.615 204.121 323.403 203.803 323.403 203.803C323.085 203.167 322.767 202.53 322.449 201.894V201.47L321.707 200.41C321.707 200.304 321.495 199.986 321.495 199.986C320.965 199.138 320.541 198.183 320.011 197.335C319.799 197.017 319.693 196.699 319.48 196.487L398.893 150.26L422.112 137.113L427.838 147.61L441.515 189.913L393.592 217.798L339.201 249.393L327.75 214.405Z" fill="#CADCF9"/>
<path d="M195.538 189.809C198.719 191.717 201.369 196.17 201.369 199.881V205.394C201.369 209.105 198.719 210.59 195.538 208.681L187.692 204.016C184.511 202.108 181.861 197.655 181.861 193.944V188.43C181.861 184.72 184.511 183.235 187.692 185.144L195.538 189.809Z" fill="#333A47"/>
<path d="M233.177 153.865L214.198 181.643L194.796 170.405L207.731 147.821C210.063 143.793 214.729 143.156 219.818 146.125L233.177 153.865Z" fill="#CADCF9"/>
<path d="M297.746 190.125C302.941 193.094 307.712 199.349 309.939 206.028L321.919 243.773L288.84 224.795L288.946 185.036L297.746 190.125Z" fill="#CADCF9"/>
<path d="M363.269 283.322C362.739 283.322 362.103 283.003 361.785 282.473C361.36 281.731 361.573 280.671 362.421 280.247L459.645 223.736C460.387 223.312 461.448 223.524 461.872 224.372C462.296 225.114 462.084 226.174 461.236 226.598L364.011 283.109C363.799 283.215 363.587 283.322 363.269 283.322Z" fill="#2B303F"/>
<path d="M363.269 333.259C362.739 333.259 362.103 332.94 361.785 332.41C361.36 331.668 361.573 330.608 362.421 330.184L459.645 273.673C460.387 273.249 461.448 273.461 461.872 274.309C462.296 275.051 462.084 276.111 461.236 276.535L364.011 333.046C363.799 333.153 363.587 333.259 363.269 333.259Z" fill="#2B303F"/>
<path d="M380.233 283.746C384.792 281.096 388.503 283.216 388.503 288.411V296.045C388.503 301.24 384.792 307.708 380.233 310.252L373.553 314.069C368.994 316.72 365.283 314.599 365.283 309.298V301.664C365.283 296.469 368.994 290.108 373.553 287.457L380.233 283.746Z" fill="#2B303F"/>
<path d="M452.117 242.184C456.676 239.534 460.387 241.654 460.387 246.849V254.483C460.387 259.678 456.676 266.146 452.117 268.69L445.438 272.507C440.879 275.158 437.168 273.037 437.168 267.842V260.208C437.168 255.013 440.879 248.652 445.438 246.001L452.117 242.184Z" fill="#2B303F"/>
<path d="M282.266 181.963L282.16 220.768L219.711 184.719L239.432 157.153L282.266 181.963Z" fill="#CADCF9"/>
<path d="M278.131 291.803C277.177 291.803 276.117 291.485 274.95 290.848L226.073 262.54C221.408 259.889 217.697 252.68 217.697 246.53V186.414H218.651V246.53C218.651 252.362 222.15 259.147 226.603 261.692L275.481 289.894C277.177 290.848 278.555 291.061 279.722 290.318C281.736 289.152 282.902 285.335 282.902 279.716V224.371H283.857V279.822C283.857 285.865 282.584 289.788 280.252 291.167C279.616 291.591 278.873 291.803 278.131 291.803Z" fill="#333A47"/>
<path d="M235.615 216.313L225.755 210.588C224.589 209.846 223.529 208.043 223.529 206.453C223.529 204.863 224.483 204.12 225.755 204.756L235.615 210.482C236.782 211.224 237.842 213.026 237.842 214.617C237.842 216.313 236.782 217.055 235.615 216.313Z" fill="#333A47"/>
<path d="M212.035 265.274C211.887 267.108 211.855 268.306 211.855 268.306C211.855 268.306 207.37 268.847 205.917 266.801C206.051 265.723 206.278 264.659 206.596 263.62C207.349 264.24 208.218 264.705 209.151 264.989C210.084 265.272 211.064 265.369 212.035 265.274Z" fill="#D5D7E2"/>
<path opacity="0.4" d="M60.3581 366.068C56.9287 353.066 78.747 336.217 109.091 328.434C139.435 320.651 166.813 324.881 170.243 337.883C173.672 350.884 151.854 367.734 121.51 375.517C91.1661 383.3 63.7875 379.07 60.3581 366.068Z" fill="#D6D8E5"/>
<path d="M150.863 119.55C150.863 119.55 169.592 113.89 175.65 113.89C184.57 100.1 201.921 84.3369 201.921 84.3369L205.579 89.5653C205.579 89.5653 192.059 118.478 182.662 124.203C173.264 129.928 150.85 134.176 150.85 134.176L150.863 119.55Z" fill="#FFCEA9"/>
<path d="M184.863 85.9066V85.7236C184.87 85.6936 184.87 85.6622 184.863 85.6321C184.863 85.6321 184.863 85.6321 184.863 85.5537C184.869 85.5279 184.869 85.5011 184.863 85.4753C184.863 85.4753 184.863 85.4099 184.863 85.3707C184.863 85.3315 184.863 85.3707 184.863 85.2792C184.869 85.249 184.869 85.218 184.863 85.1877V85.1093C184.871 85.0793 184.871 85.0478 184.863 85.0178V84.9263C184.863 84.9263 184.863 84.9263 184.863 84.8479V84.7564V84.6649V84.5734C184.863 84.5734 184.863 84.508 184.863 84.4688L184.929 84.3512L185.062 84.129L185.168 83.9721L185.248 83.8676V83.7761L185.314 83.6976V83.6192L185.393 83.5408V83.4624L185.473 83.397H185.552H185.632H185.711L206.641 71.032H206.707H206.787H206.866H208.55H208.669L208.801 71.1104L209.822 71.7117C209.744 71.6636 209.659 71.6283 209.57 71.6071C209.473 71.5937 209.375 71.5937 209.279 71.6071L208.96 71.6855C208.836 71.7311 208.716 71.788 208.603 71.8555L187.686 84.2074C187.559 84.2827 187.439 84.3703 187.329 84.4688C187.216 84.5668 187.11 84.6715 187.01 84.7825C186.902 84.8986 186.8 85.0208 186.706 85.1485C186.614 85.2788 186.53 85.4141 186.454 85.5537C186.374 85.6975 186.308 85.8413 186.242 85.985C186.172 85.8937 186.096 85.8065 186.016 85.7236C186.016 85.8805 185.937 86.0243 185.91 86.1811C185.897 86.3246 185.897 86.469 185.91 86.6124L184.89 86.0112L184.863 85.9066Z" fill="#1F232D"/>
<path d="M187.647 83.4629C187.127 83.8131 186.697 84.2776 186.391 84.8198C186.086 85.362 185.912 85.9669 185.884 86.5868V97.1481C185.884 98.2983 186.679 98.7558 187.66 98.1807L208.549 85.8156C209.071 85.4685 209.501 85.0044 209.806 84.4613C210.11 83.9182 210.279 83.3118 210.299 82.6917V72.1435C210.299 70.9933 209.504 70.5358 208.523 71.1109L187.647 83.4629Z" fill="#171A22"/>
<path d="M187.818 83.8037C187.397 84.082 187.048 84.4542 186.799 84.8901C186.55 85.3261 186.409 85.8136 186.387 86.3133V96.8745C186.387 97.7895 187.023 98.1816 187.818 97.698L208.098 85.7251C208.516 85.4439 208.861 85.0707 209.108 84.6352C209.354 84.1996 209.494 83.7136 209.517 83.2155V72.6673C209.517 71.7393 208.867 71.3602 208.085 71.8308L187.818 83.8037ZM193.028 83.8037C192.603 84.052 192.259 83.8037 192.259 83.3593C192.278 83.0998 192.356 82.8478 192.487 82.6217C192.618 82.3956 192.798 82.201 193.014 82.0522C193.438 81.8039 193.783 82.0522 193.783 82.4966C193.766 82.7568 193.69 83.0098 193.559 83.2364C193.428 83.4629 193.246 83.6569 193.028 83.8037ZM188.667 86.3264C188.256 86.5747 187.911 86.3264 187.911 85.882C187.926 85.6213 188.002 85.3675 188.133 85.1407C188.264 84.9139 188.447 84.7202 188.667 84.5749C189.091 84.3265 189.422 84.5749 189.436 85.0062C189.416 85.2673 189.337 85.5207 189.204 85.7472C189.071 85.9736 188.887 86.1672 188.667 86.3133V86.3264ZM190.827 85.0193C190.403 85.2676 190.059 85.0193 190.059 84.5749C190.075 84.3147 190.152 84.0616 190.283 83.8351C190.414 83.6086 190.595 83.4145 190.814 83.2678C191.238 83.0194 191.583 83.2678 191.583 83.7122C191.563 83.9717 191.485 84.2237 191.355 84.4498C191.224 84.6759 191.044 84.8705 190.827 85.0193Z" fill="#1F232B"/>
<path d="M190.866 83.267C190.648 83.4137 190.466 83.6078 190.335 83.8343C190.204 84.0608 190.127 84.3138 190.111 84.5741C190.111 85.0707 190.455 85.2668 190.879 85.0185C191.096 84.8696 191.276 84.6751 191.407 84.449C191.538 84.2229 191.615 83.9709 191.635 83.7114C191.635 83.2278 191.317 83.0186 190.866 83.267Z" fill="#727379"/>
<path d="M193.014 81.9991C192.798 82.1479 192.618 82.3424 192.487 82.5685C192.356 82.7946 192.278 83.0466 192.259 83.3062C192.259 83.8028 192.603 83.9989 193.027 83.7506C193.246 83.6038 193.428 83.4098 193.559 83.1832C193.69 82.9567 193.766 82.7037 193.783 82.4435C193.783 81.9468 193.438 81.803 193.014 81.9991Z" fill="#727379"/>
<path d="M205.527 89.5406C205.527 89.5406 213.254 84.3123 213.48 81.1491C213.644 78.9304 213.327 76.7026 212.552 74.6137C212.22 73.6726 212.022 72.5224 211.001 72.0649C210.671 71.9658 210.321 71.9498 209.983 72.0183C209.645 72.0868 209.329 72.2376 209.066 72.457C207.991 73.131 206.955 73.8641 205.964 74.6529C204.639 75.6071 203.313 76.4959 201.882 77.4109C201.312 77.7899 198.197 79.463 199.032 80.3779C200.596 82.0118 203.247 79.8813 204.572 79.1885C206.339 78.3582 208.006 77.3367 209.543 76.143C209.543 76.2345 209.45 76.6528 209.357 76.8227C209.213 77.1074 209.031 77.3712 208.814 77.6069C208.352 78.0359 207.841 78.4089 207.29 78.7179C206.468 79.2408 205.58 79.7113 204.639 80.195C203.521 80.6929 202.448 81.2831 201.431 81.9595C201.334 82.0392 201.255 82.1391 201.201 82.2521C201.148 82.3651 201.12 82.4883 201.12 82.6131C201.12 82.7378 201.148 82.8611 201.201 82.974C201.255 83.087 201.334 83.1869 201.431 83.2666C201.815 83.6326 202.611 83.515 203.114 83.4235C203.618 83.332 204.347 83.0444 204.97 82.8483C205.861 82.5476 206.721 82.1669 207.541 81.7112C208.237 81.2901 208.905 80.8274 209.543 80.3257C209.503 80.5617 209.44 80.7936 209.357 81.0184C209.128 81.3488 208.846 81.6401 208.522 81.8811C207.979 82.3386 207.382 82.7046 206.826 83.1882C205.699 84.0639 204.175 84.2077 203.048 85.1096C202.968 85.1746 202.903 85.2564 202.858 85.349C202.814 85.4417 202.791 85.543 202.791 85.6455C202.791 85.748 202.814 85.8493 202.858 85.942C202.903 86.0347 202.968 86.1164 203.048 86.1814C203.326 86.4298 203.923 86.4036 204.294 86.4297C205.311 86.3382 206.301 86.0542 207.21 85.5932C207.799 85.3574 208.366 85.0732 208.907 84.7436C209.289 84.5506 209.653 84.323 209.994 84.0639C209.556 84.8482 203.618 88.7564 203.618 88.7564L205.527 89.5406Z" fill="#FFCEA9"/>
<path d="M163.018 132.857C163.018 132.857 165.988 121.878 159.148 114.767C157.65 114.048 139.518 120.545 139.518 120.545C139.518 120.545 130.372 125.708 134.64 132.478C138.908 139.249 163.018 132.857 163.018 132.857Z" fill="#EDEDED"/>
<path d="M103.172 339.9C106.645 342.684 111.774 340.135 112.026 340.397C116.106 344.126 120.385 347.638 124.844 350.919C127.018 352.605 130.384 354.84 129.775 358.081C128.688 363.846 119.316 362.068 115.777 360.304C112.238 358.539 109.362 355.611 106.009 353.572C103.623 352.108 101.277 351.35 100.905 348.344C100.68 346.579 102.509 339.835 103.172 339.9Z" fill="#38226D"/>
<path d="M100.946 347.142C101.41 349.991 103.73 350.776 106.089 352.213C109.496 354.305 112.491 357.311 116.017 359.076C119.291 360.696 127.443 362.317 129.736 358.2C128.49 363.768 119.278 362.016 115.779 360.265C112.279 358.514 109.363 355.573 106.01 353.534C103.624 352.07 101.278 351.311 100.907 348.305C100.879 347.917 100.892 347.527 100.946 347.142Z" fill="#9C73FF"/>
<path d="M133.314 328.841C136.787 331.638 142.871 328.593 143.136 328.841C146.741 332.46 150.561 335.864 154.575 339.036C156.749 340.723 160.129 342.958 159.506 346.199C158.419 351.977 149.048 350.199 145.509 348.434C141.97 346.67 139.093 343.742 135.74 341.69C133.354 340.226 131.008 339.468 130.637 336.462C130.345 334.697 132.704 328.841 133.314 328.841Z" fill="#38226D"/>
<path d="M130.743 335.704C131.207 338.553 133.526 339.337 135.886 340.788C139.292 342.866 142.288 345.873 145.814 347.637C149.087 349.271 157.226 350.892 159.519 346.762C158.273 352.33 149.074 350.591 145.575 348.84C142.076 347.088 139.146 344.147 135.806 342.095C133.42 340.631 131.074 339.873 130.703 336.867C130.675 336.479 130.689 336.089 130.743 335.704Z" fill="#9C73FF"/>
<path d="M102.974 213.452C103.133 218.681 104.777 241.123 105.506 253.031C106.235 264.939 106.407 279.539 106.407 279.539C106.407 279.539 104.313 288.218 102.974 298.413C101.635 308.608 102.974 340.789 102.974 340.789C104.301 341.629 105.844 342.075 107.421 342.075C108.998 342.075 110.541 341.629 111.868 340.789C111.868 340.789 117.422 315.039 120.007 303.432C122.591 291.825 123.029 285.133 124.354 277.944C125.971 269.239 129.457 228.628 129.457 228.628L130.783 228.706L134.507 274.546C133.356 277.941 132.57 281.445 132.161 285.002C131.154 292.479 133.222 330.044 133.222 330.044C134.708 330.854 136.392 331.245 138.089 331.176C139.786 331.107 141.431 330.58 142.845 329.652C142.845 329.652 152.123 279.905 152.123 272.324C152.123 267.317 151.248 201.283 151.248 201.283L102.974 213.452Z" fill="#8C50FF"/>
<path d="M115.566 113.317C115.566 113.317 116.149 124.623 115.897 125.616C115.646 126.61 110.595 129.93 109.177 131.119C107.759 132.309 117.13 141.419 121.663 143.484C126.196 145.549 140.671 140.112 140.922 133.119C141.174 126.126 138.444 120.244 136.23 119.931C134.017 119.617 115.566 113.317 115.566 113.317Z" fill="#FFCEA9"/>
<path d="M114.28 127.552C114.28 127.552 122.591 139.773 134.163 140.923C137.821 137.368 138.139 124.715 133.089 120.677C133.089 120.677 137.741 116.978 140.923 117.696C144.343 119.737 146.888 122.94 148.08 126.702C151.037 135.1 152.425 143.958 152.176 152.844C151.977 164.83 152.176 201.441 152.176 201.441C152.176 201.441 150.546 209.179 140.061 214.944C129.576 220.708 121.783 221.27 114.665 219.636C108.793 218.329 103.942 216.251 101.927 212.042C102.444 203.65 106.248 181.731 104.83 171.169C103.411 160.608 101.145 152.713 100.562 144.178C99.9783 135.643 101.701 135.813 106.049 132.767C108.664 130.838 111.414 129.095 114.28 127.552Z" fill="#F4F4F4"/>
<path d="M121.253 222.536C119.384 221.451 118.072 219.922 115.315 218.615C112.902 217.477 111.206 216.981 109.536 215.151C107.865 213.321 105.771 205.857 103.968 198.825C102.239 190.916 101.894 182.773 102.948 174.749C104.565 165.168 109.005 151.901 110.278 146.411C111.55 140.921 109.88 138.569 107.401 136.373C104.485 133.759 100.164 134.543 97.3676 142.176C93.7079 152.766 91.2626 163.727 90.0774 174.853C89.4218 183.11 90.1518 191.417 92.238 199.44C94.1069 206.89 96.8374 212.354 100.35 219.203C101.304 221.072 101.556 222.68 103.001 226.457C104.362 230.249 106.636 233.658 109.628 236.391C112.279 238.522 113.605 238.888 114.214 238.548C114.824 238.208 114.943 237.241 113.857 236.143C112.004 234.505 110.464 232.552 109.31 230.378C109.31 230.378 111.564 232.993 113.048 234.3C114.371 235.553 115.855 236.629 117.462 237.502C119.039 238.312 121.359 237.11 120.298 235.96C119.238 234.809 118.085 234.208 115.924 232.038C114.767 230.924 113.748 229.678 112.889 228.326C114.421 229.649 116.056 230.851 117.78 231.921C119.127 232.861 120.718 233.401 122.366 233.476C123.214 233.476 124.328 232.391 122.817 231.15C121.306 229.908 119.238 229.176 116.985 226.64C115.341 224.784 114.44 223.255 114.943 223.255C115.447 223.255 116.269 224.418 118.35 225.189C120.431 225.96 122.631 225.542 122.963 224.431C123.294 223.32 123.108 223.608 121.253 222.536Z" fill="#FFCEA9"/>
<path d="M141.492 96.483C140.167 87.7124 133.711 81.0724 124.539 81.5822C122.216 81.7025 119.94 82.2737 117.841 83.263C115.742 84.2524 113.862 85.6404 112.308 87.3476C110.754 89.0548 109.557 91.0477 108.785 93.2119C108.014 95.3762 107.683 97.6693 107.812 99.9598C107.961 102.622 108.735 105.213 110.071 107.531C111.407 109.849 113.27 111.83 115.513 113.318C115.831 114.649 116.307 115.939 116.931 117.161C120.165 120.899 129.987 123.213 132.837 122.808C136.455 122.298 138.417 120.808 140.14 116.913C143.189 110.024 142.274 100.822 141.492 96.483Z" fill="#FFCEA9"/>
<path d="M115.566 113.316L116.401 105.67C116.401 105.67 110.066 89.488 125.044 92.5988C134.932 94.651 137.41 95.5398 140.419 89.0043C143.428 82.4689 132.811 76.574 120.219 78.2078C115.878 78.6559 111.867 80.6957 108.98 83.9228C106.093 87.1499 104.541 91.3288 104.631 95.6313C104.962 100.441 106.261 110.179 115.566 113.316Z" fill="#3A4151"/>
<path d="M89.9311 157.235C89.9311 157.235 98.1093 165.248 107.772 162.934C109.098 162.019 112.478 143.328 112.478 143.328C112.478 143.328 112.478 132.949 104.405 133.211C96.3331 133.472 89.9311 157.235 89.9311 157.235Z" fill="#EDEDED"/>
<path d="M90.8187 110.741C88.9232 107.761 74.5285 105.787 69.7833 117.825C67.9939 122.387 68.2722 134.046 66.7612 141.353C65.2501 148.66 61.7243 152.842 60.4519 158.789C59.1794 164.737 61.2472 174.697 75.7745 176.461C90.3017 178.226 101.489 173.181 104.935 168.619C108.381 164.057 108.448 154.345 104.935 149.13C101.423 143.915 98.6655 139.68 98.7451 132.883L90.8187 110.741Z" fill="#3A2C6D"/>
<path d="M108.064 161.105C108.064 161.105 111.484 184.854 105.029 201.742C98.5734 218.63 100.363 197.389 100.363 197.389L101.927 192.344C101.927 192.344 103.252 172.934 102.682 168.163C102.112 163.392 102.272 159.314 101.927 158.935C101.582 158.556 103.252 157.798 103.889 157.693C104.525 157.589 108.064 161.105 108.064 161.105Z" fill="#FFCEA9"/>
<path d="M81.3023 108.663C81.3023 108.663 92.158 105.591 98.7191 111.369C100.891 113.336 102.473 115.854 103.291 118.648C104.11 121.442 104.133 124.404 103.358 127.21C102.483 130.583 100.707 135.197 98.0564 135.458C95.4054 135.72 81.3023 108.663 81.3023 108.663Z" fill="#3A2C6D"/>
<path d="M77.1537 137.836C77.1537 137.836 77.8694 149.757 77.6441 150.633C77.4188 151.509 72.8989 152.358 71.6397 153.391C70.3804 154.423 78.2671 166.527 82.2435 168.318C86.22 170.108 98.5867 165.534 99.4748 159.482C100.27 153.901 95.949 149.561 94.2789 148.045C93.1463 147.946 92.0084 147.92 90.8724 147.966L90.5145 142.189C85.0138 140.49 77.1537 137.836 77.1537 137.836Z" fill="#FFCEA9"/>
<path d="M68.6571 175.822C70.3007 180.109 71.6394 183.533 72.8059 186.278C73.7204 188.461 74.529 190.2 75.2713 191.677C77.2854 192.468 79.3714 193.067 81.501 193.467C86.4848 194.435 93.6955 194.853 100.283 191.507C100.8 191.232 101.304 190.958 101.821 190.644C101.821 190.644 101.821 190.566 101.821 190.422C101.887 189.703 102.112 187.363 102.298 184.71C102.483 182.409 102.629 179.887 102.669 178.031C113.578 168.62 104.246 157.026 94.9679 147.968C93.8612 147.87 92.7477 147.87 91.641 147.968C91.641 147.968 99.912 157.601 94.1594 163.078C81.8589 159.418 79.4068 153.928 75.4701 151.784C72.0901 152.307 68.2064 154.098 67.663 155.928C67.0665 158.058 65.7278 168.149 68.6571 175.822Z" fill="#F4F4F4"/>
<path d="M99.7396 123.067C98.5201 115.408 92.9133 109.617 84.8941 110.088C81.6726 110.262 78.588 111.429 76.0762 113.426C73.5644 115.423 71.7527 118.148 70.8969 121.215C70.0412 124.283 70.1848 127.538 71.3075 130.521C72.4302 133.504 74.4752 136.063 77.1533 137.837C77.4331 138.995 77.8467 140.118 78.386 141.183C81.2358 144.438 88.7645 146.503 91.2565 146.542C93.4037 146.542 95.2329 144.582 97.2742 141.314C101.463 134.439 100.402 126.845 99.7396 123.067Z" fill="#FFCEA9"/>
<path d="M82.4159 110.232C76.7958 111.304 72.1832 112.846 70.6589 118.31C69.6117 122.048 68.2465 129.198 69.5455 132.204L70.354 134.374L77.1537 137.838C77.1537 137.838 80.3349 135.224 79.3408 127.577C79.3805 126.546 79.711 125.545 80.2951 124.689C80.7192 123.966 81.0362 123.187 81.2362 122.375C82.0377 120.304 83.6189 118.619 85.6501 117.67C90.7134 114.859 98.1229 117.29 99.1567 118.297C97.7329 115.259 95.2902 112.798 92.2407 111.329C89.1912 109.86 85.7212 109.472 82.4159 110.232Z" fill="#3A2C6D"/>
<path d="M67.2921 207.479C65.9666 199.715 63.6735 194.682 64.7737 190.487C67.21 181.844 70.4124 173.428 74.3437 165.338C76.8223 160.502 76.0668 157.156 73.4953 155.248C70.5925 153.117 67.8223 154.045 65.2243 159.391C61.9371 166.123 58.239 173.024 56.4364 183.036C55.5616 187.899 55.1109 192.617 56.6882 202.643C57.8016 209.623 60.0417 213.544 62.7059 220.092C63.4349 221.765 68.3657 214.054 67.2921 207.479Z" fill="#FFCEA9"/>
<path d="M72.2094 352.213C75.0592 354.487 79.4731 352.906 79.6852 353.115C82.5747 355.977 86.8958 358.474 90.1035 360.957C91.8796 362.343 94.6366 364.173 94.0799 366.813C93.1918 371.545 85.5173 370.094 82.6277 368.643C79.7382 367.192 77.3258 364.8 74.6748 363.127C72.7264 361.938 70.8044 361.31 70.4996 358.879C70.3273 357.415 71.7058 352.148 72.2094 352.213Z" fill="#2B303F"/>
<path d="M70.5532 357.899C70.9243 360.226 72.8198 360.866 74.755 362.056C77.5385 363.768 79.9906 366.225 82.8802 367.663C85.5311 368.97 92.2248 370.277 94.0938 366.957C93.0731 371.506 85.5444 370.081 82.6813 368.643C79.8183 367.206 77.3794 364.801 74.7284 363.128C72.78 361.938 70.858 361.311 70.5532 358.879C70.5163 358.554 70.5163 358.225 70.5532 357.899Z" fill="#3A4151"/>
<path d="M92.1578 348.277C94.8088 350.369 98.6924 349.192 98.878 349.388C101.529 352.002 105.505 354.251 108.408 356.538C110.025 357.845 112.557 359.479 112.093 361.897C111.285 366.224 104.259 364.903 101.609 363.57C98.9576 362.237 96.797 360.054 94.2786 358.525C92.5024 357.427 90.7396 356.865 90.4612 354.604C90.2889 353.283 91.6939 348.225 92.1578 348.277Z" fill="#2B303F"/>
<path d="M90.488 353.677C90.8326 355.82 92.569 356.408 94.3452 357.493C96.8901 359.049 99.1434 361.297 101.794 362.63C104.233 363.846 110.344 365.061 112.067 361.977C111.126 366.146 104.233 364.839 101.609 363.519C98.9844 362.199 96.7973 360.003 94.2789 358.474C92.5027 357.376 90.7399 356.814 90.4615 354.552C90.4409 354.26 90.4498 353.967 90.488 353.677Z" fill="#3A4151"/>
<path d="M107.48 217.869C106.234 208.197 102.616 194.158 102.616 194.158C99.1939 195.715 95.4983 196.603 91.7337 196.773C85.4111 197.086 75.2845 195.191 75.2845 195.191C73.5166 198.237 71.583 201.187 69.4921 204.027C66.6688 207.948 61.1681 216.379 62.4935 231.188C63.3684 240.874 68.8691 281.968 68.8691 281.968C66.7327 288.883 65.5948 296.06 65.4892 303.287C65.4892 309.273 67.146 319.43 68.9354 328.827L72.2093 352.159C72.2093 352.159 76.5834 355.27 79.6851 353.061L79.3007 330.239C79.6718 324.645 80.2418 316.41 80.6262 311.143C81.2094 302.568 82.7734 288.922 83.2771 285.55C83.7808 282.178 84.8279 276.217 85.3581 269.551C85.8883 262.885 88.42 229.032 88.42 229.032L88.7779 235.371C88.7779 235.371 89.1093 245.658 90.607 258.349C92.1048 271.041 92.635 276.649 92.635 276.649C91.2219 279.209 90.2329 281.976 89.7057 284.844C89.4406 287.589 86.2595 309.287 88.1549 320.331L91.9855 348.447C92.9567 349.11 94.074 349.535 95.245 349.687C96.4159 349.839 97.6068 349.714 98.719 349.323L101.012 321.037C102.55 310.28 105.81 287.458 106.314 284.504C107.407 278.524 108.058 272.474 108.262 266.401C109.005 254.18 108.74 227.528 107.48 217.869Z" fill="#FFCEA9"/>
<path d="M67.2924 274.781L64.8005 289.525C64.8005 289.525 90.0642 305.51 106.964 289.525C106.964 289.525 112.823 245.371 109.708 224.994C107.984 213.499 105.424 202.142 102.047 191.009C101.94 190.683 101.861 190.474 101.848 190.408L75.338 191.715L74.8079 192.774L66.855 208.459C66.855 208.459 53.958 226.98 67.2924 274.781Z" fill="#DD7A7A"/>
<path d="M60.0948 168.712C60.0948 168.712 65.9535 174.463 72.9122 173.757L76.2392 162.555C76.2392 162.555 78.413 156.673 73.3497 154.124C68.2863 151.576 63.0374 157.222 60.0948 168.712Z" fill="#EDEDED"/>
<path d="M95.0077 148.007C95.0077 148.007 101.715 145.994 108.846 160.647L106.195 162.228C106.195 162.228 99.1564 151.772 95.0077 148.007Z" fill="#EDEDED"/>
<path d="M75.2718 191.676L74.7416 192.735C76.9769 193.12 79.2347 193.364 81.5015 193.466C82.3896 193.466 83.2777 193.466 84.1525 193.466C89.5964 193.438 95.017 192.762 100.297 191.454L102.06 190.97C101.954 190.643 101.874 190.434 101.861 190.369C101.927 189.65 102.153 187.31 102.338 184.657C98.5473 185.885 85.8624 189.349 72.8196 186.225C73.721 188.46 74.5295 190.212 75.2718 191.676Z" fill="#C1C4D3"/>
</svg>
