<svg width="506" height="401" viewBox="0 0 506 401" fill="none" xmlns="http://www.w3.org/2000/svg">
<path d="M356.548 76.7556C425.418 120.559 554.4 123.303 487.135 239.944C429.326 340.186 326.166 367.352 259.147 356.913C196.537 356.913 105.38 334.144 52.2807 263.081C7.61115 203.299 -14.0246 147.467 9.83511 76.7557C53.1267 -51.5444 242.298 4.08792 356.548 76.7556Z" fill="#FFEACE"/>
<path opacity="0.4" d="M152.336 358.253C172.868 349.631 185.476 333.03 180.498 321.175C175.519 309.32 154.839 306.699 134.307 315.321C113.775 323.944 101.167 340.544 106.145 352.399C111.124 364.255 131.804 366.875 152.336 358.253Z" fill="#D6D8E5"/>
<path opacity="0.4" d="M100.205 323.489C120.737 314.867 133.345 298.266 128.367 286.411C123.388 274.556 102.708 271.935 82.1761 280.557C61.6443 289.179 49.036 305.78 54.0146 317.635C58.9933 329.49 79.6736 332.111 100.205 323.489Z" fill="#D6D8E5"/>
<path d="M67.3637 296.193C70.7791 298.983 75.8333 296.443 76.1211 296.693C80.1455 300.419 84.3632 303.931 88.7566 307.215C90.8834 308.891 94.2112 311.13 93.6107 314.358C92.5348 320.125 83.3021 318.349 79.8492 316.585C76.3963 314.821 73.5189 311.906 70.2161 309.854C67.8642 308.391 65.5622 307.64 65.212 304.662C64.9117 302.873 66.7507 296.13 67.3637 296.193Z" fill="#C1C4D3"/>
<path d="M65.1746 303.473C65.625 306.313 67.9144 307.101 70.2414 308.477C73.5942 310.566 76.4966 313.569 80.0246 315.32C83.2397 316.959 91.284 318.573 93.5233 314.457C92.2723 320.011 83.2272 318.273 79.7618 316.521C76.2964 314.77 73.4315 311.842 70.1288 309.79C67.7768 308.327 65.4749 307.576 65.1246 304.599C65.0997 304.223 65.1164 303.845 65.1746 303.473Z" fill="#A7ABB7"/>
<path d="M97.0263 285.159C100.442 287.949 106.434 284.896 106.684 285.159C110.238 288.767 113.998 292.167 117.944 295.342C120.083 297.019 123.411 299.271 122.798 302.486C121.722 308.253 112.489 306.489 109.036 304.725C105.583 302.961 102.706 300.034 99.4158 297.982C97.0638 296.531 94.7494 295.768 94.4116 292.803C94.1989 291.001 96.4508 285.084 97.0263 285.159Z" fill="#C1C4D3"/>
<path d="M94.5237 292.014C94.9741 294.854 97.2635 295.642 99.5905 297.081C102.943 299.17 105.846 302.172 109.374 303.936C112.589 305.563 120.633 307.177 122.872 303.061C121.621 308.615 112.576 306.876 109.111 305.125C105.646 303.373 102.781 300.446 99.4904 298.394C97.1384 296.931 94.824 296.18 94.4862 293.202C94.4587 292.806 94.4713 292.408 94.5237 292.014V292.014Z" fill="#A7ABB7"/>
<path d="M119.92 96.1125C119.92 96.1125 119.82 101.692 120.496 115.491C120.743 125.819 120.288 136.151 119.132 146.417C118.113 154.538 115.899 162.463 112.564 169.937C110.062 158.114 112.952 156.05 112.952 156.05L111.563 130.954C111.563 130.954 112.965 106.734 112.402 98.1267C112.039 92.6596 119.92 96.1125 119.92 96.1125Z" fill="#FFCEA9"/>
<path d="M67.2509 169.812C67.4136 174.992 69.0274 197.473 69.753 209.371C70.4786 221.268 70.6413 235.843 70.6413 235.843C70.6413 235.843 68.5896 244.512 67.2635 254.708C65.9373 264.904 67.2635 297.044 67.2635 297.044C68.5705 297.881 70.09 298.326 71.6421 298.326C73.1942 298.326 74.7137 297.881 76.0208 297.044C76.0208 297.044 81.5003 271.31 84.04 259.713C86.5796 248.115 87.0175 241.435 88.2685 234.254C89.8573 225.559 93.2727 184.988 93.2727 184.988L94.6488 185.063L98.3019 230.863C97.1768 234.24 96.4053 237.724 96 241.26C94.9991 248.766 97.0508 286.297 97.0508 286.297C98.5121 287.111 100.17 287.505 101.841 287.437C103.512 287.368 105.131 286.84 106.521 285.91C106.521 285.91 115.792 236.155 115.792 228.587C115.792 223.582 114.941 157.615 114.941 157.615L67.2509 169.812Z" fill="#916F5D"/>
<path d="M104.632 89.5568C104.415 91.5915 103.409 93.4599 101.83 94.7611C99.7837 96.5988 97.4002 98.0221 94.8118 98.9522C91.2213 100.316 87.5682 100.779 85.6541 99.9155C81.1629 97.8513 71.8926 88.7436 73.3688 87.5676C73.9944 87.0547 75.2454 86.1665 76.4965 85.2407C76.7467 85.028 77.0219 84.8278 77.2721 84.6402C78.1763 83.9994 79.0144 83.2702 79.7742 82.4634C79.8842 82.3508 79.9657 82.2135 80.0119 82.063C80.2496 81.0747 79.6866 69.7903 79.6866 69.7903C79.6866 69.7903 92.6725 74.2941 98.0019 75.8704L98.5774 76.033C98.7251 76.0831 98.8755 76.1248 99.0278 76.1581V76.1581C99.3567 76.2559 99.6909 76.3352 100.029 76.3958C102.205 76.7086 104.883 82.5635 104.632 89.5568Z" fill="#FFCEA9"/>
<path d="M115.792 109.287C115.592 121.259 115.792 157.827 115.792 157.827C115.792 157.827 114.191 165.571 103.857 171.326C93.5233 177.081 85.8544 177.644 78.836 176.017C73.0562 174.666 68.2772 172.627 66.3256 168.436C66.8385 160.041 70.5917 138.148 69.178 127.589C67.7643 117.03 65.5499 109.161 64.9745 100.629C64.399 92.0971 66.1004 92.2723 70.379 89.2322C73.1813 87.2306 75.1955 85.9295 76.4841 85.1413C76.8218 84.9412 77.0971 84.766 77.3348 84.6409C78.1104 84.1905 78.4607 84.0154 78.4607 84.0154C78.4607 84.0154 86.6425 96.2256 98.0646 97.3766C101.668 93.8236 102.005 81.188 97.0137 77.1471C97.0137 77.1471 97.6643 76.6467 98.6151 76.0337L98.8278 75.8961C100.442 74.9078 102.844 73.7318 104.733 74.1696C108.452 76.1774 111.298 79.4874 112.727 83.4649C114.766 89.8953 115.942 97.314 115.792 109.287Z" fill="#EDEDED"/>
<path d="M73.8069 174.728C72.118 172.827 69.1781 162.218 67.5517 155.6C65.9323 148.096 65.6065 140.37 66.5884 132.756C68.1022 123.661 72.2556 111.075 73.4566 105.858C74.6577 100.641 73.0813 98.4396 70.7669 96.3253C68.0396 93.8232 63.9987 94.5989 61.384 101.842C57.9442 111.871 55.6322 122.252 54.4908 132.793C53.8834 140.638 54.5723 148.529 56.53 156.15C58.2815 163.219 60.8336 168.398 64.1238 174.916C65.0121 176.692 67.0513 181.634 68.3649 185.225C69.6785 188.815 75.3707 176.467 73.8069 174.728Z" fill="#FFCEA9"/>
<path d="M101.83 94.7611C101.394 96.2992 100.596 97.7106 99.5032 98.877L98.7901 99.5901L97.7892 99.49C96.7843 99.388 95.7889 99.2082 94.8118 98.9521C85.3163 96.45 78.2354 87.6051 76.4964 85.1906C76.4637 85.1638 76.438 85.1294 76.4214 85.0905C76.7592 84.8903 77.0344 84.7152 77.2721 84.5901C78.1763 83.9493 79.0144 83.2201 79.7742 82.4133C80.9001 83.952 88.1187 93.435 97.1137 95.0363C98.2978 92.4894 98.802 89.6792 98.5774 86.8795C98.3897 83.1264 97.3264 80.0988 95.6375 78.7477L96.9761 77.0963L98.0019 75.8453L98.3147 75.47L98.7901 75.8703C98.8787 75.9489 98.9584 76.037 99.0278 76.133V76.133C101.23 78.3974 102.606 82.1756 102.781 86.6919C102.939 89.4165 102.617 92.1478 101.83 94.7611V94.7611Z" fill="#C1C4D3"/>
<path d="M105.195 52.964C103.844 44.2067 97.5391 37.5762 88.5065 38.0766C84.8719 38.2626 81.3877 39.586 78.5459 41.8596C75.7042 44.1332 73.6487 47.2422 72.6697 50.7474C71.6907 54.2526 71.8378 57.9768 73.0902 61.3939C74.3426 64.811 76.6369 67.7482 79.6491 69.7906C79.9702 71.1155 80.4403 72.3997 81.0503 73.6188C84.253 77.3719 93.9111 79.6614 96.6884 79.261C100.254 78.7606 102.18 77.2719 103.882 73.3686C106.872 66.5004 105.934 57.3052 105.195 52.964Z" fill="#FFCEA9"/>
<path d="M79.649 69.7907L80.4873 62.1468C80.4873 62.1468 74.232 45.9833 88.9944 49.0859C98.7275 51.1376 101.18 52.0258 104.145 45.4828C107.11 38.9399 96.6383 33.0725 84.2404 34.7113C79.9658 35.159 76.0155 37.1964 73.1724 40.4195C70.3292 43.6427 68.8008 47.8164 68.8901 52.1134C69.2153 56.9174 70.4914 66.6505 79.649 69.7907Z" fill="#3A2C6D"/>
<path d="M76.6091 99.7028C76.6091 99.7028 74.7826 110.149 73.2813 115.816C73.1035 117.068 72.6782 118.271 72.0303 119.357C62.5098 121.659 54.5156 113.665 54.5156 113.665C54.5156 113.665 54.916 112.163 55.6416 109.911C57.7808 103.206 62.8101 89.8196 68.7775 89.6194C76.6216 89.3442 76.6091 99.7028 76.6091 99.7028Z" fill="#D5D7E2"/>
<path d="M122.723 101.342C120.971 103.844 115.754 103.143 115.754 103.143C115.754 103.143 115.754 102.205 115.604 100.704C115.267 96.3127 114.228 87.0675 111.413 82.3135C109.569 79.2887 107.298 76.5456 104.67 74.1692C113.89 75.1825 120.308 91.2585 122.185 98.5271C122.434 99.4507 122.613 100.392 122.723 101.342V101.342Z" fill="#D5D7E2"/>
<path d="M172.602 133.944C176.668 135.12 178.995 139.611 182.61 149.232C186.226 158.852 187.377 172.651 186.901 176.367C185.75 185.437 182.01 192.481 172.927 199.837L168.548 191.93C168.548 191.93 177.431 184.086 178.344 175.016C178.857 169.924 172.877 152.772 172.877 152.309C172.877 151.847 172.602 133.944 172.602 133.944Z" fill="#FFCEA9"/>
<path d="M137.059 342.969C135.689 343.393 134.242 343.513 132.821 343.32C131.399 343.128 130.036 342.628 128.828 341.855C126.613 341.918 113.577 336.764 111.951 341.092C110.512 344.845 115.704 348.398 118.519 349.074C124.599 350.55 129.103 353.59 131.542 354.078C133.369 354.466 135.721 354.716 137.172 353.278C138.936 351.589 138.786 345.233 137.059 342.969Z" fill="#38226D"/>
<path d="M131.555 353.052C129.053 352.54 124.612 349.5 118.532 348.048C116.192 347.485 112.164 344.933 111.764 341.881C111.213 345.371 115.93 348.474 118.532 349.099C124.612 350.575 129.116 353.615 131.555 354.103C133.382 354.491 135.734 354.741 137.185 353.303C137.567 352.892 137.842 352.394 137.986 351.851C137.081 352.538 136.029 353.003 134.912 353.212C133.796 353.42 132.647 353.366 131.555 353.052V353.052Z" fill="#9C73FF"/>
<path d="M170.162 325.792C168.97 326.198 167.699 326.313 166.453 326.125C165.208 325.938 164.026 325.455 163.006 324.716C160.867 324.779 147.556 319.812 145.98 323.978C144.591 327.631 149.62 331.009 152.297 331.659C158.165 333.086 162.493 336.001 164.808 336.501C166.559 336.864 168.836 337.114 170.225 335.738C171.939 334.061 171.801 327.956 170.162 325.792Z" fill="#38226D"/>
<path d="M164.845 335.474C162.493 334.974 158.165 332.059 152.335 330.633C150.095 330.095 146.217 327.63 145.829 324.703C145.304 328.068 149.833 331.046 152.335 331.646C158.202 333.072 162.531 335.987 164.845 336.488C166.597 336.851 168.874 337.101 170.262 335.725C170.622 335.321 170.887 334.842 171.038 334.323C170.165 334.981 169.151 335.427 168.077 335.627C167.002 335.827 165.896 335.774 164.845 335.474V335.474Z" fill="#9C73FF"/>
<path d="M174.591 292.727C174.613 287.727 173.767 282.762 172.089 278.052C172.089 278.052 173.79 257.96 175.066 244.774C176.955 225.321 179.945 223.394 179.107 211.584C178.319 200.625 172.089 193.507 170.462 186.1L138.711 188.602C138.711 188.602 135.959 197.61 132.381 215.537C128.803 233.465 128.627 254.783 128.928 283.031C129.015 290.3 127.677 296.63 128.114 314.758C128.402 326.956 129.09 341.893 129.09 341.893C133.744 345.871 136.959 342.931 136.959 342.931C136.959 342.931 145.091 306.826 146.292 298.532C147.543 289.95 145.191 284.77 145.191 284.77C145.191 284.77 147.568 273.423 149.332 264.503C151.497 253.619 156.838 230.1 156.838 230.1C156.838 230.1 155.925 266.23 157.502 273.336C159.078 280.442 159.366 286.659 160.704 296.343C162.331 308.052 163.069 325.179 163.069 325.179C167.91 328.257 170.05 325.892 170.05 325.892C170.05 325.892 174.591 302.961 174.591 292.727Z" fill="#FFCEA9"/>
<path d="M170.35 186.1C173.678 189.491 179.17 199.862 179.17 215.537C179.17 233.19 176.592 229.612 175.416 249.04L174.165 268.482C174.165 268.482 147.631 281.142 128.715 269.382C127.026 265.717 129.353 224.858 132.656 210.333C135.959 195.808 138.273 188.69 138.273 188.69C138.273 188.69 162.656 195.258 170.35 186.1Z" fill="#C1C4D3"/>
<path d="M170.725 133.757C163.957 133.357 163.306 134.47 162.768 132.081C162.581 131.217 162.205 125.262 162.205 125.262C162.824 124.467 163.388 123.631 163.894 122.76C166.983 120.868 169.401 118.055 170.807 114.717C172.213 111.379 172.537 107.685 171.733 104.153C170.929 100.621 169.038 97.4304 166.326 95.0298C163.613 92.6293 160.216 91.1398 156.613 90.771C147.643 89.8327 141.05 96.138 139.286 104.783C138.335 109.061 137.36 117.794 140.012 124.799C141.513 128.765 142.902 131.53 146.48 131.392C147.671 131.281 148.851 131.072 150.008 130.767C150.211 132.427 150.278 134.1 150.208 135.771C150.12 137.498 150.408 138.373 147.018 140.45C143.627 142.527 152.147 146.83 157.702 146.405C163.256 145.98 169.511 142.652 171.225 139.036C173.127 134.97 173.903 133.957 170.725 133.757Z" fill="#FFCEA9"/>
<path d="M175.692 163.732C175.692 163.732 183.348 162.005 186.851 158.615C186.851 158.615 182.297 144.278 179.345 140.675C176.392 137.072 173.628 160.204 173.628 160.204L175.692 163.732Z" fill="#EDEDED"/>
<path d="M164.007 133.619C165.258 135.17 165.396 137.134 160.567 138.348C157.064 139.351 153.316 139.062 150.008 137.534C146.206 139.144 142.551 141.082 139.086 143.327C134.92 156.863 138.298 158.615 136.584 168.348C137.247 173.239 138.06 185.862 138.261 188.69C147.468 195.12 166.159 192.918 170.35 186.113C170.427 183.833 170.64 181.561 170.988 179.307C175.392 163.043 178.82 158.702 177.594 146.417C176.893 139.398 176.342 135.858 172.589 133.981C170.35 133.243 165.371 133.531 164.007 133.619Z" fill="#F4F4F4"/>
<path d="M138.811 163.368C136.419 167.802 135.028 172.707 134.736 177.737C134.444 182.766 135.259 187.799 137.122 192.48L133.932 204.753C133.932 204.753 121.659 185.987 125.175 173.477C128.69 160.966 130.492 157.338 130.492 157.338L139.499 156.25L138.811 163.368Z" fill="#FFCEA9"/>
<path d="M142.151 164.882C136.821 164.112 131.891 161.616 128.115 157.776L136.609 145.991C136.609 145.991 141.388 139.949 147.706 143.377C147.706 143.377 152.472 143.877 147.706 153.848C142.94 163.819 142.151 164.882 142.151 164.882Z" fill="#EDEDED"/>
<path d="M137.648 99.6907C138.411 93.9484 144.328 92.81 146.517 93.2229C149.472 91.2011 153.057 90.3127 156.613 90.7208C164.67 91.559 169.95 96.7758 172.389 104.858C173.515 107.885 174.103 112.301 174.766 117.193C177.206 135.158 183.724 149.407 177.618 154.724C171.513 160.041 154.824 163.482 147.856 160.029C140.888 156.576 153.598 125.75 139.774 108.561C136.547 104.582 136.246 101.73 137.648 99.6907Z" fill="#3A4151"/>
<path d="M128.978 341.893L128.653 334.161C131.809 335.572 135.377 335.755 138.661 334.674L136.822 342.931C135.873 343.703 134.663 344.079 133.444 343.982C131.763 343.808 130.189 343.072 128.978 341.893V341.893Z" fill="#F4F6F9"/>
<path d="M162.844 325.116L162.518 317.397C163.815 318.242 165.296 318.76 166.836 318.908C168.376 319.056 169.93 318.83 171.363 318.248L169.962 325.754C169.962 325.754 169.712 326.78 167.335 326.78C165.706 326.685 164.142 326.105 162.844 325.116V325.116Z" fill="#F4F6F9"/>
<path d="M73.2564 115.816C73.0786 117.068 72.6533 118.271 72.0054 119.357C62.4849 121.658 54.4907 113.664 54.4907 113.664C54.4907 113.664 54.891 112.163 55.6167 109.911C61.5716 115.065 67.5266 117.055 73.2564 115.816Z" fill="#C1C4D3"/>
<path d="M122.723 101.342C120.971 103.845 115.754 103.144 115.754 103.144C115.754 103.144 115.754 102.206 115.604 100.704C119.62 100.855 121.284 99.7286 122.172 98.5276C122.425 99.4509 122.609 100.392 122.723 101.342V101.342Z" fill="#C1C4D3"/>
<path opacity="0.4" d="M376.789 383.613C398.445 374.519 411.704 356.916 406.404 344.297C401.105 331.677 379.253 328.819 357.597 337.914C335.942 347.008 322.682 364.611 327.982 377.23C333.282 389.85 355.133 392.707 376.789 383.613Z" fill="#D6D8E5"/>
<path opacity="0.4" d="M319.363 372.808C324.226 360.013 310.369 342.877 288.414 334.532C266.458 326.188 244.718 329.795 239.855 342.589C234.992 355.384 248.849 372.52 270.805 380.865C292.76 389.209 314.501 385.602 319.363 372.808Z" fill="#D6D8E5"/>
<path opacity="0.4" d="M383.533 317.08C388.395 304.286 374.539 287.15 352.583 278.805C330.628 270.461 308.887 274.068 304.025 286.862C299.162 299.656 313.018 316.793 334.974 325.137C356.93 333.482 378.67 329.875 383.533 317.08Z" fill="#D6D8E5"/>
<path d="M370.858 295.992C367.441 298.786 362.398 296.233 362.144 296.487C358.126 300.215 353.911 303.726 349.518 307.005C347.384 308.682 344.068 310.917 344.666 314.144C345.745 319.911 354.967 318.132 358.448 316.367C361.928 314.601 364.799 311.692 368.064 309.647C370.414 308.186 372.726 307.424 373.145 304.464C373.31 302.673 371.468 295.928 370.858 295.992Z" fill="#2B303F"/>
<path d="M373.043 303.258C372.598 306.103 370.312 306.891 367.962 308.339C364.608 310.409 361.611 313.42 358.181 315.173C354.967 316.799 346.952 318.425 344.691 314.309C345.961 319.86 354.98 318.12 358.422 316.367C361.865 314.614 364.773 311.692 368.038 309.647C370.388 308.186 372.7 307.424 373.119 304.465C373.141 304.061 373.116 303.656 373.043 303.258V303.258Z" fill="#3A4151"/>
<path d="M341.185 284.965C337.768 287.747 331.772 284.711 331.518 284.965C327.961 288.567 324.199 291.96 320.251 295.127C318.117 296.804 314.789 299.052 315.398 302.266C316.465 308.033 325.7 306.267 329.181 304.502C332.661 302.736 335.532 299.814 338.797 297.769C341.147 296.308 343.459 295.559 343.814 292.587C344.043 290.808 341.782 284.889 341.185 284.965Z" fill="#2B303F"/>
<path d="M343.712 291.812C343.268 294.657 340.981 295.432 338.631 296.893C335.278 298.976 332.28 301.974 328.85 303.74C325.637 305.366 317.621 306.979 315.36 302.863C316.63 308.427 325.649 306.674 329.092 304.934C332.534 303.194 335.443 300.247 338.708 298.201C341.058 296.741 343.369 295.991 343.789 293.019C343.811 292.615 343.786 292.21 343.712 291.812V291.812Z" fill="#3A4151"/>
<path d="M318.333 96.0512C318.333 96.0512 318.435 101.628 317.761 115.423C317.523 125.74 317.985 136.061 319.146 146.316C320.164 154.428 322.373 162.347 325.701 169.815C328.152 158.015 325.307 155.944 325.307 155.944L326.704 130.869C326.704 130.869 325.307 106.658 325.866 98.0582C326.209 92.5961 318.333 96.0512 318.333 96.0512Z" fill="#FFCEA9"/>
<path d="M370.972 169.702C370.807 174.872 369.194 197.33 368.432 209.233C367.67 221.135 367.543 235.692 367.543 235.692C367.543 235.692 369.6 244.343 370.921 254.53C372.243 264.718 370.921 296.843 370.921 296.843C369.616 297.682 368.097 298.128 366.545 298.128C364.994 298.128 363.475 297.682 362.169 296.843C362.169 296.843 356.694 271.12 354.154 259.535C351.613 247.95 351.182 241.282 349.86 234.13C348.273 225.441 344.779 184.907 344.779 184.907L343.408 184.983L339.749 230.713C340.879 234.087 341.654 237.569 342.061 241.104C343.052 248.56 341.007 286.071 341.007 286.071C339.546 286.882 337.889 287.275 336.22 287.205C334.55 287.136 332.932 286.607 331.543 285.677C331.543 285.677 322.397 236.01 322.397 228.439C322.397 223.447 323.248 157.52 323.248 157.52L370.972 169.702Z" fill="#8C50FF"/>
<path d="M352.579 99.8624C350.687 100.726 347.054 100.269 343.472 98.897C340.844 97.9651 338.427 96.5232 336.358 94.6543C334.809 93.3564 333.825 91.507 333.614 89.497C333.411 83.9333 335.088 79.0808 336.879 77.1881C337.206 76.7581 337.673 76.4568 338.2 76.3371L339.115 76.1338L339.673 75.9687C339.851 75.9687 340.042 75.8544 340.245 75.8163C345.567 74.2284 358.55 69.719 358.55 69.719C358.55 69.719 357.978 81.0116 358.219 82.0024C358.267 82.155 358.349 82.2943 358.461 82.4089C359.233 83.2117 360.084 83.9352 361.001 84.5684C361.268 84.7843 361.56 84.9876 361.84 85.2035C363.11 86.1181 364.278 86.9946 364.875 87.49C366.298 88.6967 357.063 97.8045 352.579 99.8624Z" fill="#FFCEA9"/>
<path d="M373.399 98.6815C373.399 99.2531 373.399 99.8883 373.31 100.574C372.89 106.926 371.557 112.781 370.337 119.628C370.109 120.898 369.893 122.169 369.677 123.439C369.461 124.709 369.27 126.056 369.092 127.402C368.841 129.539 368.747 131.692 368.813 133.842C368.813 138.923 369.397 144.843 370.02 150.521C370.223 152.299 370.426 154.04 370.629 155.716C370.706 156.479 370.795 157.215 370.896 157.939C371.392 162.106 371.823 165.751 371.963 168.216C371.697 168.794 371.365 169.34 370.972 169.842C369.31 171.874 367.109 173.398 364.621 174.237C363.999 174.478 363.351 174.707 362.678 174.91C361.636 175.24 360.544 175.533 359.413 175.787C356.839 176.399 354.194 176.655 351.55 176.549C350.435 176.512 349.323 176.402 348.222 176.218C347.6 176.117 346.952 176.003 346.317 175.863C345.681 175.723 344.652 175.456 343.776 175.202C340.514 174.178 337.371 172.807 334.401 171.112C331.403 169.482 328.719 167.331 326.475 164.761C325.2 163.305 324.132 161.681 323.299 159.934C322.945 159.192 322.665 158.418 322.461 157.622C322.461 157.622 322.664 121.076 322.461 109.11C322.461 106.214 322.461 103.572 322.563 101.159C322.551 100.981 322.551 100.803 322.563 100.625C322.664 98.5672 322.817 96.6618 323.033 94.8834C323.464 90.9522 324.294 87.0749 325.51 83.3113C326.931 79.3365 329.779 76.0317 333.5 74.0384V74.0384C333.86 73.9722 334.227 73.9509 334.592 73.9749C336.347 74.1852 338.023 74.8267 339.47 75.8422C339.555 75.8855 339.636 75.9365 339.711 75.9946C340.588 76.5281 341.172 76.9981 341.286 77.0743C340.695 77.5756 340.181 78.1621 339.762 78.8146C336.434 83.8957 337.044 94.1594 340.232 97.2969C351.652 96.1664 359.794 83.9592 359.794 83.9592C359.794 83.9592 360.15 84.137 360.937 84.5816L361.826 85.1278C363.097 85.9154 365.104 87.1856 367.873 89.1545C368.076 89.307 368.279 89.4467 368.483 89.5737C371.404 91.5934 372.979 92.2159 373.297 96.0648C373.297 96.1283 373.297 96.1791 373.297 96.2426C373.411 96.954 373.424 97.7415 373.399 98.6815Z" fill="#DD7A7A"/>
<path d="M364.418 174.605C366.107 172.712 369.042 162.169 370.769 155.551C372.389 148.039 372.715 140.307 371.735 132.686C370.223 123.591 366.069 111.015 364.875 105.807C363.681 100.599 365.244 98.3887 367.568 96.2801C370.287 93.8158 374.326 94.5525 376.943 101.793C380.359 111.818 382.647 122.192 383.764 132.724C384.378 140.56 383.695 148.444 381.744 156.059C379.991 163.121 377.438 168.291 374.123 174.795C373.234 176.561 371.201 181.502 369.893 185.084C368.585 188.666 362.856 176.345 364.418 174.605Z" fill="#FFCEA9"/>
<path d="M361.865 85.1406C361.865 85.1406 361.865 85.1406 361.865 85.2295C359.82 87.9098 352.757 96.4968 343.522 98.8976C342.532 99.1679 341.521 99.3549 340.499 99.4565L339.495 99.5581L338.771 98.8468C337.655 97.6621 336.844 96.2233 336.409 94.6549C335.636 92.0657 335.314 89.3632 335.456 86.6649C335.514 83.6003 336.33 80.5978 337.831 77.9255C338.211 77.2838 338.667 76.6909 339.191 76.1599C339.29 76.0478 339.396 75.9418 339.508 75.8423C339.657 75.6893 339.819 75.5491 339.991 75.4231L340.321 75.8423L341.325 77.1125L342.684 78.802C342.508 78.9435 342.351 79.1056 342.214 79.2847C340.842 80.7709 339.927 83.6163 339.775 86.9063C339.541 89.6865 340.036 92.4797 341.21 95.0106C349.861 93.4481 356.962 84.5436 358.524 82.4604C359.297 83.2632 360.148 83.9866 361.065 84.6198L361.865 85.1406Z" fill="#D5D7E2"/>
<path d="M333.119 52.9397C334.389 44.1875 340.74 37.5568 349.734 38.0522C353.387 38.2118 356.897 39.5216 359.761 41.7946C362.626 44.0675 364.699 47.1874 365.685 50.7089C366.671 54.2303 366.52 57.9732 365.252 61.4033C363.984 64.8334 361.665 67.7752 358.625 69.8088C358.309 71.129 357.84 72.4079 357.228 73.6196C354.04 77.3542 344.386 79.666 341.604 79.2723C338.047 78.7641 336.116 77.2779 334.427 73.3782C331.378 66.4553 332.318 57.284 333.119 52.9397Z" fill="#FFCEA9"/>
<path d="M358.524 69.7447L357.698 62.1231C357.698 62.1231 363.935 45.9653 349.2 49.0648C339.457 51.1226 337.018 52.0118 334.059 45.4826C331.099 38.9535 341.541 33.0721 353.938 34.7108C358.211 35.156 362.161 37.1911 365.003 40.4124C367.845 43.6336 369.373 47.8056 369.283 52.1007C369.004 56.8896 367.733 66.6071 358.524 69.7447Z" fill="#3A4151"/>
<path d="M383.815 113.581C383.815 113.581 375.761 121.584 366.247 119.285C364.888 118.357 361.623 99.6464 361.623 99.6464C361.623 99.6464 361.623 89.281 369.563 89.5605C377.502 89.8399 383.815 113.581 383.815 113.581Z" fill="#DD7A7A"/>
<path d="M333.589 74.114C330.962 76.4913 328.69 79.2334 326.843 82.2564C324.303 86.6134 323.249 94.7431 322.867 99.4431C322.69 101.641 322.652 103.076 322.652 103.076C322.652 103.076 317.278 103.724 315.538 101.272C315.698 99.9807 315.97 98.7056 316.351 97.4615C318.51 89.878 324.735 75.0667 333.589 74.114Z" fill="#DD7A7A"/>
<path d="M243.768 161.242C243.247 165.751 237.861 185.225 239.017 191.893C240.173 198.562 258.567 209.677 258.567 209.677L261.107 198.245L250.945 188.26L253.702 169.346L243.768 161.242Z" fill="#FFCEA9"/>
<path d="M257.995 142.048C256.205 141.222 254.174 141.081 252.287 141.652C250.4 142.223 248.788 143.467 247.757 145.147C245.051 149.631 242.231 165.001 241.977 167.631C241.977 167.631 245.788 172.877 251.479 172.001L257.995 142.048Z" fill="#EDEDED"/>
<path d="M279.005 359.136C283.007 360.241 287.283 359.725 290.908 357.701C293.779 357.79 309.339 351.121 311.461 356.71C313.315 361.613 306.57 366.161 302.963 367.024C295.1 368.93 289.282 372.855 286.132 373.516C283.782 374.011 280.733 374.341 278.853 372.487C276.605 370.276 276.808 362.058 279.005 359.136Z" fill="#2B303F"/>
<path d="M286.119 372.156C289.269 371.496 295.087 367.571 302.95 365.665C305.973 364.941 311.169 361.639 311.702 357.701C312.401 362.21 306.316 366.211 302.95 367.024C295.087 368.93 289.269 372.855 286.119 373.515C283.769 374.011 280.72 374.341 278.84 372.487C278.355 371.949 278.003 371.305 277.812 370.607C278.98 371.494 280.34 372.096 281.782 372.365C283.224 372.634 284.709 372.562 286.119 372.156V372.156Z" fill="#3A4151"/>
<path d="M253.753 347.806C257.759 348.903 262.036 348.388 265.668 346.371C268.526 346.447 284.099 339.791 286.208 345.38C288.063 350.283 281.33 354.818 277.723 355.694C269.86 357.6 264.042 361.512 260.879 362.185C258.529 362.681 255.48 362.998 253.613 361.156C251.365 358.933 251.555 350.715 253.753 347.806Z" fill="#2B303F"/>
<path d="M260.879 360.877C264.042 360.204 269.859 356.291 277.722 354.386C280.733 353.649 285.941 350.347 286.462 346.421C287.16 350.931 281.076 354.932 277.722 355.745C269.859 357.651 264.042 361.563 260.879 362.236C258.529 362.732 255.48 363.049 253.613 361.207C253.128 360.67 252.775 360.026 252.584 359.327C253.75 360.214 255.107 360.816 256.548 361.085C257.988 361.354 259.471 361.283 260.879 360.877Z" fill="#3A4151"/>
<path d="M260.587 142.391C264.296 142.569 267.065 143.522 267.535 142.391C267.916 140.461 268.183 138.51 268.335 136.548C267.903 135.468 267.535 134.312 267.535 134.312C262.86 131.442 261.387 126.386 260.777 120.505C259.723 110.457 265.16 101.667 275.207 100.612C284.645 99.6342 291.594 106.265 293.448 115.385C294.452 119.882 296.446 128.393 293.753 135.799C292.254 139.927 290.311 143.217 288.38 143.852C286.509 143.81 284.642 143.649 282.791 143.369V143.369C282.791 143.369 282.295 146.164 281.952 147.955C281.61 149.746 281.737 150.686 285.306 152.884C288.875 155.081 279.907 159.603 274.051 159.159C268.196 158.714 261.616 155.183 259.812 151.397C257.856 147.167 258.033 142.201 260.587 142.391Z" fill="#FFCEA9"/>
<path d="M265.96 142.874C264.931 145.414 267.547 148.59 274.534 150.775C281.52 152.959 282.156 150.152 282.156 150.152C282.156 150.152 292.394 154.814 295.722 157.151C299.927 160.073 301.781 168.584 302.34 182.874C303.001 199.388 303.051 224.031 302.505 228.273C302.505 228.273 294.668 236.086 284.645 235.26C274.623 234.434 257.741 225.555 253.651 218.746C253.765 204.215 255.455 201.852 253.105 193.481C247.731 174.325 244.886 166.475 247.503 153.747C249.662 143.255 252.685 141.946 256.839 142.048C259.892 142.16 262.936 142.436 265.96 142.874V142.874Z" fill="#F4F4F4"/>
<path d="M318.104 196.58C309.886 198.651 307.942 193.468 306.862 189.162C304.246 178.758 302.836 169.371 300.879 163.464C298.593 156.503 296.179 155.398 292.788 154.039C288.825 152.438 285.408 155.805 286.729 164.658C288.291 175.151 290.349 182.442 294.261 194.916C295.29 198.155 297.589 203.91 301.019 206.691C305.262 210.121 311.664 209.981 321.343 207.568C325.459 206.539 329.994 204.075 337.793 200.442C339.889 199.464 341.515 198.803 345.542 196.936C349.578 195.121 353.117 192.358 355.856 188.882C357.965 185.834 358.245 184.398 357.813 183.7C357.381 183.001 356.314 183.026 355.196 184.309C353.569 186.476 351.563 188.331 349.276 189.784C349.276 189.784 351.817 187.104 353.278 185.351C354.54 183.806 355.587 182.096 356.39 180.27C357.139 178.492 355.602 176.078 354.446 177.336C353.29 178.593 352.719 179.876 350.636 182.417C349.518 183.779 348.239 184.999 346.825 186.05C348.15 184.265 349.327 182.374 350.343 180.397C351.238 178.857 351.679 177.096 351.614 175.316C351.614 174.389 350.242 173.283 349.073 175.049C347.854 176.688 347.092 179.114 344.551 181.769C342.671 183.725 341.071 184.843 341.02 184.309C340.969 183.776 342.163 182.696 342.836 180.422C343.509 178.149 342.836 175.748 341.566 175.481C340.296 175.214 340.55 175.291 339.546 177.425C338.543 179.559 337.006 181.121 335.799 184.22C335.166 186.407 334.006 188.405 332.42 190.038C330.413 192.223 325.929 194.611 318.104 196.58Z" fill="#FFCEA9"/>
<path d="M289.752 152.617C295.239 151.804 299.126 154.281 301.552 162.601C303.979 170.922 305.681 177.768 305.681 177.768C303.501 180.904 300.207 183.089 296.471 183.878C289.891 185.466 287.579 182.329 287.579 182.329C287.579 182.329 285.763 173.602 284.62 167.657C283.477 161.712 282.943 153.621 289.752 152.617Z" fill="#EDEDED"/>
<path d="M293.181 114.052C293.181 114.052 301.87 100.854 283.019 98.1735C269.491 96.23 260.713 104.944 259.761 114.446C258.795 123.477 264.359 132.864 268.386 136.586C270.342 137.285 274.559 137.691 280.11 135.176C280.328 132.714 280.413 130.242 280.364 127.771C280.364 127.771 273.759 113.823 293.181 114.052Z" fill="#3A4151"/>
<path d="M405.524 165.256C405.524 165.256 404.063 187.18 401.192 190.331C398.322 193.481 388.591 195.64 388.591 195.64L381.11 207.962C381.11 207.962 387.944 168.774 389.43 167.834C390.916 166.894 405.524 165.256 405.524 165.256Z" fill="#FFCEA9"/>
<path d="M391.106 140.905C392.929 140.061 394.998 139.915 396.92 140.496C398.843 141.077 400.485 142.343 401.535 144.055C404.292 148.616 407.15 164.278 407.417 166.92C407.417 166.92 403.542 172.255 397.75 171.366L391.106 140.905Z" fill="#434B5B"/>
<path d="M368.915 359.669C364.836 360.798 360.477 360.273 356.784 358.208C353.862 358.297 338.009 351.514 335.85 357.205C333.97 362.197 340.829 366.821 344.5 367.71C352.516 369.653 358.473 373.642 361.649 374.315C364.05 374.823 367.149 375.153 369.054 373.273C371.354 371.038 371.15 362.654 368.915 359.669Z" fill="#38226D"/>
<path d="M361.649 372.931C358.435 372.258 352.515 368.269 344.5 366.326C341.426 365.576 336.129 362.223 335.608 358.208C334.897 362.807 341.096 366.884 344.5 367.71C352.515 369.654 358.473 373.642 361.649 374.315C364.049 374.824 367.149 375.154 369.054 373.274C369.555 372.729 369.917 372.071 370.109 371.356C368.92 372.262 367.535 372.876 366.066 373.15C364.597 373.423 363.084 373.348 361.649 372.931V372.931Z" fill="#9C73FF"/>
<path d="M393.596 351.984C389.522 353.113 385.167 352.588 381.478 350.524C378.556 350.612 362.703 343.829 360.544 349.52C358.651 354.512 365.523 359.136 369.194 360.025C377.197 361.969 383.167 365.957 386.343 366.63C388.731 367.139 391.843 367.469 393.748 365.589C396.035 363.315 395.844 354.957 393.596 351.984Z" fill="#38226D"/>
<path d="M386.342 365.246C383.116 364.56 377.197 360.572 369.194 358.628C366.12 357.891 360.823 354.525 360.302 350.511C359.591 355.11 365.79 359.187 369.194 360.013C377.197 361.956 383.167 365.945 386.342 366.618C388.731 367.126 391.843 367.457 393.748 365.577C394.244 365.028 394.606 364.371 394.802 363.658C393.613 364.562 392.229 365.176 390.76 365.452C389.292 365.727 387.779 365.657 386.342 365.246Z" fill="#9C73FF"/>
<path d="M395.362 307.386C394.683 301.497 393.458 295.684 391.703 290.022C391.703 290.022 392.796 275.045 393.342 260.806C393.964 244.686 399.554 230.497 395.146 217.617L346.037 228.541C346.037 228.541 348.413 292.956 349.073 300.743C349.44 306.8 350.187 312.829 351.309 318.793C353.57 331.267 356.047 359.2 356.047 359.2C361.306 362.249 369.016 359.734 369.016 359.734C369.016 359.734 369.016 324.776 368.712 315.783C368.292 304.808 367.962 305.621 367.962 305.621L369.613 278.272L370.68 264.667C370.68 264.667 372.065 274.652 372.954 283.569C373.742 291.343 375.622 298.38 377.718 312.848C379.534 325.411 381.402 350.956 381.402 350.956C386.673 354.005 393.748 351.909 393.748 351.909C393.748 351.909 396.772 318.285 395.362 307.386Z" fill="#C1C4D3"/>
<path d="M388.464 141.121C384.654 141.311 381.859 142.277 381.389 141.121C380.98 139.167 380.692 137.19 380.525 135.201C380.957 134.109 381.338 132.928 381.338 132.928C386.089 129.993 387.601 124.849 388.223 118.866C389.29 108.628 383.764 99.6721 373.526 98.6051C363.897 97.6016 356.822 104.359 354.929 113.645C353.913 118.231 351.893 126.894 354.624 134.439C356.162 138.644 358.13 142.061 360.099 142.645C362.009 142.599 363.914 142.433 365.803 142.15C365.803 142.15 366.311 144.995 366.667 146.824C367.022 148.654 366.883 149.606 363.25 151.905C359.617 154.205 368.737 158.752 374.682 158.257C380.627 157.761 387.385 154.205 389.188 150.356C391.246 146.113 391.068 141.045 388.464 141.121Z" fill="#FFCEA9"/>
<path d="M382.989 141.731C384.031 144.347 381.376 147.549 374.25 149.784C367.124 152.02 366.501 149.149 366.501 149.149C366.501 149.149 356.072 153.9 352.668 156.275C348.4 159.26 346.507 167.898 345.936 182.481C345.263 199.363 345.212 224.4 345.771 228.718C345.771 228.718 353.748 236.67 363.961 235.832C374.174 234.994 391.36 225.962 395.527 218.976C395.413 204.177 393.685 201.776 396.086 193.24C401.561 173.729 404.457 165.739 401.789 152.769C399.592 142.074 396.505 140.753 392.288 140.854C389.175 140.98 386.071 141.272 382.989 141.731V141.731Z" fill="#434B5B"/>
<path d="M354.713 241.713L359.908 182.938L348.959 177.133L344.678 180.715L345.948 233.507V234.955L346.024 236.81C346.024 236.81 345.77 241.256 354.154 246.565C354.154 246.565 354.294 245.181 354.408 243.872L354.599 241.687L354.713 241.713Z" fill="#FFCEA9"/>
<path d="M356.047 152.643C350.394 152.529 346.787 155.527 345.415 164.253C344.043 172.98 343.192 180.106 343.192 180.106C345.797 182.999 349.41 184.785 353.29 185.098C360.137 185.86 362.119 182.38 362.119 182.38C362.119 182.38 362.843 173.323 363.224 167.137C363.605 160.951 363.046 152.783 356.047 152.643Z" fill="#434B5B"/>
<path d="M355.259 112.388C355.259 112.388 346.368 98.9355 365.574 96.2044C379.395 94.2228 388.274 103.102 389.303 112.718C390.281 121.915 384.615 131.48 380.525 135.265C378.531 135.976 374.174 136.396 368.585 133.83C368.358 131.321 368.269 128.802 368.318 126.284C368.318 126.284 375.038 112.146 355.259 112.388Z" fill="#3A2C6D"/>
<path d="M253.448 305.506C254.121 299.73 255.325 294.028 257.042 288.472C257.042 288.472 255.975 273.762 255.429 259.814C254.819 243.987 249.332 230.052 253.663 217.426L302.505 228.287C302.505 228.287 299.545 291.393 298.898 299.028C298.537 304.974 297.803 310.893 296.7 316.748C294.477 329.006 290.857 358.146 290.857 358.146C285.687 361.143 278.904 359.416 278.904 359.416C278.904 359.416 279.285 322.578 279.615 313.686C280.021 302.902 280.352 303.728 280.352 303.728L278.738 277.039L277.671 263.676C277.671 263.676 276.325 273.483 275.448 282.235C274.686 289.856 272.832 296.779 270.774 310.981C268.996 323.315 266.099 348.085 266.099 348.085C260.929 351.083 253.917 348.593 253.917 348.593C253.917 348.593 252.05 316.202 253.448 305.506Z" fill="#916F5D"/>
</svg>
