<svg width="80" height="80" viewBox="0 0 80 80" fill="none" xmlns="http://www.w3.org/2000/svg">
<path fill-rule="evenodd" clip-rule="evenodd" d="M32.0118 35.2013C32.0122 33.701 32.4344 32.2311 33.2302 30.9593C34.0261 29.6875 35.1635 28.6652 36.5126 28.009C37.8618 27.3528 39.3682 27.0892 40.86 27.2482C42.3518 27.4073 43.7688 27.9826 44.9493 28.9086C46.1297 29.8345 47.026 31.0737 47.5358 32.4847C48.0456 33.8957 48.1484 35.4216 47.8324 36.8882C47.5164 38.3548 46.7943 39.703 45.7487 40.7788C44.7031 41.8547 43.376 42.6148 41.919 42.9725C42.1786 43.5199 42.5883 43.9823 43.1004 44.3061C43.6125 44.6298 44.206 44.8015 44.8118 44.8013H46.4118C47.6849 44.8013 48.9058 45.307 49.8059 46.2072C50.7061 47.1073 51.2118 48.3282 51.2118 49.6013V52.8013H48.0118V49.6013C48.0118 49.1769 47.8433 48.77 47.5432 48.4699C47.2431 48.1698 46.8362 48.0013 46.4118 48.0013H44.8118C43.9037 48.0023 43.0058 47.8097 42.178 47.4361C41.3503 47.0625 40.6118 46.5166 40.0118 45.8349C39.4119 46.5166 38.6734 47.0625 37.8456 47.4361C37.0179 47.8097 36.12 48.0023 35.2118 48.0013H33.6118C33.1875 48.0013 32.7805 48.1698 32.4805 48.4699C32.1804 48.77 32.0118 49.1769 32.0118 49.6013V52.8013H28.8118V49.6013C28.8118 48.3282 29.3175 47.1073 30.2177 46.2072C31.1179 45.307 32.3388 44.8013 33.6118 44.8013H35.2118C35.8177 44.8015 36.4112 44.6298 36.9233 44.3061C37.4354 43.9823 37.845 43.5199 38.1046 42.9725C36.3662 42.5452 34.8213 41.5474 33.7168 40.1386C32.6123 38.7298 32.012 36.9914 32.0118 35.2013ZM40.0118 40.0013C39.3815 40.0013 38.7573 39.8771 38.1749 39.6359C37.5926 39.3947 37.0634 39.0411 36.6177 38.5954C36.172 38.1497 35.8184 37.6205 35.5772 37.0381C35.336 36.4558 35.2118 35.8316 35.2118 35.2013C35.2118 34.5709 35.336 33.9467 35.5772 33.3644C35.8184 32.782 36.172 32.2529 36.6177 31.8072C37.0634 31.3614 37.5926 31.0079 38.1749 30.7666C38.7573 30.5254 39.3815 30.4013 40.0118 30.4013C41.2849 30.4013 42.5058 30.907 43.4059 31.8072C44.3061 32.7073 44.8118 33.9282 44.8118 35.2013C44.8118 36.4743 44.3061 37.6952 43.4059 38.5954C42.5058 39.4956 41.2849 40.0013 40.0118 40.0013Z" fill="#565656"/>
</svg>
