<svg width="574" height="519" viewBox="0 0 574 519" fill="none" xmlns="http://www.w3.org/2000/svg">
<path d="M464.46 382.912C472.242 402.154 451.893 420.921 431.027 413.745L276.804 360.706C259.073 354.608 254.126 333.639 267.507 321.299L364.217 232.112C377.598 219.772 400.335 224.334 406.947 240.685L464.46 382.912Z" fill="#63CC22"/>
<circle r="109.46" transform="matrix(0.73512 -0.677937 0.73512 0.677937 291.817 253.62)" fill="#63CC22"/>
<path d="M501.307 238.844C521.701 247.434 521.701 276.333 501.307 284.923L352.441 347.628C335.962 354.57 317.736 342.47 317.736 324.589V199.178C317.736 181.297 335.962 169.197 352.441 176.139L501.307 238.844Z" fill="#FFEA00"/>
<ellipse cx="283.033" cy="261.239" rx="104.944" ry="113.796" transform="rotate(-90 283.033 261.239)" fill="#FFEA00"/>
<path d="M424.012 101.194C444.878 94.0175 465.227 112.784 457.446 132.026L399.933 274.253C393.321 290.604 370.583 295.166 357.203 282.826L260.493 193.639C247.112 181.299 252.059 160.33 269.789 154.233L424.012 101.194Z" fill="#FF9900"/>
<circle r="109.46" transform="matrix(-0.73512 -0.677937 0.73512 -0.677937 283.815 260.408)" fill="#FF9900"/>
<path d="M259.932 53.4476C269.114 34.9084 295.556 34.9084 304.738 53.4476L373.287 191.853C381.517 208.47 369.427 227.948 350.884 227.948H213.787C195.244 227.948 183.154 208.47 191.384 191.853L259.932 53.4476Z" fill="#FF3F3F"/>
<ellipse cx="281.637" cy="259.952" rx="113.796" ry="104.944" transform="rotate(-180 281.637 259.952)" fill="#FF3F3F"/>
<path d="M109.197 131.116C101.416 111.873 121.765 93.1066 142.631 100.283L296.854 153.322C314.584 159.42 319.531 180.388 306.15 192.728L209.44 281.916C196.06 294.255 173.322 289.693 166.71 273.342L109.197 131.116Z" fill="#B033DD"/>
<circle r="109.46" transform="matrix(-0.73512 0.677937 -0.73512 -0.677937 281.841 260.407)" fill="#B033DD"/>
<path d="M63.3635 284.922C42.9697 276.332 42.9697 247.433 63.3634 238.843L212.23 176.138C228.709 169.196 246.934 181.296 246.934 199.177L246.934 324.588C246.934 342.469 228.709 354.569 212.23 347.627L63.3635 284.922Z" fill="#009DFF"/>
<ellipse cx="281.637" cy="262.526" rx="104.944" ry="113.796" transform="rotate(90 281.637 262.526)" fill="#009DFF"/>
<path d="M145.208 418.511C124.342 425.687 103.993 406.92 111.774 387.678L169.287 245.451C175.899 229.1 198.637 224.538 212.018 236.878L308.728 326.065C322.108 338.405 317.161 359.374 299.431 365.471L145.208 418.511Z" fill="#22CCBB"/>
<mask id="path-14-inside-1_2202_2724" fill="white">
<path fill-rule="evenodd" clip-rule="evenodd" d="M385.11 308.267C393.986 293.322 399.033 276.167 399.033 257.925C399.033 199.966 348.085 152.98 285.237 152.98C222.389 152.98 171.441 199.966 171.441 257.925C171.441 270.156 173.71 281.899 177.881 292.814C178.149 294.202 178.611 295.593 179.283 296.963L268.213 478.09C274.86 491.629 295.719 491.604 302.328 478.049L385.11 308.267Z"/>
</mask>
<path fill-rule="evenodd" clip-rule="evenodd" d="M385.11 308.267C393.986 293.322 399.033 276.167 399.033 257.925C399.033 199.966 348.085 152.98 285.237 152.98C222.389 152.98 171.441 199.966 171.441 257.925C171.441 270.156 173.71 281.899 177.881 292.814C178.149 294.202 178.611 295.593 179.283 296.963L268.213 478.09C274.86 491.629 295.719 491.604 302.328 478.049L385.11 308.267Z" fill="#FAAE2B"/>
<path d="M385.11 308.267L377.815 304.582L377.658 304.846L377.524 305.121L385.11 308.267ZM285.237 152.98L285.237 160.65L285.237 152.98ZM171.441 257.925H179.758H171.441ZM177.881 292.815L186.069 291.468L185.95 290.854L185.725 290.265L177.881 292.815ZM179.283 296.963L171.706 300.126L171.706 300.126L179.283 296.963ZM268.213 478.09L275.79 474.927L275.79 474.927L268.213 478.09ZM302.328 478.049L294.742 474.904L294.742 474.904L302.328 478.049ZM390.716 257.925C390.716 274.847 386.038 290.738 377.815 304.582L392.404 311.951C401.934 295.905 407.35 277.487 407.35 257.925L390.716 257.925ZM285.237 160.65C343.491 160.65 390.716 204.202 390.716 257.925L407.35 257.925C407.35 195.73 352.678 145.31 285.237 145.31L285.237 160.65ZM179.758 257.925C179.758 204.202 226.982 160.65 285.237 160.65L285.237 145.31C217.796 145.31 163.124 195.73 163.124 257.925L179.758 257.925ZM185.725 290.265C181.863 280.157 179.758 269.276 179.758 257.925L163.124 257.925C163.124 271.036 165.557 283.641 170.037 295.364L185.725 290.265ZM186.859 293.799C186.472 293.009 186.216 292.229 186.069 291.468L169.693 294.161C170.083 296.176 170.75 298.178 171.706 300.126L186.859 293.799ZM275.79 474.927L186.859 293.799L171.706 300.126L260.637 481.254L275.79 474.927ZM294.742 474.904C291.071 482.434 279.483 482.448 275.79 474.927L260.637 481.254C270.238 500.809 300.367 500.773 309.913 481.195L294.742 474.904ZM377.524 305.121L294.742 474.904L309.913 481.195L392.695 311.412L377.524 305.121Z" fill="white" mask="url(#path-14-inside-1_2202_2724)"/>
<ellipse cx="287.549" cy="258.899" rx="53.4901" ry="49.3293" fill="white"/>
</svg>
